<svg width="70" height="70" viewBox="0 0 70 70" fill="none" xmlns="http://www.w3.org/2000/svg">
<rect width="70" height="70" rx="12" fill="url(#paint0_linear_617_6059)"/>
<path d="M49.267 41.3726H47.2179V36.0601H36.2893V32.5691H45.3206C45.6545 32.5691 45.9277 32.2958 45.9277 31.9619V21.9441C45.9277 21.6101 45.6545 21.3369 45.3206 21.3369H24.6777C24.3438 21.3369 24.0706 21.6101 24.0706 21.9441V31.9619C24.0706 32.2958 24.3438 32.5691 24.6777 32.5691H33.709V36.0601H22.7804V41.3726H20.7313C20.5643 41.3726 20.4277 41.5092 20.4277 41.6762V48.3548C20.4277 48.5217 20.5643 48.6583 20.7313 48.6583H27.4099C27.5768 48.6583 27.7135 48.5217 27.7135 48.3548V41.6762C27.7135 41.5092 27.5768 41.3726 27.4099 41.3726H25.3608V38.6405H33.709V41.3726H31.6599C31.4929 41.3726 31.3563 41.5092 31.3563 41.6762V48.3548C31.3563 48.5217 31.4929 48.6583 31.6599 48.6583H38.3385C38.5054 48.6583 38.642 48.5217 38.642 48.3548V41.6762C38.642 41.5092 38.5054 41.3726 38.3385 41.3726H36.2893V38.6405H44.6376V41.3726H42.5885C42.4215 41.3726 42.2849 41.5092 42.2849 41.6762V48.3548C42.2849 48.5217 42.4215 48.6583 42.5885 48.6583H49.267C49.434 48.6583 49.5706 48.5217 49.5706 48.3548V41.6762C49.5706 41.5092 49.434 41.3726 49.267 41.3726ZM25.2849 46.1273C25.2849 46.1842 25.2393 46.2298 25.1824 46.2298H22.955C22.898 46.2298 22.8525 46.1842 22.8525 46.1273V43.8999C22.8525 43.8429 22.898 43.7974 22.955 43.7974H25.1824C25.2393 43.7974 25.2849 43.8429 25.2849 43.8999V46.1273ZM36.2135 46.1273C36.2135 46.1842 36.1679 46.2298 36.111 46.2298H33.8835C33.8266 46.2298 33.7811 46.1842 33.7811 46.1273V43.8999C33.7811 43.8429 33.8266 43.7974 33.8835 43.7974H36.111C36.1679 43.7974 36.2135 43.8429 36.2135 43.8999V46.1273ZM26.4992 30.1405V23.7655H43.4992V30.1405H26.4992ZM47.142 46.1273C47.142 46.1842 47.0965 46.2298 47.0396 46.2298H44.8121C44.7552 46.2298 44.7097 46.1842 44.7097 46.1273V43.8999C44.7097 43.8429 44.7552 43.7974 44.8121 43.7974H47.0396C47.0965 43.7974 47.142 43.8429 47.142 43.8999V46.1273ZM29.2313 26.953C29.2313 27.3555 29.3912 27.7416 29.6759 28.0263C29.9605 28.3109 30.3466 28.4708 30.7492 28.4708C31.1517 28.4708 31.5378 28.3109 31.8225 28.0263C32.1071 27.7416 32.267 27.3555 32.267 26.953C32.267 26.5504 32.1071 26.1644 31.8225 25.8797C31.5378 25.595 31.1517 25.4351 30.7492 25.4351C30.3466 25.4351 29.9605 25.595 29.6759 25.8797C29.3912 26.1644 29.2313 26.5504 29.2313 26.953Z" fill="white"/>
<defs>
<linearGradient id="paint0_linear_617_6059" x1="-7.29166" y1="-7.58789" x2="42.3162" y2="92.9918" gradientUnits="userSpaceOnUse">
<stop stop-color="#2874F4"/>
<stop offset="0.5" stop-color="#4364F7"/>
<stop offset="1" stop-color="#312FB1"/>
</linearGradient>
</defs>
</svg>
