<svg width="56" height="56" viewBox="0 0 56 56" fill="none" xmlns="http://www.w3.org/2000/svg">
<rect width="56" height="56" fill="#0052D4"/>
<path d="M40.0964 39.1788L38.4401 29.6288H38.9995C39.4495 29.6288 39.812 29.2663 39.812 28.8163V22.8163C39.812 22.3663 39.4495 22.0038 38.9995 22.0038H31.312V16.3163C31.312 15.8663 30.9495 15.5038 30.4995 15.5038H25.4995C25.0495 15.5038 24.687 15.8663 24.687 16.3163V22.0038H16.9995C16.5495 22.0038 16.187 22.3663 16.187 22.8163V28.8163C16.187 29.2663 16.5495 29.6288 16.9995 29.6288H17.5589L15.9026 39.1788C15.8823 39.2954 15.8878 39.415 15.9187 39.5293C15.9495 39.6435 16.005 39.7497 16.0813 39.8402C16.1575 39.9307 16.2526 40.0035 16.36 40.0533C16.4673 40.1032 16.5843 40.1289 16.7026 40.1288H39.2964C39.3433 40.1288 39.3901 40.1257 39.4339 40.1163C39.5391 40.0986 39.6398 40.0603 39.7302 40.0035C39.8205 39.9467 39.8987 39.8726 39.9603 39.7855C40.0219 39.6983 40.0656 39.5998 40.089 39.4957C40.1123 39.3916 40.1149 39.2839 40.0964 39.1788ZM18.3745 24.1913H26.8745V17.6913H29.1245V24.1913H37.6245V27.4413H18.3745V24.1913ZM32.9995 37.9413V33.0663C32.9995 32.9288 32.887 32.8163 32.7495 32.8163H31.2495C31.112 32.8163 30.9995 32.9288 30.9995 33.0663V37.9413H24.9995V33.0663C24.9995 32.9288 24.887 32.8163 24.7495 32.8163H23.2495C23.112 32.8163 22.9995 32.9288 22.9995 33.0663V37.9413H18.337L19.7464 29.8163H36.2495L37.6589 37.9413H32.9995Z" fill="white"/>
</svg>
