<svg width="70" height="70" viewBox="0 0 70 70" fill="none" xmlns="http://www.w3.org/2000/svg">
<rect width="70" height="70" rx="12" fill="url(#paint0_linear_617_6026)"/>
<path d="M49.6876 48.5744L47.6765 36.978H48.3557C48.9021 36.978 49.3423 36.5378 49.3423 35.9914V28.7056C49.3423 28.1592 48.9021 27.719 48.3557 27.719H39.0209V20.8128C39.0209 20.2664 38.5807 19.8262 38.0343 19.8262H31.9629C31.4164 19.8262 30.9762 20.2664 30.9762 20.8128V27.719H21.6414C21.095 27.719 20.6548 28.1592 20.6548 28.7056V35.9914C20.6548 36.5378 21.095 36.978 21.6414 36.978H22.3207L20.3095 48.5744C20.2849 48.716 20.2915 48.8612 20.329 49C20.3665 49.1387 20.4338 49.2676 20.5264 49.3775C20.619 49.4875 20.7345 49.5758 20.8649 49.6363C20.9952 49.6969 21.1372 49.7281 21.2809 49.728H48.7162C48.7731 49.728 48.83 49.7242 48.8832 49.7128C49.011 49.6913 49.1332 49.6447 49.2429 49.5758C49.3526 49.5069 49.4476 49.4169 49.5224 49.3111C49.5972 49.2052 49.6503 49.0857 49.6786 48.9592C49.707 48.8328 49.7101 48.702 49.6876 48.5744ZM23.3111 30.3753H33.6325V22.4824H36.3646V30.3753H46.6861V34.3217H23.3111V30.3753ZM41.07 47.0717V41.1521C41.07 40.9851 40.9334 40.8485 40.7664 40.8485H38.945C38.778 40.8485 38.6414 40.9851 38.6414 41.1521V47.0717H31.3557V41.1521C31.3557 40.9851 31.2191 40.8485 31.0521 40.8485H29.2307C29.0638 40.8485 28.9271 40.9851 28.9271 41.1521V47.0717H23.2655L24.9769 37.2056H45.0164L46.7278 47.0717H41.07Z" fill="white"/>
<defs>
<linearGradient id="paint0_linear_617_6026" x1="-7.29166" y1="-7.58789" x2="42.3162" y2="92.9918" gradientUnits="userSpaceOnUse">
<stop stop-color="#2874F4"/>
<stop offset="0.5" stop-color="#4364F7"/>
<stop offset="1" stop-color="#312FB1"/>
</linearGradient>
</defs>
</svg>
