<svg width="41" height="41" viewBox="0 0 41 41" fill="none" xmlns="http://www.w3.org/2000/svg">
<rect x="0.5" width="40.4615" height="40.4615" rx="2.92308" fill="#1890FF" fill-opacity="0.08"/>
<path d="M20.7301 12.0312C17.2301 12.0312 14.0635 14.7146 14.0635 18.8646C14.0635 21.5146 16.1051 24.6312 20.1801 28.2229C20.4968 28.4979 20.9718 28.4979 21.2885 28.2229C25.3551 24.6312 27.3968 21.5146 27.3968 18.8646C27.3968 14.7146 24.2301 12.0312 20.7301 12.0312ZM20.7301 20.3646C19.8135 20.3646 19.0635 19.6146 19.0635 18.6979C19.0635 17.7812 19.8135 17.0312 20.7301 17.0312C21.6468 17.0312 22.3968 17.7812 22.3968 18.6979C22.3968 19.6146 21.6468 20.3646 20.7301 20.3646Z" fill="#0052D4"/>
</svg>
