<svg width="462" height="431" viewBox="0 0 462 431" fill="none" xmlns="http://www.w3.org/2000/svg">
<rect width="462" height="430.982" rx="4" fill="#AAB5C3"/>
<path d="M160.35 267.575L160.2 267.725C158.175 263.3 156.9 258.275 156.375 252.725C156.9 258.2 158.325 263.15 160.35 267.575Z" fill="white"/>
<path d="M208.5 202.85C218.359 202.85 226.35 194.858 226.35 185C226.35 175.142 218.359 167.15 208.5 167.15C198.642 167.15 190.65 175.142 190.65 185C190.65 194.858 198.642 202.85 208.5 202.85Z" fill="white"/>
<path d="M262.425 140H199.575C172.275 140 156 156.275 156 183.575V246.425C156 254.6 157.425 261.725 160.2 267.725C166.65 281.975 180.45 290 199.575 290H262.425C289.725 290 306 273.725 306 246.425V229.25V183.575C306 156.275 289.725 140 262.425 140ZM293.775 218.75C287.925 213.725 278.475 213.725 272.625 218.75L241.425 245.525C235.575 250.55 226.125 250.55 220.275 245.525L217.725 243.425C212.4 238.775 203.925 238.325 197.925 242.375L169.875 261.2C168.225 257 167.25 252.125 167.25 246.425V183.575C167.25 162.425 178.425 151.25 199.575 151.25H262.425C283.575 151.25 294.75 162.425 294.75 183.575V219.575L293.775 218.75Z" fill="white"/>
</svg>
