<svg width="1290" height="331" viewBox="0 0 1290 331" fill="none" xmlns="http://www.w3.org/2000/svg">
<rect y="0.982422" width="1290" height="330" rx="4" fill="white"/>
<path d="M590.05 206.892L589.933 207.008C588.358 203.567 587.366 199.658 586.958 195.342C587.366 199.6 588.475 203.45 590.05 206.892Z" fill="#C4C4C4"/>
<path d="M627.5 156.55C635.167 156.55 641.383 150.334 641.383 142.667C641.383 134.999 635.167 128.783 627.5 128.783C619.832 128.783 613.616 134.999 613.616 142.667C613.616 150.334 619.832 156.55 627.5 156.55Z" fill="#C4C4C4"/>
<path d="M669.442 107.667H620.559C599.325 107.667 586.667 120.325 586.667 141.558V190.442C586.667 196.8 587.775 202.342 589.934 207.008C594.95 218.092 605.684 224.333 620.559 224.333H669.442C690.675 224.333 703.334 211.675 703.334 190.442V177.083V141.558C703.334 120.325 690.675 107.667 669.442 107.667ZM693.825 168.917C689.275 165.008 681.925 165.008 677.375 168.917L653.109 189.742C648.559 193.65 641.209 193.65 636.659 189.742L634.675 188.108C630.534 184.492 623.942 184.142 619.275 187.292L597.459 201.933C596.175 198.667 595.417 194.875 595.417 190.442V141.558C595.417 125.108 604.109 116.417 620.559 116.417H669.442C685.892 116.417 694.584 125.108 694.584 141.558V169.558L693.825 168.917Z" fill="#C4C4C4"/>
</svg>
