<svg width="70" height="70" viewBox="0 0 70 70" fill="none" xmlns="http://www.w3.org/2000/svg">
<rect width="70" height="70" rx="12" fill="url(#paint0_linear_617_6145)"/>
<path d="M49.267 45.6262H23.1599V21.9476C23.1599 21.7807 23.0233 21.644 22.8563 21.644H20.7313C20.5643 21.644 20.4277 21.7807 20.4277 21.9476V48.0548C20.4277 48.2217 20.5643 48.3583 20.7313 48.3583H49.267C49.434 48.3583 49.5706 48.2217 49.5706 48.0548V45.9298C49.5706 45.7628 49.434 45.6262 49.267 45.6262ZM26.4992 38.4923C26.4992 39.1364 26.755 39.7541 27.2105 40.2095C27.6659 40.665 28.2836 40.9208 28.9277 40.9208C29.5718 40.9208 30.1895 40.665 30.645 40.2095C31.1004 39.7541 31.3563 39.1364 31.3563 38.4923C31.3563 37.8482 31.1004 37.2304 30.645 36.775C30.1895 36.3196 29.5718 36.0637 28.9277 36.0637C28.2836 36.0637 27.6659 36.3196 27.2105 36.775C26.755 37.2304 26.4992 37.8482 26.4992 38.4923ZM30.9768 29.9923C30.9768 30.4753 31.1687 30.9386 31.5103 31.2802C31.8519 31.6218 32.3152 31.8137 32.7983 31.8137C33.2813 31.8137 33.7446 31.6218 34.0862 31.2802C34.4278 30.9386 34.6197 30.4753 34.6197 29.9923C34.6197 29.5092 34.4278 29.0459 34.0862 28.7043C33.7446 28.3627 33.2813 28.1708 32.7983 28.1708C32.3152 28.1708 31.8519 28.3627 31.5103 28.7043C31.1687 29.0459 30.9768 29.5092 30.9768 29.9923ZM36.9724 38.644C36.9724 39.6102 37.3562 40.5368 38.0393 41.2199C38.7225 41.9031 39.6491 42.2869 40.6152 42.2869C41.5814 42.2869 42.508 41.9031 43.1911 41.2199C43.8743 40.5368 44.2581 39.6102 44.2581 38.644C44.2581 37.6779 43.8743 36.7513 43.1911 36.0682C42.508 35.385 41.5814 35.0012 40.6152 35.0012C39.6491 35.0012 38.7225 35.385 38.0393 36.0682C37.3562 36.7513 36.9724 37.6779 36.9724 38.644ZM42.5885 26.7289C42.5885 27.2924 42.8123 27.833 43.2109 28.2315C43.6094 28.63 44.1499 28.8539 44.7135 28.8539C45.277 28.8539 45.8175 28.63 46.2161 28.2315C46.6146 27.833 46.8385 27.2924 46.8385 26.7289C46.8385 26.1653 46.6146 25.6248 46.2161 25.2263C45.8175 24.8277 45.277 24.6039 44.7135 24.6039C44.1499 24.6039 43.6094 24.8277 43.2109 25.2263C42.8123 25.6248 42.5885 26.1653 42.5885 26.7289Z" fill="white"/>
<defs>
<linearGradient id="paint0_linear_617_6145" x1="-7.29166" y1="-7.58789" x2="42.3162" y2="92.9918" gradientUnits="userSpaceOnUse">
<stop stop-color="#2874F4"/>
<stop offset="0.5" stop-color="#4364F7"/>
<stop offset="1" stop-color="#312FB1"/>
</linearGradient>
</defs>
</svg>
