<svg width="56" height="56" viewBox="0 0 56 56" fill="none" xmlns="http://www.w3.org/2000/svg">
<rect width="56" height="56" fill="#0052D4"/>
<path d="M39.75 36.751H18.25V17.251C18.25 17.1135 18.1375 17.001 18 17.001H16.25C16.1125 17.001 16 17.1135 16 17.251V38.751C16 38.8885 16.1125 39.001 16.25 39.001H39.75C39.8875 39.001 40 38.8885 40 38.751V37.001C40 36.8635 39.8875 36.751 39.75 36.751ZM21 30.876C21 31.4064 21.2107 31.9151 21.5858 32.2902C21.9609 32.6653 22.4696 32.876 23 32.876C23.5304 32.876 24.0391 32.6653 24.4142 32.2902C24.7893 31.9151 25 31.4064 25 30.876C25 30.3455 24.7893 29.8368 24.4142 29.4618C24.0391 29.0867 23.5304 28.876 23 28.876C22.4696 28.876 21.9609 29.0867 21.5858 29.4618C21.2107 29.8368 21 30.3455 21 30.876ZM24.6875 23.876C24.6875 24.2738 24.8455 24.6553 25.1268 24.9366C25.4081 25.2179 25.7897 25.376 26.1875 25.376C26.5853 25.376 26.9669 25.2179 27.2482 24.9366C27.5295 24.6553 27.6875 24.2738 27.6875 23.876C27.6875 23.4782 27.5295 23.0966 27.2482 22.8153C26.9669 22.534 26.5853 22.376 26.1875 22.376C25.7897 22.376 25.4081 22.534 25.1268 22.8153C24.8455 23.0966 24.6875 23.4782 24.6875 23.876ZM29.625 31.001C29.625 31.7966 29.9411 32.5597 30.5037 33.1223C31.0663 33.6849 31.8294 34.001 32.625 34.001C33.4207 34.001 34.1837 33.6849 34.7463 33.1223C35.3089 32.5597 35.625 31.7966 35.625 31.001C35.625 30.2053 35.3089 29.4423 34.7463 28.8797C34.1837 28.317 33.4207 28.001 32.625 28.001C31.8294 28.001 31.0663 28.317 30.5037 28.8797C29.9411 29.4423 29.625 30.2053 29.625 31.001ZM34.25 21.1885C34.25 21.6526 34.4344 22.0977 34.7626 22.4259C35.0908 22.7541 35.5359 22.9385 36 22.9385C36.4641 22.9385 36.9093 22.7541 37.2374 22.4259C37.5656 22.0977 37.75 21.6526 37.75 21.1885C37.75 20.7243 37.5656 20.2792 37.2374 19.951C36.9093 19.6229 36.4641 19.4385 36 19.4385C35.5359 19.4385 35.0908 19.6229 34.7626 19.951C34.4344 20.2792 34.25 20.7243 34.25 21.1885Z" fill="white"/>
</svg>
