<svg width="56" height="56" viewBox="0 0 56 56" fill="none" xmlns="http://www.w3.org/2000/svg">
<rect width="56" height="56" fill="#0052D4"/>
<g clip-path="url(#clip0_629_24290)">
<path d="M38.7 37.0281C38.7063 37.0188 38.7156 37.0094 38.7219 37C40.7687 34.5656 42 31.4281 42 28C42 24.5719 40.7688 21.4344 38.725 19C38.7188 18.9906 38.7094 18.9844 38.7031 18.975C38.6688 18.9344 38.6375 18.8969 38.6031 18.8594C38.5906 18.8438 38.5781 18.8313 38.5656 18.8156L38.4375 18.6687L38.4344 18.6656C38.3875 18.6125 38.3375 18.5594 38.2906 18.5062L38.2875 18.5031C38.1875 18.3969 38.0875 18.2906 37.9844 18.1875L37.9813 18.1844L37.8312 18.0344L37.8219 18.025C37.775 17.9781 37.7281 17.9344 37.6812 17.8906C37.6656 17.875 37.65 17.8594 37.6313 17.8438C37.6 17.8125 37.5688 17.7844 37.5375 17.7562C37.5281 17.7469 37.5156 17.7375 37.5063 17.725C35.0125 15.4125 31.6719 14 28 14C24.3281 14 20.9875 15.4125 18.4906 17.725C18.4812 17.7344 18.4688 17.7437 18.4594 17.7562C18.4281 17.7844 18.3969 17.8156 18.3656 17.8469C18.35 17.8625 18.3344 17.8781 18.3156 17.8938C18.2688 17.9375 18.2219 17.9844 18.175 18.0281L18.1656 18.0375L18.0156 18.1875L18.0125 18.1906C17.9094 18.2938 17.8094 18.4 17.7094 18.5062L17.7063 18.5094C17.6563 18.5625 17.6094 18.6156 17.5625 18.6687L17.5594 18.6719C17.5156 18.7188 17.4719 18.7687 17.4313 18.8187C17.4188 18.8344 17.4063 18.8469 17.3938 18.8625C17.3594 18.9 17.3281 18.9406 17.2937 18.9781C17.2875 18.9875 17.2781 18.9938 17.2719 19.0031C15.2312 21.4344 14 24.5719 14 28C14 31.4281 15.2313 34.5656 17.275 37C17.2812 37.0094 17.2906 37.0188 17.2969 37.0281L17.3938 37.1437C17.4063 37.1594 17.4188 37.1719 17.4313 37.1875L17.5594 37.3344C17.5594 37.3375 17.5625 37.3375 17.5625 37.3406C17.6094 37.3938 17.6563 37.4469 17.7063 37.4969L17.7094 37.5C17.8094 37.6063 17.9094 37.7125 18.0094 37.8156L18.0125 37.8188C18.0625 37.8687 18.1094 37.9188 18.1594 37.9656L18.1687 37.975C18.2719 38.0781 18.3781 38.1781 18.4844 38.275C20.9875 40.5875 24.3281 42 28 42C31.6719 42 35.0125 40.5875 37.5094 38.275C37.6158 38.1774 37.72 38.0774 37.8219 37.975L37.8312 37.9656C37.8812 37.9156 37.9312 37.8687 37.9781 37.8188L37.9813 37.8156C38.0844 37.7125 38.1844 37.6063 38.2812 37.5L38.2844 37.4969C38.3312 37.4438 38.3813 37.3938 38.4281 37.3406C38.4281 37.3375 38.4312 37.3375 38.4312 37.3344C38.475 37.2875 38.5188 37.2375 38.5594 37.1875C38.5719 37.1719 38.5844 37.1594 38.5969 37.1437C38.6322 37.1061 38.6666 37.0675 38.7 37.0281ZM38.8281 32.5719C38.3969 33.5906 37.8281 34.5344 37.1344 35.3906C36.3531 34.7154 35.4988 34.1295 34.5875 33.6437C34.95 32.1781 35.175 30.5688 35.2344 28.875H39.7188C39.625 30.1531 39.325 31.3937 38.8281 32.5719ZM39.7188 27.125H35.2344C35.175 25.4312 34.95 23.8219 34.5875 22.3562C35.5031 21.8687 36.3562 21.2812 37.1344 20.6094C38.6424 22.4655 39.5445 24.7398 39.7188 27.125ZM32.5719 17.1719C33.8125 17.6969 34.9406 18.4219 35.9344 19.3344C35.3571 19.8259 34.7357 20.2632 34.0781 20.6406C33.5875 19.2344 32.9594 18.0125 32.2281 17.0344C32.3438 17.0781 32.4594 17.125 32.5719 17.1719ZM29.7406 39.0656C29.4531 39.2906 29.1656 39.4625 28.875 39.5781V33.7812C30.115 33.8678 31.3343 34.1439 32.4906 34.6C32.2313 35.3687 31.9312 36.0781 31.5844 36.7188C31.0406 37.7313 30.4031 38.5406 29.7406 39.0656ZM31.5844 19.2812C31.9281 19.925 32.2313 20.6344 32.4906 21.4C31.3343 21.8561 30.115 22.1322 28.875 22.2188V16.425C29.1625 16.5406 29.4531 16.7094 29.7406 16.9375C30.4031 17.4594 31.0406 18.2688 31.5844 19.2812ZM28.875 32.0281V28.875H33.4844C33.4344 30.2563 33.2625 31.5969 32.975 32.8687L32.9656 32.9062C31.6542 32.4089 30.275 32.1129 28.875 32.0281ZM28.875 27.125V23.9719C30.3062 23.8844 31.6813 23.5813 32.9656 23.0938L32.975 23.1313C33.2625 24.4031 33.4344 25.7406 33.4844 27.125H28.875ZM27.125 28.875V32.0281C25.6938 32.1156 24.3188 32.4188 23.0344 32.9062L23.025 32.8687C22.7375 31.5969 22.5656 30.2594 22.5156 28.875H27.125ZM22.5156 27.125C22.5656 25.7437 22.7375 24.4031 23.025 23.1313L23.0344 23.0938C24.3188 23.5813 25.6906 23.8844 27.125 23.9719V27.125H22.5156ZM27.125 33.7812V39.575C26.8375 39.4594 26.5469 39.2906 26.2594 39.0625C25.5969 38.5406 24.9563 37.7281 24.4125 36.7156C24.0688 36.0719 23.7656 35.3625 23.5063 34.5969C24.6688 34.1406 25.8781 33.8687 27.125 33.7812ZM27.125 22.2188C25.885 22.1322 24.6657 21.8561 23.5094 21.4C23.7687 20.6312 24.0687 19.9219 24.4156 19.2812C24.9594 18.2688 25.5969 17.4562 26.2625 16.9344C26.55 16.7094 26.8375 16.5375 27.1281 16.4219V22.2188H27.125ZM23.4281 17.1719C23.5438 17.125 23.6562 17.0781 23.7719 17.0344C23.0406 18.0125 22.4125 19.2344 21.9219 20.6406C21.2656 20.2656 20.6438 19.8281 20.0656 19.3344C21.0594 18.4219 22.1875 17.6969 23.4281 17.1719ZM17.1719 23.4281C17.6031 22.4094 18.1719 21.4656 18.8656 20.6094C19.6437 21.2812 20.4969 21.8687 21.4125 22.3562C21.05 23.8219 20.825 25.4312 20.7656 27.125H16.2812C16.375 25.8469 16.675 24.6063 17.1719 23.4281ZM16.2812 28.875H20.7656C20.825 30.5688 21.05 32.1781 21.4125 33.6437C20.5012 34.1295 19.6469 34.7154 18.8656 35.3906C17.3576 33.5345 16.4555 31.2602 16.2812 28.875ZM23.4281 38.8281C22.1875 38.3031 21.0594 37.5781 20.0656 36.6656C20.6438 36.1719 21.2656 35.7375 21.9219 35.3594C22.4125 36.7656 23.0406 37.9875 23.7719 38.9656C23.6562 38.9219 23.5406 38.875 23.4281 38.8281ZM32.5719 38.8281C32.4562 38.875 32.3438 38.9219 32.2281 38.9656C32.9594 37.9875 33.5875 36.7656 34.0781 35.3594C34.7344 35.7344 35.3563 36.1719 35.9344 36.6656C34.9461 37.5743 33.8086 38.3059 32.5719 38.8281Z" fill="white"/>
</g>
<defs>
<clipPath id="clip0_629_24290">
<rect width="28" height="28" fill="white" transform="translate(14 14)"/>
</clipPath>
</defs>
</svg>
