<svg width="70" height="70" viewBox="0 0 70 70" fill="none" xmlns="http://www.w3.org/2000/svg">
<rect width="70" height="70" rx="12" fill="url(#paint0_linear_617_6139)"/>
<g clip-path="url(#clip0_617_6139)">
<path d="M47.9992 26.5228L39.8331 18.3567C39.6054 18.129 39.2981 18 38.9755 18H22.8559C22.1842 18 21.6416 18.5426 21.6416 19.2143V50.7857C21.6416 51.4574 22.1842 52 22.8559 52H47.1416C47.8133 52 48.3559 51.4574 48.3559 50.7857V27.3842C48.3559 27.0616 48.2269 26.7504 47.9992 26.5228ZM45.5554 27.942H38.4139V20.8004L45.5554 27.942ZM45.6237 49.2679H24.3737V20.7321H35.8336V28.9286C35.8336 29.3513 36.0015 29.7566 36.3004 30.0555C36.5993 30.3544 37.0046 30.5223 37.4273 30.5223H45.6237V49.2679ZM34.6952 39.0223H27.713C27.5461 39.0223 27.4095 39.1589 27.4095 39.3259V41.1473C27.4095 41.3143 27.5461 41.4509 27.713 41.4509H34.6952C34.8621 41.4509 34.9987 41.3143 34.9987 41.1473V39.3259C34.9987 39.1589 34.8621 39.0223 34.6952 39.0223ZM27.4095 34.1652V35.9866C27.4095 36.1536 27.5461 36.2902 27.713 36.2902H42.2845C42.4514 36.2902 42.588 36.1536 42.588 35.9866V34.1652C42.588 33.9982 42.4514 33.8616 42.2845 33.8616H27.713C27.5461 33.8616 27.4095 33.9982 27.4095 34.1652Z" fill="white"/>
</g>
<defs>
<linearGradient id="paint0_linear_617_6139" x1="-7.29166" y1="-7.58789" x2="42.3162" y2="92.9918" gradientUnits="userSpaceOnUse">
<stop stop-color="#2874F4"/>
<stop offset="0.5" stop-color="#4364F7"/>
<stop offset="1" stop-color="#312FB1"/>
</linearGradient>
<clipPath id="clip0_617_6139">
<rect width="34" height="34" fill="white" transform="translate(18 18)"/>
</clipPath>
</defs>
</svg>
