<svg width="355" height="23" viewBox="0 0 355 23" fill="none" xmlns="http://www.w3.org/2000/svg">
<path d="M10.1432 22.36C7.16324 22.36 4.83324 21.53 3.15324 19.87C1.47324 18.21 0.633242 15.84 0.633242 12.76V0.999999H5.49324V12.58C5.49324 14.58 5.90324 16.02 6.72324 16.9C7.54324 17.78 8.69324 18.22 10.1732 18.22C11.6532 18.22 12.8032 17.78 13.6232 16.9C14.4432 16.02 14.8532 14.58 14.8532 12.58V0.999999H19.6532V12.76C19.6532 15.84 18.8132 18.21 17.1332 19.87C15.4532 21.53 13.1232 22.36 10.1432 22.36ZM33.7558 22.36C32.0758 22.36 30.4658 22.14 28.9258 21.7C27.3858 21.24 26.1458 20.65 25.2058 19.93L26.8558 16.27C27.7558 16.91 28.8158 17.44 30.0358 17.86C31.2758 18.26 32.5258 18.46 33.7858 18.46C34.7458 18.46 35.5158 18.37 36.0958 18.19C36.6958 17.99 37.1358 17.72 37.4158 17.38C37.6958 17.04 37.8358 16.65 37.8358 16.21C37.8358 15.65 37.6158 15.21 37.1758 14.89C36.7358 14.55 36.1558 14.28 35.4358 14.08C34.7158 13.86 33.9158 13.66 33.0358 13.48C32.1758 13.28 31.3058 13.04 30.4258 12.76C29.5658 12.48 28.7758 12.12 28.0558 11.68C27.3358 11.24 26.7458 10.66 26.2858 9.94C25.8458 9.22 25.6258 8.3 25.6258 7.18C25.6258 5.98 25.9458 4.89 26.5858 3.91C27.2458 2.91 28.2258 2.12 29.5258 1.54C30.8458 0.939999 32.4958 0.64 34.4758 0.64C35.7958 0.64 37.0958 0.799999 38.3758 1.12C39.6558 1.42 40.7858 1.88 41.7658 2.5L40.2658 6.19C39.2858 5.63 38.3058 5.22 37.3258 4.96C36.3458 4.68 35.3858 4.54 34.4458 4.54C33.5058 4.54 32.7358 4.65 32.1358 4.87C31.5358 5.09 31.1058 5.38 30.8458 5.74C30.5858 6.08 30.4558 6.48 30.4558 6.94C30.4558 7.48 30.6758 7.92 31.1158 8.26C31.5558 8.58 32.1358 8.84 32.8558 9.04C33.5758 9.24 34.3658 9.44 35.2258 9.64C36.1058 9.84 36.9758 10.07 37.8358 10.33C38.7158 10.59 39.5158 10.94 40.2358 11.38C40.9558 11.82 41.5358 12.4 41.9758 13.12C42.4358 13.84 42.6658 14.75 42.6658 15.85C42.6658 17.03 42.3358 18.11 41.6758 19.09C41.0158 20.07 40.0258 20.86 38.7058 21.46C37.4058 22.06 35.7558 22.36 33.7558 22.36ZM52.8567 9.46H62.9667V13.24H52.8567V9.46ZM53.2167 18.1H64.6467V22H48.3867V0.999999H64.2567V4.9H53.2167V18.1ZM70.9136 22V0.999999H80.0036C81.8836 0.999999 83.5036 1.31 84.8636 1.93C86.2236 2.53 87.2736 3.4 88.0136 4.54C88.7536 5.68 89.1236 7.04 89.1236 8.62C89.1236 10.18 88.7536 11.53 88.0136 12.67C87.2736 13.79 86.2236 14.65 84.8636 15.25C83.5036 15.85 81.8836 16.15 80.0036 16.15H73.6136L75.7736 14.02V22H70.9136ZM84.2636 22L79.0136 14.38H84.2036L89.5136 22H84.2636ZM75.7736 14.56L73.6136 12.28H79.7336C81.2336 12.28 82.3536 11.96 83.0936 11.32C83.8336 10.66 84.2036 9.76 84.2036 8.62C84.2036 7.46 83.8336 6.56 83.0936 5.92C82.3536 5.28 81.2336 4.96 79.7336 4.96H73.6136L75.7736 2.65V14.56ZM106.27 22V0.999999H111.13V22H106.27ZM118.514 22V0.999999H122.534L134.924 16.12H132.974V0.999999H137.774V22H133.784L121.364 6.88H123.314V22H118.514ZM149.643 10.45H159.723V14.35H149.643V10.45ZM150.003 22H145.143V0.999999H161.013V4.9H150.003V22ZM176.698 22.36C175.038 22.36 173.498 22.09 172.078 21.55C170.678 21.01 169.458 20.25 168.418 19.27C167.398 18.29 166.598 17.14 166.018 15.82C165.458 14.5 165.178 13.06 165.178 11.5C165.178 9.94 165.458 8.5 166.018 7.18C166.598 5.86 167.408 4.71 168.448 3.73C169.488 2.75 170.708 1.99 172.108 1.45C173.508 0.909999 175.028 0.64 176.668 0.64C178.328 0.64 179.848 0.909999 181.228 1.45C182.628 1.99 183.838 2.75 184.858 3.73C185.898 4.71 186.708 5.86 187.288 7.18C187.868 8.48 188.158 9.92 188.158 11.5C188.158 13.06 187.868 14.51 187.288 15.85C186.708 17.17 185.898 18.32 184.858 19.3C183.838 20.26 182.628 21.01 181.228 21.55C179.848 22.09 178.338 22.36 176.698 22.36ZM176.668 18.22C177.608 18.22 178.468 18.06 179.248 17.74C180.048 17.42 180.748 16.96 181.348 16.36C181.948 15.76 182.408 15.05 182.728 14.23C183.068 13.41 183.238 12.5 183.238 11.5C183.238 10.5 183.068 9.59 182.728 8.77C182.408 7.95 181.948 7.24 181.348 6.64C180.768 6.04 180.078 5.58 179.278 5.26C178.478 4.94 177.608 4.78 176.668 4.78C175.728 4.78 174.858 4.94 174.058 5.26C173.278 5.58 172.588 6.04 171.988 6.64C171.388 7.24 170.918 7.95 170.578 8.77C170.258 9.59 170.098 10.5 170.098 11.5C170.098 12.48 170.258 13.39 170.578 14.23C170.918 15.05 171.378 15.76 171.958 16.36C172.558 16.96 173.258 17.42 174.058 17.74C174.858 18.06 175.728 18.22 176.668 18.22ZM194.21 22V0.999999H203.3C205.18 0.999999 206.8 1.31 208.16 1.93C209.52 2.53 210.57 3.4 211.31 4.54C212.05 5.68 212.42 7.04 212.42 8.62C212.42 10.18 212.05 11.53 211.31 12.67C210.57 13.79 209.52 14.65 208.16 15.25C206.8 15.85 205.18 16.15 203.3 16.15H196.91L199.07 14.02V22H194.21ZM207.56 22L202.31 14.38H207.5L212.81 22H207.56ZM199.07 14.56L196.91 12.28H203.03C204.53 12.28 205.65 11.96 206.39 11.32C207.13 10.66 207.5 9.76 207.5 8.62C207.5 7.46 207.13 6.56 206.39 5.92C205.65 5.28 204.53 4.96 203.03 4.96H196.91L199.07 2.65V14.56ZM218.671 22V0.999999H222.691L231.631 15.82H229.501L238.291 0.999999H242.281L242.341 22H237.781L237.751 7.99H238.591L231.571 19.78H229.381L222.211 7.99H223.231V22H218.671ZM246.963 22L256.323 0.999999H261.123L270.513 22H265.413L257.733 3.46H259.653L251.943 22H246.963ZM251.643 17.5L252.933 13.81H263.733L265.053 17.5H251.643ZM278.387 22V4.96H271.667V0.999999H289.967V4.96H283.247V22H278.387ZM294.982 22V0.999999H299.842V22H294.982ZM317.426 22.36C315.766 22.36 314.226 22.09 312.806 21.55C311.406 21.01 310.186 20.25 309.146 19.27C308.126 18.29 307.326 17.14 306.746 15.82C306.186 14.5 305.906 13.06 305.906 11.5C305.906 9.94 306.186 8.5 306.746 7.18C307.326 5.86 308.136 4.71 309.176 3.73C310.216 2.75 311.436 1.99 312.836 1.45C314.236 0.909999 315.756 0.64 317.396 0.64C319.056 0.64 320.576 0.909999 321.956 1.45C323.356 1.99 324.566 2.75 325.586 3.73C326.626 4.71 327.436 5.86 328.016 7.18C328.596 8.48 328.886 9.92 328.886 11.5C328.886 13.06 328.596 14.51 328.016 15.85C327.436 17.17 326.626 18.32 325.586 19.3C324.566 20.26 323.356 21.01 321.956 21.55C320.576 22.09 319.066 22.36 317.426 22.36ZM317.396 18.22C318.336 18.22 319.196 18.06 319.976 17.74C320.776 17.42 321.476 16.96 322.076 16.36C322.676 15.76 323.136 15.05 323.456 14.23C323.796 13.41 323.966 12.5 323.966 11.5C323.966 10.5 323.796 9.59 323.456 8.77C323.136 7.95 322.676 7.24 322.076 6.64C321.496 6.04 320.806 5.58 320.006 5.26C319.206 4.94 318.336 4.78 317.396 4.78C316.456 4.78 315.586 4.94 314.786 5.26C314.006 5.58 313.316 6.04 312.716 6.64C312.116 7.24 311.646 7.95 311.306 8.77C310.986 9.59 310.826 10.5 310.826 11.5C310.826 12.48 310.986 13.39 311.306 14.23C311.646 15.05 312.106 15.76 312.686 16.36C313.286 16.96 313.986 17.42 314.786 17.74C315.586 18.06 316.456 18.22 317.396 18.22ZM334.938 22V0.999999H338.958L351.348 16.12H349.398V0.999999H354.198V22H350.208L337.788 6.88H339.738V22H334.938Z" fill="black" fill-opacity="0.85"/>
</svg>
