<svg width="65" height="65" viewBox="0 0 65 65" fill="none" xmlns="http://www.w3.org/2000/svg">
<rect width="65" height="65" fill="#0052D4"/>
<path d="M26.5 33.5C24.3 33.5 22.5 35.3 22.5 37.5C22.5 39.7 24.3 41.5 26.5 41.5C28.7 41.5 30.5 39.7 30.5 37.5C30.5 35.3 28.7 33.5 26.5 33.5ZM32.5 23.5C30.3 23.5 28.5 25.3 28.5 27.5C28.5 29.7 30.3 31.5 32.5 31.5C34.7 31.5 36.5 29.7 36.5 27.5C36.5 25.3 34.7 23.5 32.5 23.5ZM38.5 33.5C36.3 33.5 34.5 35.3 34.5 37.5C34.5 39.7 36.3 41.5 38.5 41.5C40.7 41.5 42.5 39.7 42.5 37.5C42.5 35.3 40.7 33.5 38.5 33.5Z" fill="white"/>
</svg>
