<svg width="56" height="56" viewBox="0 0 56 56" fill="none" xmlns="http://www.w3.org/2000/svg">
<rect width="56" height="56" fill="#0052D4"/>
<path d="M39.75 33.248H38.0625V28.873H29.0625V25.998H36.5C36.775 25.998 37 25.773 37 25.498V17.248C37 16.973 36.775 16.748 36.5 16.748H19.5C19.225 16.748 19 16.973 19 17.248V25.498C19 25.773 19.225 25.998 19.5 25.998H26.9375V28.873H17.9375V33.248H16.25C16.1125 33.248 16 33.3605 16 33.498V38.998C16 39.1355 16.1125 39.248 16.25 39.248H21.75C21.8875 39.248 22 39.1355 22 38.998V33.498C22 33.3605 21.8875 33.248 21.75 33.248H20.0625V30.998H26.9375V33.248H25.25C25.1125 33.248 25 33.3605 25 33.498V38.998C25 39.1355 25.1125 39.248 25.25 39.248H30.75C30.8875 39.248 31 39.1355 31 38.998V33.498C31 33.3605 30.8875 33.248 30.75 33.248H29.0625V30.998H35.9375V33.248H34.25C34.1125 33.248 34 33.3605 34 33.498V38.998C34 39.1355 34.1125 39.248 34.25 39.248H39.75C39.8875 39.248 40 39.1355 40 38.998V33.498C40 33.3605 39.8875 33.248 39.75 33.248ZM20 37.1637C20 37.2105 19.9625 37.248 19.9156 37.248H18.0813C18.0344 37.248 17.9969 37.2105 17.9969 37.1637V35.3293C17.9969 35.2824 18.0344 35.2449 18.0813 35.2449H19.9156C19.9625 35.2449 20 35.2824 20 35.3293V37.1637ZM29 37.1637C29 37.2105 28.9625 37.248 28.9156 37.248H27.0813C27.0344 37.248 26.9969 37.2105 26.9969 37.1637V35.3293C26.9969 35.2824 27.0344 35.2449 27.0813 35.2449H28.9156C28.9625 35.2449 29 35.2824 29 35.3293V37.1637ZM21 23.998V18.748H35V23.998H21ZM38 37.1637C38 37.2105 37.9625 37.248 37.9156 37.248H36.0813C36.0344 37.248 35.9969 37.2105 35.9969 37.1637V35.3293C35.9969 35.2824 36.0344 35.2449 36.0813 35.2449H37.9156C37.9625 35.2449 38 35.2824 38 35.3293V37.1637ZM23.25 21.373C23.25 21.7046 23.3817 22.0225 23.6161 22.2569C23.8505 22.4914 24.1685 22.623 24.5 22.623C24.8315 22.623 25.1495 22.4914 25.3839 22.2569C25.6183 22.0225 25.75 21.7046 25.75 21.373C25.75 21.0415 25.6183 20.7236 25.3839 20.4892C25.1495 20.2547 24.8315 20.123 24.5 20.123C24.1685 20.123 23.8505 20.2547 23.6161 20.4892C23.3817 20.7236 23.25 21.0415 23.25 21.373Z" fill="white"/>
</svg>
