<svg width="41" height="41" viewBox="0 0 41 41" fill="none" xmlns="http://www.w3.org/2000/svg">
<rect x="0.5" y="0.384766" width="40.4615" height="40.4615" rx="2.92308" fill="#1890FF" fill-opacity="0.08"/>
<path d="M18.651 22.0896C20.492 22.0896 21.9844 20.5972 21.9844 18.7563C21.9844 16.9153 20.492 15.4229 18.651 15.4229C16.8101 15.4229 15.3177 16.9153 15.3177 18.7563C15.3177 20.5972 16.8101 22.0896 18.651 22.0896Z" fill="#0052D4"/>
<path d="M23.976 24.2229C22.576 23.5063 20.7594 22.9229 18.651 22.9229C16.5427 22.9229 14.726 23.5063 13.326 24.2229C12.4927 24.6479 11.9844 25.5063 11.9844 26.4396V27.0896C11.9844 28.0063 12.7344 28.7563 13.651 28.7563H23.651C24.5677 28.7563 25.3177 28.0063 25.3177 27.0896V26.4396C25.3177 25.5063 24.8094 24.6479 23.976 24.2229Z" fill="#0052D4"/>
<path d="M27.9094 12.7979C27.601 12.3979 27.0094 12.3646 26.6594 12.7229C26.3677 13.0146 26.3344 13.4813 26.5844 13.8063C27.5594 15.0563 28.7844 18.1646 26.5844 20.9813C26.3344 21.3063 26.3677 21.7729 26.6594 22.0646C27.0177 22.4229 27.601 22.3813 27.9094 21.9896C29.1594 20.3813 30.701 16.3896 27.9094 12.7979Z" fill="#0052D4"/>
<path d="M25.576 15.2896C25.301 14.8146 24.651 14.7313 24.2594 15.1146C23.9844 15.3896 23.9594 15.8146 24.151 16.1563C24.3594 16.5229 24.7677 17.5646 24.1427 18.6479C23.951 18.9813 23.9844 19.3979 24.2594 19.6646C24.651 20.0563 25.301 19.9563 25.576 19.4813C26.5427 17.8229 26.0594 16.1313 25.576 15.2896Z" fill="#0052D4"/>
</svg>
