<svg width="56" height="56" viewBox="0 0 56 56" fill="none" xmlns="http://www.w3.org/2000/svg">
<rect width="56" height="56" fill="#0052D4"/>
<path d="M40.25 35.9944H15.75C15.6125 35.9944 15.5 36.1069 15.5 36.2444V38.7444C15.5 38.8819 15.6125 38.9944 15.75 38.9944H40.25C40.3875 38.9944 40.5 38.8819 40.5 38.7444V36.2444C40.5 36.1069 40.3875 35.9944 40.25 35.9944ZM39.4594 16.9944H16.5406C15.9656 16.9944 15.5 17.4413 15.5 17.9944V32.4944C15.5 33.0475 15.9656 33.4944 16.5406 33.4944H39.4563C40.0313 33.4944 40.4969 33.0475 40.4969 32.4944V17.9944C40.5 17.4413 40.0344 16.9944 39.4594 16.9944ZM23.25 31.2444H17.75V26.2444H23.25V31.2444ZM23.25 24.2444H17.75V19.2444H23.25V24.2444ZM30.75 31.2444H25.25V26.2444H30.75V31.2444ZM30.75 24.2444H25.25V19.2444H30.75V24.2444ZM38.25 31.2444H32.75V26.2444H38.25V31.2444ZM38.25 24.2444H32.75V19.2444H38.25V24.2444Z" fill="white"/>
</svg>
