<svg width="41" height="41" viewBox="0 0 41 41" fill="none" xmlns="http://www.w3.org/2000/svg">
<rect x="0.5" y="0.460938" width="40.4615" height="40.4615" rx="2.92308" fill="#1890FF" fill-opacity="0.08"/>
<path d="M26.7482 23.4154L24.6315 23.1737C24.1232 23.1154 23.6232 23.2904 23.2648 23.6487L21.7315 25.182C19.3732 23.982 17.4398 22.057 16.2398 19.6904L17.7815 18.1487C18.1398 17.7904 18.3148 17.2904 18.2565 16.782L18.0148 14.682C17.9148 13.8404 17.2065 13.207 16.3565 13.207H14.9148C13.9732 13.207 13.1898 13.9904 13.2482 14.932C13.6898 22.0487 19.3815 27.732 26.4898 28.1737C27.4315 28.232 28.2148 27.4487 28.2148 26.507V25.0654C28.2232 24.2237 27.5898 23.5154 26.7482 23.4154Z" fill="#0052D4"/>
</svg>
