<svg width="2136" height="2070" viewBox="0 0 2136 2070" fill="none" xmlns="http://www.w3.org/2000/svg">
<path d="M1067.73 2069.98C1657.43 2069.98 2135.47 1793.99 2135.47 1453.52C2135.47 1113.06 1657.43 837.066 1067.73 837.066C478.04 837.066 0 1113.06 0 1453.52C0 1793.99 478.04 2069.98 1067.73 2069.98Z" fill="#F0F0F0"/>
<path d="M1731.46 1722.8C1831.47 1722.8 1912.55 1676 1912.55 1618.26C1912.55 1560.51 1831.47 1513.71 1731.46 1513.71C1631.44 1513.71 1550.37 1560.51 1550.37 1618.26C1550.37 1676 1631.44 1722.8 1731.46 1722.8Z" fill="#E0E0E0"/>
<path d="M480.822 1755.02L111.437 1541.76C99.8805 1535.1 99.8805 1524.31 111.437 1517.65L715.795 1168.7C722.261 1165.42 729.411 1163.71 736.664 1163.71C743.916 1163.71 751.066 1165.42 757.533 1168.7L1126.92 1381.97C1138.47 1388.63 1138.47 1399.42 1126.92 1406.08L522.56 1755.02C516.093 1758.31 508.943 1760.02 501.691 1760.02C494.438 1760.02 487.288 1758.31 480.822 1755.02Z" fill="#E0E0E0"/>
<path d="M468.224 1481.4C468.224 1481.4 465.595 1393.53 427.891 1322.33C390.186 1251.14 334.264 1204.05 279.112 1195.03C223.961 1186.01 174.881 1233.37 231.347 1273.39C287.813 1313.4 390.368 1358 427.981 1493.22L468.224 1481.4Z" fill="url(#paint0_linear_1206_9469)"/>
<g opacity="0.15">
<path d="M468.224 1481.4C468.224 1481.4 465.595 1393.53 427.891 1322.33C390.186 1251.14 334.264 1204.05 279.112 1195.03C223.961 1186.01 174.881 1233.37 231.347 1273.39C287.813 1313.4 390.368 1358 427.981 1493.22L468.224 1481.4Z" fill="black"/>
</g>
<path d="M453.813 1457.42C454.007 1457.47 454.209 1457.47 454.402 1457.42C455.158 1457.19 455.792 1456.67 456.166 1455.98C456.539 1455.28 456.622 1454.46 456.396 1453.71C409.855 1304.43 303.313 1234.87 253.508 1218.96C253.139 1218.84 252.75 1218.79 252.364 1218.83C251.977 1218.86 251.6 1218.96 251.255 1219.14C250.91 1219.32 250.603 1219.56 250.352 1219.86C250.101 1220.15 249.911 1220.49 249.792 1220.86C249.549 1221.62 249.612 1222.43 249.969 1223.14C250.325 1223.84 250.946 1224.38 251.696 1224.63C300.503 1240.21 404.87 1308.55 450.641 1455.2C450.828 1455.88 451.248 1456.48 451.827 1456.88C452.406 1457.29 453.109 1457.48 453.813 1457.42Z" fill="white"/>
<path d="M181.906 1407.71C185.622 1418.81 196.77 1425.47 207.193 1430.87C217.617 1436.26 228.946 1442.06 233.886 1452.71C243.765 1474.19 221.695 1501.06 232.481 1522.14C235.074 1526.39 238.504 1530.07 242.563 1532.95C246.622 1535.83 251.225 1537.86 256.091 1538.91C264.106 1540.83 272.214 1542.34 280.382 1543.44C284.285 1543.76 288.206 1543.84 292.119 1543.66C303.494 1543.07 315.775 1543.66 325.518 1550.42C340.881 1561.07 343.917 1582.14 352.301 1598.68C357.496 1608.58 364.784 1617.23 373.659 1624.03C382.533 1630.83 392.781 1635.62 403.692 1638.06C421.819 1642.23 449.78 1640.69 455.309 1633.03C459.478 1627.18 450.46 1607.52 450.777 1600.36C451.918 1581.93 451.311 1563.43 448.964 1545.11C447.553 1536.82 447.158 1528.39 447.786 1520.01C448.722 1510.64 449.614 1501.25 450.46 1491.82C451.321 1481.67 454.447 1473.69 451.774 1463.32C448.664 1453.3 444.082 1443.8 438.178 1435.13C432.786 1426.38 427.347 1417.73 421.819 1409.07C415.693 1398.62 408.295 1388.97 399.794 1380.34C392.111 1373.24 383.062 1367.77 373.198 1364.28C363.334 1360.79 352.862 1359.35 342.422 1360.04C325.065 1361.26 307.436 1369.33 289.898 1366.83C272.36 1364.34 256.499 1358.27 238.871 1357.77C220.472 1357.32 201.076 1363.34 189.021 1378.07C185.492 1382.05 182.996 1386.83 181.755 1392C180.514 1397.17 180.566 1402.57 181.906 1407.71Z" fill="url(#paint1_linear_1206_9469)"/>
<path d="M444.478 1585.99C444.82 1585.94 445.147 1585.81 445.44 1585.63C445.733 1585.45 445.987 1585.21 446.186 1584.92C446.384 1584.64 446.524 1584.32 446.597 1583.98C446.669 1583.64 446.673 1583.29 446.608 1582.95C419.055 1419.18 252.92 1380.29 213.267 1379.43C212.565 1379.42 211.887 1379.68 211.378 1380.17C210.87 1380.65 210.571 1381.31 210.547 1382.02C210.535 1382.36 210.593 1382.71 210.717 1383.03C210.842 1383.36 211.03 1383.65 211.271 1383.9C211.512 1384.15 211.801 1384.35 212.121 1384.48C212.44 1384.62 212.784 1384.69 213.131 1384.69C251.923 1385.55 414.432 1423.62 441.396 1583.82C441.529 1584.51 441.924 1585.12 442.499 1585.52C443.073 1585.93 443.783 1586.1 444.478 1585.99Z" fill="white"/>
<path d="M265.064 1487.42C265.598 1487.38 266.105 1487.18 266.515 1486.83C266.968 1486.47 313.872 1448.18 384.114 1465.35C384.764 1465.43 385.418 1465.26 385.953 1464.88C386.488 1464.51 386.866 1463.95 387.017 1463.31C387.168 1462.68 387.08 1462.01 386.771 1461.43C386.461 1460.86 385.951 1460.41 385.338 1460.19C364.534 1454.71 342.776 1453.9 321.622 1457.82C300.469 1461.74 280.444 1470.28 262.98 1482.85C262.59 1483.22 262.322 1483.7 262.214 1484.22C262.106 1484.75 262.162 1485.3 262.374 1485.79C262.586 1486.29 262.945 1486.7 263.402 1486.99C263.859 1487.27 264.392 1487.41 264.928 1487.38L265.064 1487.42Z" fill="white"/>
<path d="M1091.39 43.0534L514.086 376.321C508.001 380.306 502.934 385.661 499.29 391.957C495.647 398.252 493.528 405.313 493.104 412.575V1714.56C493.104 1727.92 502.53 1733.41 514.086 1726.66L1091.34 1393.43C1097.43 1389.45 1102.5 1384.09 1106.14 1377.8C1109.78 1371.5 1111.9 1364.44 1112.33 1357.18V55.1533C1112.28 41.7845 1102.95 36.3464 1091.39 43.0534ZM1082.33 1237.09C1082.33 1248.55 1074.3 1255.85 1064.2 1261.56L539.282 1564.6C529.358 1570.31 521.155 1565.69 521.155 1554.18V534.525C521.519 528.264 523.348 522.176 526.497 516.753C529.646 511.329 534.025 506.721 539.282 503.301L1064.15 200.216C1074.12 194.415 1082.28 199.083 1082.28 210.548L1082.33 1237.09Z" fill="#37474F"/>
<path d="M511.503 1728.02C505.234 1730.66 498.467 1731.91 491.668 1731.68C484.869 1731.45 478.2 1729.75 472.121 1726.7L448.103 1712.83C441.986 1708.87 436.89 1703.53 433.229 1697.23C429.567 1690.93 427.443 1683.85 427.03 1676.58V374.644C427.154 369.219 428.404 363.88 430.701 358.964C431.422 357.235 432.255 355.555 433.193 353.934L499.222 392.091C497.816 394.568 496.589 397.143 495.551 399.795C493.963 403.953 493.105 408.352 493.013 412.801V1714.6C493.149 1727.11 501.17 1732.5 511.503 1728.02Z" fill="#263238"/>
<path d="M807.745 1445.64C825.873 1435.08 840.873 1443.64 840.873 1464.76C840.259 1476.27 836.939 1487.46 831.182 1497.44C825.426 1507.41 817.396 1515.89 807.745 1522.18C789.618 1532.74 774.618 1524.17 774.618 1503.06C775.239 1491.56 778.562 1480.36 784.318 1470.39C790.074 1460.41 798.1 1451.93 807.745 1445.64Z" fill="url(#paint2_linear_1206_9469)"/>
<path d="M802.76 237.784C810.509 233.252 816.808 236.923 816.808 245.896C816.545 250.777 815.136 255.528 812.696 259.764C810.255 264 806.851 267.601 802.76 270.277C794.965 274.808 788.666 271.138 788.666 262.119C788.93 257.239 790.345 252.491 792.794 248.261C795.244 244.032 798.658 240.442 802.76 237.784Z" fill="black"/>
<path d="M748.424 323.39L857.187 260.624C863.667 256.908 868.924 259.537 868.924 266.561C868.64 270.504 867.429 274.324 865.389 277.71C863.349 281.096 860.539 283.953 857.187 286.048L748.424 348.813C741.943 352.529 736.687 349.901 736.687 342.876C736.971 338.933 738.182 335.114 740.222 331.727C742.261 328.341 745.071 325.484 748.424 323.39Z" fill="black"/>
<path d="M1082.14 1237.09C1082.14 1248.55 1074.12 1255.85 1064.02 1261.56L539.282 1564.6C529.358 1570.31 521.155 1565.69 521.155 1554.18V534.525C521.519 528.264 523.348 522.176 526.497 516.753C529.646 511.329 534.025 506.721 539.282 503.301L1064.15 200.216C1074.12 194.415 1082.28 199.083 1082.28 210.548L1082.14 1237.09Z" fill="url(#paint3_linear_1206_9469)"/>
<path d="M1112.28 51.8448C1110.79 40.9232 1102.04 36.9805 1091.57 43.0531L514.086 376.32C507.896 380.205 502.796 385.601 499.267 392L433.239 353.979C436.787 347.602 441.903 342.236 448.103 338.389L1025.32 5.03145C1031.82 1.72393 1039.02 0 1046.32 0C1053.62 0 1060.82 1.72393 1067.33 5.03145L1091.44 18.6268C1097.1 22.3358 1101.89 27.2241 1105.49 32.9573C1109.09 38.6905 1111.4 45.1333 1112.28 51.8448Z" fill="#455A64"/>
<path d="M1155.24 244.129C1153.2 243.179 1150.94 242.796 1148.7 243.019C1146.46 243.242 1144.32 244.064 1142.51 245.398L617.637 548.348C612.38 551.768 608 556.375 604.851 561.799C601.703 567.223 599.873 573.311 599.51 579.572V1599.22C599.314 1601.37 599.655 1603.54 600.501 1605.52C601.348 1607.51 602.673 1609.25 604.358 1610.6C607.667 1612.77 620.99 1620.02 624.072 1621.97C626.127 1623.02 628.432 1623.47 630.729 1623.27C633.026 1623.08 635.225 1622.26 637.078 1620.88L1162.13 1318.03C1172.1 1312.32 1180.26 1305.02 1180.26 1293.55V267.015C1180.49 264.789 1180.12 262.542 1179.2 260.504C1178.27 258.465 1176.82 256.709 1175 255.413L1155.24 244.129Z" fill="#E0E0E0"/>
<path d="M1180.26 1293.55C1180.26 1305.02 1172.19 1312.32 1162.13 1318.03L637.168 1621.07C627.244 1626.82 619.041 1622.15 619.041 1610.69V591.037C619.393 584.78 621.219 578.694 624.369 573.276C627.519 567.858 631.905 563.261 637.168 559.858L1162.13 256.682C1172.1 250.881 1180.26 255.595 1180.26 267.015V1293.55Z" fill="#FAFAFA"/>
<path d="M1170.11 258.812C1175 258.812 1175.54 264.613 1175.54 267.105V1293.55C1175.54 1301.53 1170.69 1307.87 1159.77 1314.13L634.902 1617.17C633.166 1618.25 631.187 1618.87 629.147 1618.98C624.253 1618.98 623.709 1613.18 623.709 1610.69V591.037C624.077 585.604 625.686 580.328 628.412 575.615C631.138 570.901 634.909 566.875 639.434 563.846L1164.35 260.579C1166.08 259.472 1168.06 258.831 1170.11 258.721M1170.11 254.189C1167.25 254.306 1164.47 255.165 1162.04 256.682L637.168 559.677C631.905 563.079 627.519 567.676 624.369 573.094C621.219 578.513 619.393 584.598 619.041 590.856V1610.51C619.041 1618.66 623.12 1623.33 629.011 1623.33C631.854 1623.24 634.622 1622.39 637.032 1620.88L1162.13 1318.03C1172.1 1312.32 1180.26 1305.02 1180.26 1293.55V267.014C1180.26 258.902 1176.22 254.189 1170.29 254.189H1170.11Z" fill="#E0E0E0"/>
<path d="M912.882 580.206C988.608 536.519 1049.97 571.912 1049.97 659.33C1049.97 746.749 988.563 853.019 912.882 896.705C837.201 940.392 775.841 904.998 775.841 817.58C775.841 730.162 837.156 623.892 912.882 580.206Z" fill="url(#paint4_linear_1206_9469)"/>
<path d="M924.167 636.808L943.517 677.866L986.751 661.28C992.733 659.014 995.089 667.398 990.784 675.464L959.515 734.378L966.901 787.535C967.898 794.831 961.69 804.484 956.342 803.804L917.686 799.273L878.985 848.714C873.683 855.512 867.429 853.246 868.471 844.59L875.858 782.868L844.543 760.209C840.238 757.082 842.595 745.934 848.577 741.356L891.81 708.002L911.16 644.558C913.834 635.585 921.538 631.144 924.167 636.808Z" fill="#FAFAFA"/>
<path d="M724.904 1129.55C724.904 1148.31 738.953 1155.38 756.219 1145.41L1049.92 975.831C1067.19 965.861 1081.19 942.613 1081.19 923.851C1081.19 905.09 1067.19 898.065 1049.92 908.035L756.219 1077.57C738.953 1087.58 724.904 1110.79 724.904 1129.55Z" fill="url(#paint5_linear_1206_9469)"/>
<path opacity="0.6" d="M724.904 1129.55C724.904 1148.31 738.953 1155.38 756.219 1145.41L1049.92 975.831C1067.19 965.861 1081.19 942.613 1081.19 923.851C1081.19 905.09 1067.19 898.065 1049.92 908.035L756.219 1077.57C738.953 1087.58 724.904 1110.79 724.904 1129.55Z" fill="white"/>
<path d="M754.95 1100.95L1051.19 929.879C1056.95 926.571 1061.62 928.927 1061.62 935.181C1061.36 938.682 1060.28 942.073 1058.47 945.08C1056.66 948.087 1054.17 950.626 1051.19 952.493L754.95 1123.57C749.194 1126.88 744.481 1124.52 744.481 1118.27C744.734 1114.76 745.815 1111.36 747.635 1108.35C749.454 1105.34 751.961 1102.81 754.95 1100.95Z" fill="#455A64"/>
<path d="M724.904 1242.57C724.904 1261.33 738.953 1268.4 756.219 1258.43L1049.92 1088.85C1067.19 1078.88 1081.19 1055.64 1081.19 1036.87C1081.19 1018.11 1067.19 1011.09 1049.92 1021.06L756.219 1190.59C738.953 1200.61 724.904 1224.08 724.904 1242.57Z" fill="url(#paint6_linear_1206_9469)"/>
<path opacity="0.6" d="M724.904 1242.57C724.904 1261.33 738.953 1268.4 756.219 1258.43L1049.92 1088.85C1067.19 1078.88 1081.19 1055.64 1081.19 1036.87C1081.19 1018.11 1067.19 1011.09 1049.92 1021.06L756.219 1190.59C738.953 1200.61 724.904 1224.08 724.904 1242.57Z" fill="white"/>
<path d="M773.847 1203.05C779.285 1199.93 783.636 1202.47 783.636 1208.67C783.46 1212.08 782.481 1215.39 780.78 1218.35C779.079 1221.3 776.703 1223.81 773.847 1225.67C768.454 1228.75 764.059 1226.26 764.059 1220C764.245 1216.61 765.229 1213.31 766.93 1210.36C768.63 1207.42 771 1204.91 773.847 1203.05Z" fill="#455A64"/>
<path d="M811.673 1200.53C815.489 1193.92 815.489 1186.78 811.674 1184.58C807.859 1182.37 801.673 1185.95 797.857 1192.56C794.041 1199.17 794.041 1206.32 797.856 1208.52C801.672 1210.72 807.858 1207.14 811.673 1200.53Z" fill="#455A64"/>
<path d="M835.842 1167.39C841.281 1164.26 845.631 1166.8 845.631 1173.01C845.455 1176.41 844.476 1179.73 842.775 1182.68C841.074 1185.63 838.698 1188.14 835.842 1190C830.45 1193.08 826.054 1190.59 826.054 1184.34C826.241 1180.94 827.224 1177.64 828.925 1174.69C830.625 1171.75 832.995 1169.25 835.842 1167.39Z" fill="#455A64"/>
<path d="M866.522 1149.53C871.915 1146.41 876.311 1148.94 876.311 1155.2C876.124 1158.59 875.14 1161.9 873.44 1164.84C871.739 1167.79 869.369 1170.29 866.522 1172.15C861.129 1175.27 856.733 1172.74 856.733 1166.48C856.924 1163.09 857.909 1159.79 859.609 1156.84C861.309 1153.9 863.677 1151.4 866.522 1149.53Z" fill="#455A64"/>
<path d="M897.429 1131.72C902.822 1128.6 907.173 1131.14 907.173 1137.34C906.994 1140.74 906.019 1144.05 904.327 1147C902.634 1149.95 900.272 1152.47 897.429 1154.34C891.991 1157.47 887.641 1154.93 887.641 1148.67C887.817 1145.28 888.796 1141.97 890.497 1139.02C892.199 1136.08 894.574 1133.58 897.429 1131.72Z" fill="#455A64"/>
<path d="M935.224 1129.21C939.04 1122.6 939.04 1115.45 935.225 1113.25C931.41 1111.05 925.224 1114.63 921.408 1121.24C917.592 1127.85 917.592 1134.99 921.407 1137.2C925.222 1139.4 931.408 1135.82 935.224 1129.21Z" fill="#455A64"/>
<path d="M959.197 1096.06C964.59 1092.93 968.986 1095.47 968.986 1101.68C968.799 1105.08 967.815 1108.39 966.115 1111.34C964.415 1114.29 962.045 1116.8 959.197 1118.67C953.759 1121.8 949.408 1119.26 949.408 1113.01C949.584 1109.61 950.563 1106.3 952.265 1103.36C953.966 1100.41 956.342 1097.91 959.197 1096.06Z" fill="#455A64"/>
<path d="M996.977 1093.55C1000.79 1086.94 1000.79 1079.79 996.978 1077.59C993.163 1075.39 986.977 1078.97 983.161 1085.58C979.345 1092.19 979.345 1099.33 983.16 1101.54C986.975 1103.74 993.161 1100.16 996.977 1093.55Z" fill="#455A64"/>
<path d="M1020.97 1060.39C1026.36 1057.27 1030.75 1059.8 1030.75 1066.06C1030.56 1069.45 1029.58 1072.75 1027.88 1075.7C1026.18 1078.64 1023.81 1081.15 1020.97 1083.01C1015.53 1086.13 1011.18 1083.6 1011.18 1077.34C1011.35 1073.94 1012.33 1070.64 1014.03 1067.69C1015.73 1064.74 1018.11 1062.24 1020.97 1060.39Z" fill="#455A64"/>
<path d="M1051.83 1042.54C1057.22 1039.41 1061.62 1041.95 1061.62 1048.2C1061.43 1051.6 1060.45 1054.9 1058.74 1057.85C1057.04 1060.79 1054.67 1063.29 1051.83 1065.15C1046.43 1068.28 1042.04 1065.74 1042.04 1059.49C1042.23 1056.09 1043.21 1052.79 1044.91 1049.85C1046.61 1046.9 1048.98 1044.4 1051.83 1042.54Z" fill="#455A64"/>
<path d="M855.419 1280.28L989.923 1202.65C1001.43 1195.98 1010.77 1201.38 1010.77 1214.7V1234.32C1010.39 1241.58 1008.31 1248.65 1004.69 1254.95C1001.06 1261.25 996.005 1266.6 989.923 1270.58L855.465 1348.21C843.909 1354.87 834.573 1349.48 834.573 1336.15V1316.53C834.943 1309.27 837.025 1302.2 840.648 1295.9C844.27 1289.6 849.332 1284.25 855.419 1280.28Z" fill="url(#paint7_linear_1206_9469)"/>
<path d="M853.969 1314.31V1315.58C853.969 1322.24 858.501 1324.96 864.437 1321.6L980.859 1254.58C983.898 1252.59 986.426 1249.91 988.237 1246.76C990.048 1243.61 991.091 1240.08 991.282 1236.45V1235.14C991.282 1228.48 986.75 1225.76 980.859 1229.11L864.709 1296.18C861.603 1298.13 859.007 1300.79 857.138 1303.94C855.27 1307.09 854.183 1310.65 853.969 1314.31Z" fill="#FAFAFA"/>
<path opacity="0.7" d="M825.509 872.369L1372.36 556.685C1378.11 553.377 1382.78 556.051 1382.78 562.712V997.763C1382.6 1001.39 1381.55 1004.93 1379.74 1008.08C1377.93 1011.23 1375.4 1013.9 1372.36 1015.89L825.509 1331.48C819.754 1334.84 815.086 1332.12 815.086 1325.46V890.406C815.287 886.792 816.335 883.277 818.145 880.144C819.956 877.01 822.479 874.347 825.509 872.369Z" fill="#37474F"/>
<path opacity="0.7" d="M818.122 880.164L791.521 864.756C789.63 867.865 788.569 871.407 788.439 875.043V1310.09C788.323 1311.37 788.537 1312.66 789.06 1313.84C789.584 1315.01 790.4 1316.03 791.43 1316.8C793.379 1317.93 816.128 1330.94 817.941 1332.12C816.942 1331.34 816.157 1330.32 815.658 1329.15C815.159 1327.99 814.962 1326.72 815.086 1325.46V890.406C815.221 886.791 816.266 883.268 818.122 880.164Z" fill="#263238"/>
<path opacity="0.5" d="M1379.34 555.734C1375.62 553.468 1354.91 541.595 1353.23 540.598C1352.05 540.021 1350.72 539.776 1349.41 539.888C1348.09 539.999 1346.83 540.464 1345.76 541.232L798.907 857.007C795.825 858.938 793.283 861.62 791.521 864.802L818.122 880.21C819.885 877.028 822.426 874.346 825.509 872.415L1372.4 556.686C1373.4 555.988 1374.55 555.537 1375.76 555.372C1376.96 555.206 1378.19 555.33 1379.34 555.734Z" fill="#455A64"/>
<path d="M899.287 876.63C899.404 876.542 899.547 876.494 899.694 876.494C899.841 876.494 899.985 876.542 900.102 876.63C900.231 876.779 900.33 876.951 900.392 877.138C900.454 877.324 900.479 877.522 900.465 877.718V884.787C900.452 885.306 900.329 885.816 900.102 886.283C899.93 886.686 899.647 887.031 899.287 887.28L891.673 891.812V926.072C891.661 926.591 891.537 927.101 891.311 927.567C891.139 927.97 890.856 928.316 890.495 928.564L884.785 931.827C884.671 931.923 884.526 931.976 884.377 931.976C884.228 931.976 884.083 931.923 883.969 931.827C883.732 931.534 883.618 931.16 883.652 930.785V896.479L875.993 901.011C875.879 901.107 875.735 901.16 875.585 901.16C875.436 901.16 875.292 901.107 875.177 901.011C875.045 900.874 874.944 900.71 874.881 900.53C874.819 900.35 874.796 900.158 874.815 899.969V892.899C874.827 892.38 874.951 891.87 875.177 891.404C875.337 890.994 875.623 890.645 875.993 890.407L899.287 876.63Z" fill="#FAFAFA"/>
<path d="M928.154 895.981C928.276 895.882 928.428 895.827 928.585 895.827C928.742 895.827 928.894 895.882 929.015 895.981C929.259 896.288 929.373 896.679 929.332 897.069V904.138C929.341 904.64 929.232 905.137 929.015 905.589C928.828 906.007 928.53 906.368 928.154 906.631L907.625 918.504C907.511 918.6 907.366 918.653 907.217 918.653C907.068 918.653 906.924 918.6 906.809 918.504C906.674 918.369 906.572 918.205 906.509 918.024C906.446 917.844 906.425 917.652 906.447 917.462V874.319C906.437 873.798 906.562 873.283 906.809 872.824C906.969 872.414 907.255 872.065 907.625 871.827L927.837 860.135C927.951 860.039 928.096 859.986 928.245 859.986C928.394 859.986 928.538 860.039 928.653 860.135C928.783 860.274 928.882 860.438 928.944 860.618C929.007 860.797 929.031 860.988 929.015 861.177V868.247C929.003 868.765 928.879 869.275 928.653 869.742C928.493 870.152 928.207 870.501 927.837 870.739L914.242 878.443V885.649L926.659 878.489C926.773 878.393 926.917 878.34 927.066 878.34C927.216 878.34 927.36 878.393 927.474 878.489C927.604 878.627 927.704 878.792 927.766 878.971C927.829 879.151 927.853 879.341 927.837 879.531V886.646C927.824 887.15 927.7 887.645 927.474 888.096C927.315 888.506 927.029 888.855 926.659 889.093L914.242 896.253V903.731L928.154 895.981Z" fill="#FAFAFA"/>
<path d="M949.408 847.625C950.982 846.658 952.716 845.983 954.529 845.631C955.842 845.341 957.216 845.551 958.381 846.221C959.56 847.022 960.425 848.207 960.828 849.574C961.43 851.618 961.705 853.744 961.644 855.873C961.672 858.944 961.229 862.001 960.33 864.937C959.495 867.558 958.206 870.012 956.523 872.188L961.871 885.013C961.918 885.221 961.918 885.438 961.871 885.647C961.867 886.07 961.775 886.487 961.599 886.871C961.448 887.198 961.214 887.479 960.919 887.686L955.028 891.085C954.439 891.402 954.031 891.448 953.804 891.085C953.543 890.848 953.342 890.553 953.215 890.224L948.366 878.713L944.378 881.025V895.3C944.383 895.815 944.274 896.326 944.061 896.795C943.886 897.21 943.585 897.559 943.2 897.792L937.535 901.1C937.421 901.196 937.276 901.249 937.127 901.249C936.978 901.249 936.834 901.196 936.719 901.1C936.466 900.814 936.335 900.44 936.357 900.058V857.006C936.369 856.487 936.493 855.978 936.719 855.511C936.879 855.101 937.165 854.752 937.535 854.514L949.408 847.625ZM944.605 870.602L949.499 867.792C950.706 867.09 951.743 866.131 952.535 864.982C953.378 863.626 953.789 862.045 953.713 860.45C953.713 858.592 953.351 857.505 952.535 857.278C952.01 857.168 951.467 857.172 950.943 857.289C950.42 857.407 949.927 857.635 949.499 857.958L944.605 860.768V870.602Z" fill="#FAFAFA"/>
<path d="M981.493 864.076C981.271 863.839 981.074 863.581 980.903 863.306L976.825 854.65V876.765C976.824 877.265 976.716 877.76 976.508 878.215C976.336 878.644 976.035 879.008 975.647 879.257L969.982 882.52C969.864 882.609 969.721 882.656 969.574 882.656C969.427 882.656 969.284 882.609 969.166 882.52C969.037 882.372 968.939 882.199 968.877 882.013C968.814 881.826 968.79 881.629 968.804 881.433V838.29C968.816 837.771 968.94 837.261 969.166 836.795C969.338 836.392 969.621 836.046 969.982 835.798L975.012 832.897C975.601 832.58 976.055 832.58 976.326 832.897C976.533 833.118 976.716 833.362 976.87 833.622L983.894 848.079L990.964 825.42C991.114 824.94 991.295 824.471 991.508 824.015C991.768 823.396 992.232 822.884 992.822 822.565L997.852 819.619C997.967 819.523 998.111 819.471 998.26 819.471C998.409 819.471 998.554 819.523 998.668 819.619C998.798 819.758 998.897 819.922 998.96 820.102C999.022 820.281 999.046 820.472 999.031 820.661V863.804C999.018 864.323 998.895 864.833 998.668 865.3C998.508 865.71 998.223 866.059 997.852 866.297L992.142 869.559C992.033 869.665 991.886 869.723 991.734 869.723C991.582 869.723 991.436 869.665 991.327 869.559C991.073 869.273 990.943 868.899 990.964 868.517V846.402L986.885 859.771C986.729 860.263 986.548 860.747 986.342 861.221C986.12 861.697 985.756 862.093 985.299 862.354L982.535 863.985C982.082 864.303 981.765 864.303 981.493 864.076Z" fill="#FAFAFA"/>
<path d="M1018.52 807.156C1020.07 806.187 1021.82 805.597 1023.64 805.434C1025.02 805.349 1026.4 805.647 1027.63 806.295C1028.76 806.942 1029.69 807.902 1030.3 809.06C1030.93 810.263 1031.27 811.598 1031.3 812.957C1031.3 813.366 1031.21 813.769 1031.03 814.135C1030.88 814.455 1030.67 814.735 1030.39 814.951L1024.68 818.214C1024.4 818.417 1024.07 818.528 1023.73 818.531C1023.45 818.467 1023.19 818.344 1022.96 818.169L1022.55 817.716C1022.32 817.493 1022.04 817.323 1021.74 817.217C1021.31 817.095 1020.85 817.095 1020.42 817.217C1019.74 817.32 1019.09 817.567 1018.52 817.942C1017.96 818.263 1017.43 818.626 1016.93 819.03C1016.44 819.409 1016 819.851 1015.62 820.344C1015.21 820.811 1014.88 821.348 1014.67 821.93C1014.4 822.514 1014.26 823.147 1014.26 823.788C1014.23 824.048 1014.26 824.311 1014.33 824.56C1014.41 824.81 1014.54 825.041 1014.71 825.238C1015.09 825.549 1015.58 825.695 1016.07 825.646C1016.94 825.635 1017.81 825.514 1018.65 825.284L1022.64 824.241C1024 823.863 1025.4 823.68 1026.81 823.697C1027.9 823.746 1028.95 824.143 1029.8 824.83C1030.65 825.646 1031.27 826.681 1031.57 827.821C1032.01 829.475 1032.21 831.185 1032.16 832.897C1032.17 835.155 1031.83 837.402 1031.16 839.559C1030.49 841.738 1029.54 843.824 1028.35 845.767C1027.15 847.715 1025.72 849.511 1024.09 851.115C1022.51 852.716 1020.71 854.089 1018.74 855.193C1017.11 856.216 1015.27 856.866 1013.35 857.097C1011.92 857.269 1010.47 857.017 1009.18 856.372C1007.99 855.719 1007.03 854.724 1006.42 853.517C1005.71 852.113 1005.35 850.558 1005.38 848.985C1005.37 848.556 1005.48 848.134 1005.69 847.761C1005.8 847.449 1006.01 847.18 1006.28 846.991L1011.99 843.683C1012.28 843.501 1012.61 843.392 1012.94 843.365C1013.19 843.414 1013.43 843.522 1013.62 843.683C1013.82 843.852 1014 844.033 1014.17 844.226C1014.43 844.514 1014.74 844.758 1015.07 844.952C1015.56 845.074 1016.08 845.074 1016.57 844.952C1017.35 844.887 1018.1 844.621 1018.74 844.181C1020.16 843.366 1021.46 842.36 1022.6 841.19C1023.55 840.2 1024.1 838.892 1024.14 837.519C1024.18 837.26 1024.14 836.996 1024.04 836.756C1023.93 836.515 1023.76 836.309 1023.55 836.16C1023.03 835.898 1022.44 835.818 1021.87 835.933C1020.89 836.019 1019.92 836.201 1018.97 836.477L1014.85 837.519C1013.76 837.966 1012.57 838.096 1011.42 837.896C1010.27 837.695 1009.19 837.172 1008.32 836.386C1006.7 834.059 1005.96 831.232 1006.24 828.411C1006.27 826.388 1006.56 824.378 1007.1 822.429C1007.7 820.34 1008.52 818.319 1009.54 816.401C1010.61 814.449 1011.92 812.637 1013.44 811.009C1014.93 809.473 1016.64 808.173 1018.52 807.156Z" fill="#FAFAFA"/>
<path d="M1048.83 807.565C1048.93 804.981 1049.29 802.414 1049.92 799.906C1050.5 797.392 1051.39 794.958 1052.55 792.655C1053.67 790.387 1055.07 788.27 1056.72 786.356C1058.34 784.538 1060.26 783.006 1062.39 781.824C1064.07 780.738 1066 780.113 1068 780.011C1069.54 779.977 1071.03 780.492 1072.22 781.462C1073.47 782.594 1074.38 784.054 1074.85 785.676C1075.52 787.757 1075.88 789.925 1075.93 792.111C1075.93 794.015 1075.93 796.009 1075.93 798.093C1075.93 800.178 1075.93 802.126 1075.93 803.985C1075.84 806.569 1075.48 809.136 1074.85 811.643C1074.24 814.178 1073.36 816.639 1072.22 818.985C1071.1 821.247 1069.68 823.35 1068 825.239C1066.39 827.048 1064.49 828.579 1062.39 829.77C1060.7 830.884 1058.74 831.526 1056.72 831.628C1055.2 831.704 1053.7 831.184 1052.55 830.178C1051.29 829.033 1050.38 827.557 1049.92 825.918C1049.25 823.837 1048.89 821.669 1048.83 819.483C1048.83 817.716 1048.83 815.767 1048.83 813.683C1048.83 811.598 1048.83 809.513 1048.83 807.565ZM1067.87 808.108C1067.87 807.293 1067.87 806.386 1067.87 805.389C1067.87 804.392 1067.87 803.395 1067.87 802.353C1067.87 801.311 1067.87 800.359 1067.87 799.407C1067.87 798.456 1067.87 797.64 1067.87 796.915C1067.85 795.961 1067.7 795.015 1067.42 794.105C1067.24 793.404 1066.88 792.763 1066.37 792.247C1065.93 791.832 1065.35 791.591 1064.74 791.567C1063.9 791.625 1063.09 791.89 1062.39 792.338C1061.49 792.849 1060.7 793.508 1060.03 794.287C1059.36 795.072 1058.8 795.94 1058.35 796.87C1057.91 797.847 1057.56 798.863 1057.31 799.906C1057.09 801.013 1056.94 802.133 1056.86 803.259C1056.86 804.075 1056.86 804.936 1056.86 805.888C1056.86 806.84 1056.86 807.837 1056.86 808.879C1056.86 809.921 1056.86 810.918 1056.86 811.87C1056.86 812.821 1056.86 813.728 1056.86 814.498C1056.86 816.129 1057.39 817.716 1058.35 819.03C1059.26 819.982 1060.57 819.936 1062.39 819.03C1064.16 817.98 1065.56 816.393 1066.37 814.498C1067.3 812.484 1067.87 810.32 1068.05 808.108H1067.87Z" fill="#FAFAFA"/>
<path d="M1104.35 758.215C1104.46 758.119 1104.61 758.066 1104.76 758.066C1104.91 758.066 1105.05 758.119 1105.17 758.215C1105.41 758.522 1105.52 758.912 1105.48 759.303V766.372C1105.49 766.873 1105.38 767.369 1105.17 767.822C1104.99 768.238 1104.71 768.599 1104.35 768.865L1091.34 776.342V785.406L1103.49 778.381C1103.6 778.285 1103.75 778.233 1103.9 778.233C1104.05 778.233 1104.19 778.285 1104.3 778.381C1104.54 778.674 1104.66 779.048 1104.62 779.424V786.539C1104.62 787.039 1104.51 787.534 1104.3 787.989C1104.14 788.399 1103.86 788.748 1103.49 788.986L1091.34 795.965V810.421C1091.35 810.922 1091.24 811.418 1091.03 811.871C1090.87 812.281 1090.58 812.63 1090.21 812.868L1084.5 816.176C1084.38 816.265 1084.24 816.312 1084.09 816.312C1083.95 816.312 1083.8 816.265 1083.68 816.176C1083.56 816.028 1083.46 815.855 1083.4 815.669C1083.33 815.482 1083.31 815.285 1083.32 815.089V771.946C1083.33 771.441 1083.45 770.945 1083.68 770.496C1083.84 770.074 1084.13 769.71 1084.5 769.454L1104.35 758.215Z" fill="#FAFAFA"/>
<path d="M1134.21 740.268C1135.77 739.319 1137.52 738.731 1139.33 738.546C1140.72 738.46 1142.1 738.758 1143.32 739.407C1144.45 740.065 1145.38 741.022 1146 742.171C1146.63 743.375 1146.97 744.709 1146.99 746.068C1146.98 746.48 1146.87 746.884 1146.68 747.247C1146.56 747.584 1146.34 747.872 1146.04 748.062L1140.38 751.325C1140.11 751.548 1139.77 751.662 1139.43 751.643C1139.14 751.599 1138.87 751.473 1138.65 751.28L1138.25 750.827C1138.01 750.605 1137.74 750.435 1137.43 750.328C1137 750.209 1136.55 750.209 1136.12 750.328C1135.44 750.431 1134.79 750.678 1134.21 751.053C1133.66 751.374 1133.13 751.738 1132.63 752.141C1132.13 752.521 1131.69 752.962 1131.31 753.455C1130.9 753.931 1130.57 754.466 1130.32 755.041C1130.08 755.633 1129.96 756.263 1129.95 756.899C1129.91 757.15 1129.92 757.407 1129.99 757.651C1130.07 757.895 1130.2 758.117 1130.38 758.299C1130.56 758.482 1130.77 758.618 1131.02 758.698C1131.26 758.778 1131.52 758.798 1131.77 758.757C1132.64 758.741 1133.51 758.619 1134.35 758.395L1138.34 757.353C1139.69 756.974 1141.1 756.791 1142.51 756.809C1143.6 756.857 1144.65 757.254 1145.5 757.942C1146.35 758.758 1146.96 759.793 1147.27 760.933C1147.69 762.591 1147.88 764.298 1147.85 766.008C1147.85 768.265 1147.51 770.51 1146.86 772.67C1146.17 774.845 1145.23 776.929 1144.05 778.879C1142.86 780.833 1141.43 782.63 1139.79 784.226C1138.2 785.827 1136.4 787.2 1134.44 788.305C1132.82 789.367 1130.97 790.021 1129.05 790.208C1127.62 790.386 1126.16 790.134 1124.88 789.483C1123.69 788.83 1122.73 787.835 1122.11 786.628C1121.4 785.224 1121.05 783.669 1121.07 782.096C1121.07 781.674 1121.17 781.257 1121.34 780.873C1121.48 780.564 1121.7 780.298 1121.98 780.102L1127.69 776.794C1127.97 776.612 1128.3 776.503 1128.64 776.477C1128.89 776.525 1129.12 776.634 1129.32 776.794C1129.49 776.966 1129.66 777.148 1129.82 777.338C1130.11 777.615 1130.43 777.858 1130.77 778.063C1131.26 778.186 1131.77 778.186 1132.27 778.063C1133.04 777.998 1133.79 777.733 1134.44 777.292C1135.86 776.478 1137.15 775.471 1138.29 774.301C1139.25 773.317 1139.8 772.005 1139.83 770.631C1139.86 770.373 1139.82 770.113 1139.71 769.875C1139.61 769.638 1139.45 769.43 1139.24 769.271C1138.7 769.085 1138.11 769.085 1137.57 769.271C1136.58 769.356 1135.61 769.539 1134.67 769.815L1130.41 770.903C1129.32 771.349 1128.14 771.48 1126.98 771.279C1125.83 771.079 1124.75 770.555 1123.88 769.77C1122.24 767.452 1121.5 764.617 1121.8 761.794C1121.81 759.77 1122.1 757.756 1122.66 755.812C1123.22 753.709 1124.04 751.685 1125.1 749.784C1126.17 747.832 1127.48 746.02 1129 744.392C1130.51 742.748 1132.27 741.356 1134.21 740.268Z" fill="#FAFAFA"/>
<path d="M1176.09 752.776C1176.2 752.68 1176.35 752.627 1176.5 752.627C1176.64 752.627 1176.79 752.68 1176.9 752.776C1177.16 753.062 1177.29 753.436 1177.27 753.818V760.933C1177.25 761.436 1177.12 761.931 1176.9 762.383C1176.74 762.793 1176.46 763.142 1176.09 763.38L1155.51 775.435C1155.4 775.531 1155.25 775.583 1155.11 775.583C1154.96 775.583 1154.81 775.531 1154.7 775.435C1154.57 775.286 1154.47 775.114 1154.41 774.927C1154.35 774.74 1154.32 774.543 1154.33 774.347V731.204C1154.35 730.701 1154.48 730.207 1154.7 729.754C1154.86 729.344 1155.14 728.995 1155.51 728.757L1175.72 716.975C1175.84 716.879 1175.98 716.826 1176.13 716.826C1176.28 716.826 1176.43 716.879 1176.54 716.975C1176.67 717.123 1176.77 717.296 1176.83 717.482C1176.89 717.669 1176.92 717.866 1176.9 718.062V725.132C1176.89 725.65 1176.77 726.16 1176.54 726.627C1176.37 727.03 1176.09 727.376 1175.72 727.624L1162.36 735.328V742.534L1174.77 735.374C1174.89 735.285 1175.03 735.238 1175.18 735.238C1175.33 735.238 1175.47 735.285 1175.59 735.374C1175.72 735.522 1175.82 735.695 1175.88 735.881C1175.94 736.068 1175.97 736.265 1175.95 736.461V743.712C1175.94 744.231 1175.82 744.741 1175.59 745.208C1175.43 745.618 1175.14 745.967 1174.77 746.205L1162.36 753.365V760.842L1176.09 752.776Z" fill="#FAFAFA"/>
<path d="M1197.34 704.512C1198.92 703.553 1200.65 702.864 1202.46 702.473C1203.78 702.212 1205.14 702.42 1206.31 703.062C1207.49 703.874 1208.34 705.079 1208.72 706.461C1209.36 708.481 1209.65 710.597 1209.58 712.715C1209.61 715.79 1209.15 718.85 1208.22 721.779C1207.36 724.391 1206.08 726.842 1204.41 729.029L1209.8 741.809C1209.85 742.034 1209.85 742.264 1209.8 742.489C1209.78 742.9 1209.68 743.302 1209.49 743.667C1209.36 744.009 1209.12 744.297 1208.81 744.483L1202.92 747.882C1202.37 748.244 1201.92 748.289 1201.69 747.882C1201.46 747.624 1201.26 747.334 1201.1 747.021L1196.3 735.51L1192.31 737.821V752.096C1192.3 752.601 1192.18 753.098 1191.95 753.546C1191.79 753.969 1191.5 754.332 1191.13 754.589L1185.42 757.852C1185.31 757.947 1185.16 758 1185.02 758C1184.87 758 1184.72 757.947 1184.61 757.852C1184.36 757.545 1184.25 757.154 1184.29 756.764V713.621C1184.29 713.121 1184.4 712.626 1184.61 712.171C1184.77 711.761 1185.05 711.412 1185.42 711.174L1197.34 704.512ZM1192.45 727.579L1197.34 724.724C1198.55 724.047 1199.58 723.082 1200.33 721.915C1201.2 720.569 1201.63 718.984 1201.56 717.383C1201.56 715.479 1201.15 714.437 1200.33 714.165C1199.29 713.994 1198.21 714.238 1197.34 714.845L1192.45 717.7V727.579Z" fill="#FAFAFA"/>
<path d="M1224.94 735.328C1223.82 735.963 1223.05 735.51 1222.63 733.969L1213.57 697.352C1213.57 697.08 1213.57 696.899 1213.57 696.808V696.536C1213.57 696.129 1213.67 695.728 1213.84 695.358C1213.96 695.016 1214.2 694.728 1214.52 694.542L1219.96 691.37C1220.54 691.053 1220.95 691.007 1221.22 691.37C1221.44 691.598 1221.6 691.879 1221.68 692.186L1227.7 718.107L1233.73 685.252C1233.79 684.774 1233.95 684.312 1234.18 683.893C1234.44 683.332 1234.87 682.871 1235.41 682.578L1240.89 679.451C1240.99 679.374 1241.11 679.332 1241.23 679.332C1241.36 679.332 1241.48 679.374 1241.57 679.451C1241.67 679.569 1241.75 679.706 1241.8 679.854C1241.84 680.002 1241.86 680.158 1241.84 680.312C1241.86 680.402 1241.86 680.495 1241.84 680.584C1241.84 680.584 1241.84 680.902 1241.84 681.264L1233.01 728.123C1232.93 728.914 1232.68 729.679 1232.28 730.367C1231.88 731.055 1231.34 731.649 1230.7 732.111L1224.94 735.328Z" fill="#FAFAFA"/>
<path d="M1249.28 721.28C1249.16 721.376 1249.02 721.429 1248.87 721.429C1248.72 721.429 1248.57 721.376 1248.46 721.28C1248.32 721.138 1248.22 720.967 1248.15 720.778C1248.09 720.59 1248.07 720.39 1248.1 720.193V677.05C1248.08 676.543 1248.21 676.041 1248.46 675.6C1248.62 675.178 1248.9 674.814 1249.28 674.558L1254.94 671.295C1255.06 671.199 1255.2 671.146 1255.35 671.146C1255.5 671.146 1255.64 671.199 1255.76 671.295C1255.89 671.443 1255.98 671.616 1256.05 671.803C1256.11 671.989 1256.13 672.186 1256.12 672.383V715.525C1256.11 716.029 1255.98 716.524 1255.76 716.975C1255.59 717.391 1255.3 717.752 1254.94 718.018L1249.28 721.28Z" fill="#FAFAFA"/>
<path d="M1271.35 679.543C1271.35 680.132 1271.35 680.948 1271.35 681.99V688.38C1271.35 689.422 1271.35 690.193 1271.35 690.782C1271.39 691.682 1271.51 692.576 1271.71 693.456C1271.86 694.182 1272.21 694.855 1272.71 695.404C1272.91 695.636 1273.16 695.821 1273.44 695.946C1273.72 696.071 1274.03 696.134 1274.34 696.129C1275.21 696.114 1276.06 695.846 1276.78 695.359C1277.7 694.843 1278.52 694.186 1279.23 693.41C1279.83 692.752 1280.35 692.021 1280.77 691.235C1281.17 690.514 1281.48 689.755 1281.72 688.969C1281.94 688.303 1282.11 687.622 1282.22 686.93C1282.32 686.323 1282.49 685.73 1282.72 685.162C1282.94 684.736 1283.29 684.388 1283.72 684.165L1289.38 680.902C1289.48 680.825 1289.6 680.783 1289.72 680.783C1289.85 680.783 1289.97 680.825 1290.06 680.902C1290.26 681.162 1290.35 681.484 1290.33 681.809C1290.27 684.187 1289.91 686.548 1289.25 688.833C1288.58 691.222 1287.62 693.52 1286.39 695.676C1285.2 697.821 1283.77 699.828 1282.13 701.658C1280.6 703.443 1278.8 704.973 1276.78 706.19C1275.11 707.251 1273.19 707.86 1271.21 707.957C1269.68 707.988 1268.2 707.456 1267.04 706.462C1265.79 705.32 1264.87 703.865 1264.37 702.247C1263.73 700.174 1263.38 698.024 1263.32 695.857C1263.32 694.09 1263.32 692.141 1263.32 690.057C1263.32 687.972 1263.32 685.933 1263.32 683.984C1263.48 678.806 1264.75 673.722 1267.04 669.075C1268.16 666.807 1269.56 664.69 1271.21 662.775C1272.8 660.966 1274.69 659.434 1276.78 658.244C1278.39 657.217 1280.23 656.61 1282.13 656.476C1283.63 656.36 1285.12 656.725 1286.39 657.518C1287.68 658.374 1288.68 659.609 1289.25 661.053C1289.97 662.901 1290.34 664.869 1290.33 666.854C1290.33 667.262 1290.24 667.664 1290.06 668.032C1289.94 668.374 1289.7 668.662 1289.38 668.848L1283.72 672.156C1283.22 672.428 1282.9 672.473 1282.72 672.156C1282.45 671.797 1282.28 671.376 1282.22 670.933C1282.12 670.43 1281.95 669.943 1281.72 669.482C1281.52 669.009 1281.19 668.601 1280.77 668.304C1280.31 668.009 1279.77 667.866 1279.23 667.896C1278.36 668.012 1277.53 668.305 1276.78 668.757C1275.86 669.315 1275.03 670.019 1274.34 670.842C1273.66 671.643 1273.11 672.545 1272.71 673.516C1272.26 674.471 1271.92 675.474 1271.71 676.507C1271.53 677.51 1271.4 678.524 1271.35 679.543Z" fill="#FAFAFA"/>
<path d="M1318.7 670.479C1318.82 670.383 1318.96 670.33 1319.11 670.33C1319.26 670.33 1319.4 670.383 1319.52 670.479C1319.65 670.618 1319.75 670.782 1319.81 670.962C1319.87 671.141 1319.9 671.332 1319.88 671.521V678.591C1319.87 679.109 1319.75 679.619 1319.52 680.086C1319.36 680.496 1319.07 680.845 1318.7 681.083L1298.08 693.047C1297.97 693.143 1297.82 693.196 1297.68 693.196C1297.53 693.196 1297.38 693.143 1297.27 693.047C1297.02 692.74 1296.91 692.35 1296.95 691.959V648.817C1296.95 648.316 1297.06 647.82 1297.27 647.367C1297.43 646.957 1297.71 646.608 1298.08 646.37L1318.3 634.678C1318.66 634.678 1318.93 634.678 1319.16 634.678C1319.4 634.985 1319.51 635.375 1319.47 635.765V642.835C1319.48 643.336 1319.37 643.833 1319.16 644.285C1319 644.72 1318.69 645.088 1318.3 645.327L1304.97 653.031V660.237L1317.34 653.077C1317.47 652.977 1317.62 652.923 1317.77 652.923C1317.93 652.923 1318.08 652.977 1318.2 653.077C1318.45 653.384 1318.56 653.774 1318.52 654.164V661.234C1318.53 661.75 1318.42 662.26 1318.2 662.729C1318 663.127 1317.71 663.47 1317.34 663.726L1304.97 670.887V678.364L1318.7 670.479Z" fill="#FAFAFA"/>
<path d="M1110.15 867.838L1164.12 836.705C1167.11 834.983 1169.52 836.342 1169.56 839.832V841.191C1169.45 843.072 1168.91 844.901 1167.96 846.53C1167.02 848.16 1165.7 849.545 1164.12 850.572L1110.15 881.751C1107.16 883.473 1104.71 882.068 1104.71 878.624V877.264C1104.81 875.376 1105.36 873.538 1106.3 871.9C1107.25 870.262 1108.57 868.87 1110.15 867.838Z" fill="#FAFAFA"/>
<path d="M875.177 1003.47L1086.58 881.479C1089.58 879.757 1092.02 881.162 1092.02 884.651V886.011C1091.93 887.894 1091.38 889.727 1090.44 891.358C1089.49 892.989 1088.17 894.372 1086.58 895.391L875.177 1017.39C872.186 1019.11 869.784 1017.7 869.784 1014.26V1012.9C869.883 1011.02 870.422 1009.18 871.359 1007.55C872.296 1005.91 873.603 1004.51 875.177 1003.47Z" fill="#FAFAFA"/>
<path d="M1188.46 822.656L1314.62 749.785C1317.66 748.018 1320.06 749.423 1320.06 752.912V754.272C1319.96 756.149 1319.42 757.977 1318.49 759.607C1317.55 761.237 1316.24 762.623 1314.67 763.653L1188.46 836.524C1185.47 838.246 1183.02 836.841 1183.02 833.397V832.037C1183.13 830.157 1183.68 828.328 1184.62 826.698C1185.57 825.069 1186.88 823.684 1188.46 822.656Z" fill="#FAFAFA"/>
<path d="M1023.5 954.35L1077.48 923.171C1080.47 921.449 1082.91 922.854 1082.91 926.298V927.658C1082.81 929.546 1082.27 931.384 1081.32 933.022C1080.38 934.66 1079.06 936.052 1077.48 937.084L1023.5 968.217C1020.51 969.939 1018.06 968.535 1018.06 965.09V963.731C1018.17 961.85 1018.72 960.021 1019.66 958.392C1020.61 956.762 1021.92 955.378 1023.5 954.35Z" fill="#FAFAFA"/>
<path d="M1103.22 908.171L1314.58 786.221C1317.62 784.454 1320.02 785.858 1320.02 789.348V790.707C1319.92 792.585 1319.38 794.412 1318.44 796.042C1317.5 797.672 1316.2 799.058 1314.62 800.088L1103.22 922.084C1100.18 923.806 1097.78 922.401 1097.78 918.957V917.597C1097.88 915.708 1098.42 913.869 1099.36 912.23C1100.31 910.592 1101.63 909.201 1103.22 908.171Z" fill="#FAFAFA"/>
<path d="M874.86 1040.18L1001.07 967.311C1004.06 965.543 1006.51 966.948 1006.51 970.438V971.797C1006.4 973.678 1005.85 975.507 1004.91 977.136C1003.96 978.766 1002.65 980.15 1001.07 981.178L874.86 1054.05C871.869 1055.82 869.467 1054.41 869.467 1050.92V1049.56C869.565 1047.69 870.105 1045.86 871.042 1044.23C871.979 1042.6 873.287 1041.21 874.86 1040.18Z" fill="#FAFAFA"/>
<path d="M875.177 966.993L967.671 913.609C970.662 911.887 973.063 913.292 973.063 916.736V918.095C972.965 919.979 972.425 921.813 971.489 923.45C970.552 925.087 969.244 926.482 967.671 927.521L875.177 980.906C872.186 982.628 869.784 981.223 869.784 977.734V976.419C869.876 974.534 870.412 972.697 871.349 971.059C872.287 969.421 873.598 968.028 875.177 966.993Z" fill="#FAFAFA"/>
<path d="M1232.15 760.934L1315.71 712.67C1318.75 710.903 1321.15 712.308 1321.15 715.797V717.157C1321.05 719.04 1320.51 720.873 1319.56 722.504C1318.62 724.135 1317.3 725.518 1315.71 726.537L1232.15 774.801C1229.16 776.523 1226.71 775.118 1226.71 771.674V770.314C1226.82 768.434 1227.36 766.605 1228.31 764.975C1229.25 763.346 1230.57 761.961 1232.15 760.934Z" fill="#FAFAFA"/>
<path d="M991.191 899.968L1202.6 777.972C1205.59 776.25 1208.04 777.655 1208.04 781.099V782.459C1207.93 784.339 1207.38 786.168 1206.44 787.798C1205.49 789.427 1204.18 790.812 1202.6 791.839L991.191 913.835C988.2 915.557 985.753 914.152 985.753 910.708V909.349C985.86 907.468 986.408 905.639 987.353 904.009C988.298 902.38 989.612 900.995 991.191 899.968Z" fill="#FAFAFA"/>
<path d="M1110.15 980.905L1164.12 949.772C1167.11 948.004 1169.52 949.409 1169.56 952.899V954.258C1169.45 956.139 1168.91 957.968 1167.96 959.597C1167.02 961.227 1165.7 962.611 1164.12 963.639L1110.15 994.818C1107.16 996.54 1104.71 995.135 1104.71 991.691V990.331C1104.81 988.443 1105.36 986.605 1106.3 984.967C1107.25 983.329 1108.57 981.937 1110.15 980.905Z" fill="#FAFAFA"/>
<path d="M875.177 1116.54L1086.58 994.547C1089.58 992.825 1092.02 994.23 1092.02 997.719V999.079C1091.93 1000.96 1091.38 1002.8 1090.44 1004.43C1089.49 1006.06 1088.17 1007.44 1086.58 1008.46L875.177 1130.46C872.186 1132.18 869.784 1130.77 869.784 1127.33V1125.97C869.883 1124.09 870.422 1122.25 871.359 1120.61C872.296 1118.98 873.603 1117.58 875.177 1116.54Z" fill="#FAFAFA"/>
<path d="M1188.46 935.723L1314.62 862.807C1317.66 861.085 1320.06 862.49 1320.06 865.979V867.339C1319.96 869.216 1319.42 871.044 1318.49 872.674C1317.55 874.303 1316.24 875.69 1314.67 876.72L1188.46 949.591C1185.47 951.313 1183.02 949.908 1183.02 946.464V945.104C1183.13 943.224 1183.68 941.395 1184.62 939.765C1185.57 938.135 1186.88 936.751 1188.46 935.723Z" fill="#FAFAFA"/>
<path d="M1023.5 1067.42L1077.48 1036.24C1080.47 1034.52 1082.91 1035.92 1082.91 1039.37V1040.73C1082.81 1042.61 1082.27 1044.45 1081.32 1046.09C1080.38 1047.73 1079.06 1049.12 1077.48 1050.15L1023.5 1081.29C1020.51 1083.01 1018.06 1081.6 1018.06 1078.16V1076.8C1018.17 1074.92 1018.72 1073.09 1019.66 1071.46C1020.61 1069.83 1021.92 1068.45 1023.5 1067.42Z" fill="#FAFAFA"/>
<path d="M1103.22 1021.24L1314.58 899.289C1317.62 897.522 1320.02 898.927 1320.02 902.416V903.776C1319.92 905.653 1319.38 907.481 1318.44 909.111C1317.5 910.74 1316.2 912.127 1314.62 913.157L1103.22 1035.15C1100.18 1036.87 1097.78 1035.47 1097.78 1032.03V1030.67C1097.88 1028.78 1098.42 1026.94 1099.36 1025.3C1100.31 1023.66 1101.63 1022.27 1103.22 1021.24Z" fill="#FAFAFA"/>
<path d="M874.86 1153.25L1001.07 1080.38C1004.06 1078.61 1006.51 1080.02 1006.51 1083.51V1084.87C1006.4 1086.75 1005.85 1088.57 1004.91 1090.2C1003.96 1091.83 1002.65 1093.22 1001.07 1094.25L874.86 1167.12C871.869 1168.88 869.467 1167.48 869.467 1163.99V1162.63C869.565 1160.75 870.105 1158.93 871.042 1157.3C871.979 1155.67 873.287 1154.28 874.86 1153.25Z" fill="#FAFAFA"/>
<path d="M875.177 1080.06L967.671 1026.68C970.662 1024.96 973.063 1026.36 973.063 1029.8V1031.16C972.965 1033.05 972.425 1034.88 971.489 1036.52C970.552 1038.16 969.244 1039.55 967.671 1040.59L875.177 1093.97C872.186 1095.7 869.784 1094.29 869.784 1090.8V1089.49C869.876 1087.6 870.412 1085.77 871.349 1084.13C872.287 1082.49 873.598 1081.1 875.177 1080.06Z" fill="#FAFAFA"/>
<path d="M1232.15 873.955L1315.71 825.692C1318.75 823.97 1321.15 825.375 1321.15 828.864V830.224C1321.05 832.107 1320.51 833.94 1319.56 835.571C1318.62 837.202 1317.3 838.585 1315.71 839.604L1232.15 887.868C1229.16 889.59 1226.71 888.185 1226.71 884.741V883.381C1226.82 881.496 1227.37 879.661 1228.31 878.025C1229.26 876.389 1230.57 874.995 1232.15 873.955Z" fill="#FAFAFA"/>
<path d="M991.191 1013.04L1202.6 891.04C1205.59 889.318 1208.04 890.723 1208.04 894.167V895.527C1207.93 897.408 1207.38 899.237 1206.44 900.866C1205.49 902.496 1204.18 903.88 1202.6 904.908L991.191 1026.9C988.2 1028.63 985.753 1027.22 985.753 1023.78V1022.42C985.86 1020.54 986.408 1018.71 987.353 1017.08C988.298 1015.45 989.612 1014.06 991.191 1013.04Z" fill="#FAFAFA"/>
<path d="M1206.68 1016.39C1220.27 1008.6 1231.15 1014.89 1231.15 1030.53C1230.68 1039.02 1228.23 1047.28 1223.98 1054.64C1219.72 1062 1213.8 1068.26 1206.68 1072.9C1193.08 1080.7 1182.21 1074.4 1182.21 1058.76C1182.67 1050.27 1185.13 1042.01 1189.38 1034.65C1193.63 1027.29 1199.56 1021.03 1206.68 1016.39Z" fill="url(#paint8_linear_1206_9469)"/>
<path d="M1207.45 1063.25C1206.26 1063.24 1205.12 1062.77 1204.28 1061.93L1193.54 1051.51C1192.78 1050.65 1192.37 1049.54 1192.4 1048.4C1192.43 1047.26 1192.89 1046.17 1193.68 1045.35C1194.48 1044.53 1195.55 1044.04 1196.7 1043.98C1197.84 1043.92 1198.96 1044.3 1199.83 1045.03L1205.82 1050.88L1227.21 999.984C1227.4 999.393 1227.72 998.849 1228.14 998.387C1228.56 997.924 1229.06 997.553 1229.63 997.295C1230.2 997.038 1230.81 996.9 1231.44 996.891C1232.06 996.882 1232.68 997.001 1233.25 997.242C1233.83 997.482 1234.35 997.839 1234.78 998.289C1235.21 998.739 1235.54 999.274 1235.76 999.858C1235.97 1000.44 1236.06 1001.07 1236.03 1001.69C1235.99 1002.31 1235.83 1002.92 1235.54 1003.47L1211.62 1060.48C1211.33 1061.16 1210.88 1061.76 1210.32 1062.22C1209.75 1062.69 1209.07 1063.01 1208.35 1063.16L1207.45 1063.25Z" fill="#FAFAFA"/>
<path opacity="0.3" d="M1254.03 993.55L1276.69 980.589C1281.22 977.96 1285.03 980.09 1285.03 985.438V1011.36C1284.86 1014.25 1284.02 1017.07 1282.58 1019.58C1281.13 1022.09 1279.11 1024.22 1276.69 1025.82L1254.03 1038.78C1249.5 1041.45 1245.7 1039.28 1245.7 1033.97V1008.05C1245.85 1005.15 1246.68 1002.32 1248.13 999.803C1249.58 997.284 1251.6 995.141 1254.03 993.55Z" fill="white"/>
<path d="M951.991 1162.31C965.587 1154.52 976.463 1160.86 976.463 1176.45C976.01 1184.95 973.557 1193.22 969.305 1200.59C965.053 1207.96 959.121 1214.22 951.991 1218.87C938.396 1226.67 927.52 1220.32 927.52 1204.73C927.998 1196.24 930.461 1187.98 934.711 1180.61C938.961 1173.25 944.879 1166.98 951.991 1162.31Z" fill="#F28F8F"/>
<path opacity="0.3" d="M998.986 1141.1L1021.64 1128.14C1026.18 1125.47 1029.98 1127.64 1029.98 1132.95V1158.87C1029.85 1161.77 1029.03 1164.6 1027.58 1167.11C1026.13 1169.63 1024.09 1171.76 1021.64 1173.32L998.986 1186.33C994.454 1188.96 990.647 1186.83 990.647 1181.48V1155.56C990.807 1152.67 991.644 1149.85 993.093 1147.34C994.541 1144.83 996.56 1142.69 998.986 1141.1Z" fill="white"/>
<path d="M961.145 1203.92C959.978 1203.91 958.858 1203.46 958.018 1202.65L939.891 1185.11C939.385 1184.72 938.967 1184.23 938.663 1183.67C938.36 1183.11 938.179 1182.49 938.132 1181.85C938.084 1181.21 938.172 1180.57 938.389 1179.97C938.606 1179.37 938.947 1178.83 939.39 1178.37C939.833 1177.91 940.368 1177.55 940.96 1177.31C941.552 1177.07 942.188 1176.96 942.826 1176.99C943.464 1177.01 944.089 1177.17 944.661 1177.45C945.233 1177.74 945.739 1178.14 946.145 1178.63L964.272 1196.12C965.116 1196.97 965.59 1198.12 965.59 1199.32C965.59 1200.51 965.116 1201.66 964.272 1202.51C963.454 1203.37 962.331 1203.87 961.145 1203.92Z" fill="#FAFAFA"/>
<path d="M942.112 1216.01C941.451 1216.02 940.798 1215.86 940.209 1215.56C939.141 1215.04 938.319 1214.12 937.921 1213.01C937.522 1211.89 937.579 1210.66 938.079 1209.58L957.792 1167.75C958.311 1166.67 959.237 1165.84 960.366 1165.44C961.495 1165.04 962.737 1165.11 963.819 1165.62C964.887 1166.14 965.709 1167.06 966.107 1168.18C966.505 1169.3 966.449 1170.53 965.949 1171.6L946.236 1213.43C945.865 1214.21 945.28 1214.87 944.55 1215.32C943.82 1215.78 942.974 1216.02 942.112 1216.01Z" fill="#FAFAFA"/>
<path d="M1699.83 443.889L1684.96 415.883L1696.88 381.169V360.006L1660.26 381.169V402.333L1676.03 429.523C1676.27 429.942 1676.64 430.274 1677.08 430.475L1699.83 443.889Z" fill="url(#paint9_linear_1206_9469)"/>
<path opacity="0.2" d="M1699.83 443.889L1684.96 415.883L1696.88 381.169V360.006L1660.26 381.169V402.333L1676.03 429.523C1676.27 429.942 1676.64 430.274 1677.08 430.475L1699.83 443.889Z" fill="black"/>
<path d="M1787.52 192.012C1787.3 188.199 1786.19 184.49 1784.28 181.183C1782.37 177.877 1779.7 175.067 1776.5 172.979L1767.44 167.813C1764.03 166.092 1760.27 165.195 1756.45 165.195C1752.63 165.195 1748.87 166.092 1745.46 167.813L1608.24 247.164C1605.04 249.247 1602.38 252.057 1600.47 255.365C1598.57 258.673 1597.47 262.385 1597.27 266.198V417.106C1597.47 420.919 1598.57 424.631 1600.47 427.939C1602.38 431.247 1605.04 434.057 1608.24 436.139L1617.3 441.306C1620.7 443.026 1624.46 443.922 1628.27 443.922C1632.08 443.922 1635.84 443.026 1639.24 441.306L1683.38 415.837L1699.1 443.028C1699.33 443.417 1699.66 443.732 1700.06 443.938C1700.46 444.143 1700.91 444.23 1701.36 444.187C1701.81 444.144 1702.24 443.973 1702.59 443.696C1702.95 443.418 1703.21 443.045 1703.36 442.62L1719.86 394.764L1776.32 362.045C1779.57 359.98 1782.28 357.174 1784.22 353.856C1786.17 350.539 1787.3 346.806 1787.52 342.966V192.012Z" fill="url(#paint10_linear_1206_9469)"/>
<path opacity="0.2" d="M1597.18 417.107C1597.38 420.919 1598.48 424.631 1600.38 427.939C1602.29 431.247 1604.95 434.057 1608.15 436.14L1617.21 441.306C1620.31 442.864 1623.69 443.75 1627.15 443.907C1630.61 444.063 1634.07 443.485 1637.29 442.213C1632.12 444.161 1628.22 441.216 1628.22 434.962V284.053C1628.35 280.227 1629.46 276.497 1631.44 273.222L1600.54 255.367C1598.57 258.648 1597.46 262.374 1597.32 266.198L1597.18 417.107Z" fill="black"/>
<path opacity="0.5" d="M1786.97 188.885C1785.7 184.353 1781.44 182.767 1776.37 185.667L1639.15 265.019C1635.91 267.043 1633.26 269.869 1631.44 273.221L1600.54 255.411C1602.35 252.059 1605.01 249.233 1608.24 247.209L1745.42 167.857C1748.82 166.137 1752.59 165.24 1756.41 165.24C1760.22 165.24 1763.99 166.137 1767.4 167.857L1776.46 173.024C1779.19 174.82 1781.53 177.151 1783.34 179.878C1785.15 182.604 1786.38 185.668 1786.97 188.885Z" fill="white"/>
<path d="M1753.44 227.858C1750.35 226.577 1746.89 226.568 1743.8 227.833C1740.71 229.098 1738.24 231.534 1736.94 234.61L1689.27 347.905L1677.94 336.893C1675.53 334.561 1672.3 333.28 1668.95 333.331C1665.61 333.382 1662.41 334.761 1660.08 337.165C1657.75 339.568 1656.47 342.8 1656.52 346.148C1656.57 349.497 1657.95 352.688 1660.35 355.02L1684.96 378.948C1687.32 381.221 1690.48 382.488 1693.75 382.482C1694.58 382.549 1695.42 382.549 1696.25 382.482C1698.25 382.07 1700.13 381.173 1701.71 379.87C1703.29 378.566 1704.52 376.896 1705.31 375.005L1760.33 244.399C1760.96 242.861 1761.29 241.212 1761.29 239.547C1761.29 237.883 1760.96 236.235 1760.32 234.698C1759.68 233.161 1758.74 231.765 1757.56 230.592C1756.38 229.418 1754.98 228.489 1753.44 227.858Z" fill="#FAFAFA"/>
<path d="M1786.7 739.18C1818.97 739.18 1835.15 749.875 1848.61 779.331C1861.48 807.474 1892.74 906.674 1890.8 926.524C1888.85 946.373 1819.69 1032.2 1819.69 1032.2L1790.73 996.812L1837.68 920.542L1793.68 828.773L1786.7 739.18Z" fill="#FFA8A7"/>
<path d="M1767.39 1585.26L1742.2 1620.07C1742.2 1620.07 1754.66 1631.22 1779.45 1632.17C1801.88 1633.03 1808.04 1624.55 1808.86 1622.79C1810.99 1618.25 1810.04 1608.83 1809.27 1599.36C1808.68 1592.2 1808.86 1579.92 1804.74 1579.92L1767.39 1585.26Z" fill="#263238"/>
<path d="M1730.28 1594.69C1730.28 1594.69 1681.43 1601.9 1669.96 1600.67C1658.13 1601.8 1640.28 1601.9 1631.17 1604.52C1616.12 1608.83 1625.46 1631.71 1653.83 1639.28C1671.96 1644.18 1701.68 1644.49 1720.31 1650.07C1738.94 1655.64 1752.03 1664.03 1773.88 1657.86C1788.65 1653.65 1789.24 1641.77 1787.83 1633.03C1785.43 1618.48 1785.02 1604.39 1777.14 1602.85C1767.4 1600.9 1730.28 1594.69 1730.28 1594.69Z" fill="#263238"/>
<path d="M1853.18 1043.44C1848.97 1006.87 1829.07 978.187 1808.14 945.648L1754.07 1104.9L1740.48 1154.74C1740.48 1154.74 1741.43 1269.17 1743.2 1296.54C1744.96 1323.92 1763.32 1546.52 1763.32 1546.52L1766.63 1590.48C1797.76 1599.09 1804.28 1590.93 1804.6 1584.13C1804.92 1577.33 1808.32 1550.23 1808.32 1550.23C1808.32 1550.23 1837.86 1387.45 1839.04 1363.89C1840.49 1336.36 1836.58 1308.81 1827.53 1282.77C1833.56 1225.67 1862.15 1120.71 1853.18 1043.44Z" fill="#FFA8A7"/>
<path d="M1763.14 1546.56L1766.44 1590.52C1797.58 1599.13 1804.1 1590.97 1804.42 1584.18C1804.42 1582.64 1804.74 1579.96 1805.05 1576.83C1800.02 1588.07 1789.74 1584.81 1783.85 1568.77C1777.95 1552.73 1752.12 1412.88 1752.12 1412.88C1757.52 1478.4 1763.14 1546.56 1763.14 1546.56Z" fill="#F28F8F"/>
<path d="M1808.14 945.648L1649.75 963.776C1649.75 963.776 1610.64 1243.43 1607.65 1269.81C1603.57 1299.14 1609.02 1329 1623.19 1355C1633.75 1376.53 1717.5 1560.7 1727.43 1594.55C1727.43 1594.55 1686.64 1599.09 1670.05 1600.49C1650.93 1605.48 1659.4 1612.18 1665.2 1616.17C1672.45 1621.11 1687.64 1620.7 1704.27 1621.88C1721.99 1623.2 1737.35 1622.42 1752.49 1622.61C1778.54 1622.92 1779.68 1610.82 1779.68 1610.82C1775.82 1593.83 1772.52 1576.74 1769.89 1559.57C1761.96 1508.31 1745.01 1404.13 1733.63 1370.46C1724.93 1344.35 1701.01 1312.45 1701.01 1312.45L1753.98 1104.76C1813.85 1086.95 1833.42 1061.39 1840.31 1025C1846.07 995.136 1819.24 963.912 1808.14 945.648Z" fill="#FFA8A7"/>
<path d="M1711.34 709.815L1717.86 777.837L1778.68 774.075L1773.78 698.621L1711.34 709.815Z" fill="#FFA8A7"/>
<path d="M1833.29 768.184C1827.12 750.057 1814.53 739.634 1786.7 739.316L1776.46 739.634C1774.51 749.649 1744.74 757.761 1714.96 747.519C1702.11 748.812 1689.37 751.054 1676.85 754.226C1658.15 784.873 1647.41 819.703 1645.58 855.557C1644.81 875.36 1647.12 897.34 1651.29 938.352C1644.27 985.166 1627.86 1074.62 1617.35 1169.75C1621.59 1170.23 1625.88 1169.73 1629.89 1168.27C1633.9 1166.82 1637.52 1164.45 1640.46 1161.36C1647.21 1154.16 1654.83 1140.88 1662.57 1095.74C1662.57 1152.8 1677.08 1172.78 1696.93 1185.38C1713.18 1195.51 1732.12 1200.5 1751.26 1199.7C1825.72 1193.99 1840.04 1181.57 1849.74 1159.19C1859.98 1085.18 1860.57 1049.06 1855.13 1027.13C1849.69 1005.2 1838 986.978 1822.68 959.153C1816.25 947.325 1807.46 925.391 1809.09 918.639C1817.43 886.056 1830.93 854.56 1834.74 825.375C1837.73 800.994 1837.37 780.284 1833.29 768.184Z" fill="url(#paint11_linear_1206_9469)"/>
<g opacity="0.6">
<path d="M1833.29 768.184C1827.12 750.057 1814.53 739.634 1786.7 739.316L1776.46 739.634C1774.51 749.649 1744.74 757.761 1714.96 747.519C1702.11 748.812 1689.37 751.054 1676.85 754.226C1658.15 784.873 1647.41 819.703 1645.58 855.557C1644.81 875.36 1647.12 897.34 1651.29 938.352C1644.27 985.166 1627.86 1074.62 1617.35 1169.75C1621.59 1170.23 1625.88 1169.73 1629.89 1168.27C1633.9 1166.82 1637.52 1164.45 1640.46 1161.36C1647.21 1154.16 1654.83 1140.88 1662.57 1095.74C1662.57 1152.8 1677.08 1172.78 1696.93 1185.38C1713.18 1195.51 1732.12 1200.5 1751.26 1199.7C1825.72 1193.99 1840.04 1181.57 1849.74 1159.19C1859.98 1085.18 1860.57 1049.06 1855.13 1027.13C1849.69 1005.2 1838 986.978 1822.68 959.153C1816.25 947.325 1807.46 925.391 1809.09 918.639C1817.43 886.056 1830.93 854.56 1834.74 825.375C1837.73 800.994 1837.37 780.284 1833.29 768.184Z" fill="black"/>
</g>
<path d="M1676.85 754.227C1644.27 755.767 1629.9 786.901 1628.54 816.131C1626 870.104 1622.47 918.685 1614.95 941.525C1606.7 965.997 1553.9 1016.34 1537.91 1020.88C1521.91 1025.41 1500.75 1016.34 1495.08 1024.23C1489.42 1032.12 1512.3 1035.11 1513.21 1039.23C1514.11 1043.35 1484.39 1052.19 1467.53 1049.29C1450.67 1046.39 1454.97 1075.21 1480.26 1086.59C1505.55 1097.96 1538.36 1088.94 1568.95 1066.69C1599.54 1044.44 1655.42 999.94 1669.46 966.178C1683.57 933.359 1692.8 898.658 1696.88 863.171C1711.34 765.193 1676.85 754.227 1676.85 754.227Z" fill="#FFA8A7"/>
<path d="M1633.44 579.027C1632.91 575.831 1632.91 572.571 1633.44 569.375C1634.2 565.24 1635.84 561.319 1638.27 557.885C1640.69 554.451 1643.84 551.585 1647.48 549.485C1651.12 547.386 1655.18 546.104 1659.36 545.727C1663.55 545.351 1667.77 545.889 1671.73 547.305C1670.57 541.048 1671.52 534.582 1674.46 528.933C1677.39 523.284 1682.12 518.777 1687.91 516.126C1692.41 514.446 1697.2 513.677 1702 513.864C1706.8 514.05 1711.51 515.189 1715.87 517.214C1721.09 519.067 1725.44 522.799 1728.06 527.682C1731.11 522.458 1735.64 518.253 1741.08 515.6C1746.51 512.946 1752.62 511.962 1758.61 512.772C1764.61 513.581 1770.23 516.148 1774.77 520.148C1779.31 524.149 1782.56 529.404 1784.12 535.25C1793.18 533.166 1806.41 537.29 1810.58 546.489C1815.11 556.957 1809.5 569.873 1811.67 580.84C1813.08 587.91 1816.2 594.435 1817.43 601.777C1818.75 609.811 1819.5 617.927 1819.69 626.067C1821.01 659.648 1743.06 681.491 1744.6 704.512L1703.04 653.938C1703.04 651.853 1697.15 646.596 1695.84 644.874C1693.35 641.521 1691.31 637.94 1688.86 634.451C1681.66 624.331 1671.72 616.472 1660.22 611.792C1652.07 608.049 1645.01 602.275 1639.73 595.024C1636.4 590.263 1634.24 584.782 1633.44 579.027Z" fill="#263238"/>
<path d="M1666.25 635.176C1666.25 635.176 1652.65 655.206 1654.51 657.291C1657.66 659.392 1661.16 660.926 1664.84 661.823L1666.25 635.176Z" fill="#F28F8F"/>
<path d="M1707.39 571.776C1694.3 578.438 1671.68 590.719 1665.84 638.121C1659.9 686.747 1670.91 703.651 1677.67 710.041C1682.2 714.573 1705.72 715.887 1717.95 712.171C1733.32 707.639 1766.53 691.324 1782.12 666.218C1800.25 636.671 1804.24 597.335 1783.08 581.882C1753.3 560.175 1718.45 566.157 1707.39 571.776Z" fill="#FFA8A7"/>
<path d="M1678.75 710.902C1684.28 713.938 1699.92 715.433 1711.56 713.485L1711.2 704.738C1706.21 706.92 1701.02 708.619 1695.7 709.814C1690.14 711.016 1684.43 711.382 1678.75 710.902Z" fill="#F28F8F"/>
<path d="M1701.64 570.371C1696.09 572.374 1690.94 575.335 1686.41 579.117C1684.15 581.025 1682.31 583.387 1681.02 586.051C1680 588.531 1679.63 591.228 1679.93 593.891C1680.31 597.532 1681.65 601.01 1683.79 603.976C1685.94 606.942 1688.83 609.293 1692.17 610.794C1690.41 613.196 1689.2 615.955 1688.63 618.877C1688.06 621.799 1688.13 624.81 1688.86 627.698C1691.26 634.415 1695.39 640.385 1700.82 645.009C1701.11 645.305 1701.45 645.55 1701.82 645.734C1702.21 645.792 1702.61 645.76 1702.99 645.643C1703.36 645.525 1703.71 645.324 1704 645.055C1712.2 639.571 1717.27 630.1 1728.92 633.906C1744.15 638.891 1743.42 657.744 1731.46 669.481C1727.18 673.773 1721.54 676.434 1715.51 677.004C1712.44 677.06 1709.46 675.997 1707.12 674.013C1707.12 674.013 1707.53 698.575 1728.87 708.318C1728.87 708.318 1752.62 715.886 1774.46 708.862C1782.49 698.62 1795.99 685.569 1807.09 673.877C1843.71 635.447 1845.79 579.525 1791.82 561.896C1789.96 561.262 1788.11 560.718 1786.2 560.22C1768.84 555.701 1750.67 555.313 1733.13 559.087C1724.41 560.946 1715.92 563.805 1707.85 567.606C1705.94 568.603 1703.68 569.464 1701.64 570.371Z" fill="#263238"/>
<path d="M1699.92 662.14C1698.5 661.653 1697.2 660.889 1696.08 659.893C1694.97 658.897 1694.06 657.69 1693.42 656.34C1692.77 654.991 1692.4 653.527 1692.33 652.033C1692.25 650.539 1692.48 649.045 1692.98 647.639C1694.06 644.806 1696.21 642.508 1698.96 641.238C1701.72 639.967 1704.86 639.825 1707.71 640.841L1699.92 662.14Z" fill="#263238"/>
<defs>
<linearGradient id="paint0_linear_1206_9469" x1="206.296" y1="1343.57" x2="468.224" y2="1343.57" gradientUnits="userSpaceOnUse">
<stop stop-color="#0052D4"/>
<stop offset="0.5" stop-color="#4364F7"/>
<stop offset="1" stop-color="#6FB1FC"/>
</linearGradient>
<linearGradient id="paint1_linear_1206_9469" x1="180.861" y1="1499.04" x2="456.411" y2="1499.04" gradientUnits="userSpaceOnUse">
<stop stop-color="#0052D4"/>
<stop offset="0.5" stop-color="#4364F7"/>
<stop offset="1" stop-color="#6FB1FC"/>
</linearGradient>
<linearGradient id="paint2_linear_1206_9469" x1="774.618" y1="1483.91" x2="840.873" y2="1483.91" gradientUnits="userSpaceOnUse">
<stop stop-color="#0052D4"/>
<stop offset="0.5" stop-color="#4364F7"/>
<stop offset="1" stop-color="#6FB1FC"/>
</linearGradient>
<linearGradient id="paint3_linear_1206_9469" x1="521.155" y1="882.383" x2="1082.28" y2="882.383" gradientUnits="userSpaceOnUse">
<stop stop-color="#0052D4"/>
<stop offset="0.5" stop-color="#4364F7"/>
<stop offset="1" stop-color="#6FB1FC"/>
</linearGradient>
<linearGradient id="paint4_linear_1206_9469" x1="775.841" y1="738.455" x2="1049.97" y2="738.455" gradientUnits="userSpaceOnUse">
<stop stop-color="#0052D4"/>
<stop offset="0.5" stop-color="#4364F7"/>
<stop offset="1" stop-color="#6FB1FC"/>
</linearGradient>
<linearGradient id="paint5_linear_1206_9469" x1="724.904" y1="1026.72" x2="1081.19" y2="1026.72" gradientUnits="userSpaceOnUse">
<stop stop-color="#0052D4"/>
<stop offset="0.5" stop-color="#4364F7"/>
<stop offset="1" stop-color="#6FB1FC"/>
</linearGradient>
<linearGradient id="paint6_linear_1206_9469" x1="724.904" y1="1139.74" x2="1081.19" y2="1139.74" gradientUnits="userSpaceOnUse">
<stop stop-color="#0052D4"/>
<stop offset="0.5" stop-color="#4364F7"/>
<stop offset="1" stop-color="#6FB1FC"/>
</linearGradient>
<linearGradient id="paint7_linear_1206_9469" x1="834.573" y1="1275.43" x2="1010.77" y2="1275.43" gradientUnits="userSpaceOnUse">
<stop stop-color="#0052D4"/>
<stop offset="0.5" stop-color="#4364F7"/>
<stop offset="1" stop-color="#6FB1FC"/>
</linearGradient>
<linearGradient id="paint8_linear_1206_9469" x1="1182.21" y1="1044.65" x2="1231.15" y2="1044.65" gradientUnits="userSpaceOnUse">
<stop stop-color="#0052D4"/>
<stop offset="0.5" stop-color="#4364F7"/>
<stop offset="1" stop-color="#6FB1FC"/>
</linearGradient>
<linearGradient id="paint9_linear_1206_9469" x1="1660.26" y1="401.947" x2="1699.83" y2="401.947" gradientUnits="userSpaceOnUse">
<stop stop-color="#0052D4"/>
<stop offset="0.5" stop-color="#4364F7"/>
<stop offset="1" stop-color="#6FB1FC"/>
</linearGradient>
<linearGradient id="paint10_linear_1206_9469" x1="1597.27" y1="304.696" x2="1787.52" y2="304.696" gradientUnits="userSpaceOnUse">
<stop stop-color="#0052D4"/>
<stop offset="0.5" stop-color="#4364F7"/>
<stop offset="1" stop-color="#6FB1FC"/>
</linearGradient>
<linearGradient id="paint11_linear_1206_9469" x1="1617.35" y1="969.55" x2="1858.53" y2="969.55" gradientUnits="userSpaceOnUse">
<stop stop-color="#0052D4"/>
<stop offset="0.5" stop-color="#4364F7"/>
<stop offset="1" stop-color="#6FB1FC"/>
</linearGradient>
</defs>
</svg>
