<svg width="41" height="42" viewBox="0 0 41 42" fill="none" xmlns="http://www.w3.org/2000/svg">
<rect x="0.5" y="0.923828" width="40.4615" height="40.4615" rx="2.92308" fill="#1890FF" fill-opacity="0.08"/>
<path d="M27.3975 14.4883H14.0641C13.1475 14.4883 12.3975 15.2383 12.3975 16.1549V26.1549C12.3975 27.0716 13.1475 27.8216 14.0641 27.8216H27.3975C28.3141 27.8216 29.0641 27.0716 29.0641 26.1549V16.1549C29.0641 15.2383 28.3141 14.4883 27.3975 14.4883ZM27.0641 18.0299L21.6141 21.4383C21.0725 21.7799 20.3891 21.7799 19.8475 21.4383L14.3975 18.0299C14.1891 17.8966 14.0641 17.6716 14.0641 17.4299C14.0641 16.8716 14.6725 16.5383 15.1475 16.8299L20.7308 20.3216L26.3141 16.8299C26.7891 16.5383 27.3975 16.8716 27.3975 17.4299C27.3975 17.6716 27.2725 17.8966 27.0641 18.0299Z" fill="#0052D4"/>
</svg>
