<svg width="70" height="70" viewBox="0 0 70 70" fill="none" xmlns="http://www.w3.org/2000/svg">
<rect width="70" height="70" rx="12" fill="url(#paint0_linear_617_6071)"/>
<path d="M49.8758 44.7074H20.1258C19.9589 44.7074 19.8223 44.844 19.8223 45.011V48.0467C19.8223 48.2137 19.9589 48.3503 20.1258 48.3503H49.8758C50.0428 48.3503 50.1794 48.2137 50.1794 48.0467V45.011C50.1794 44.844 50.0428 44.7074 49.8758 44.7074ZM48.9158 21.636H21.0859C20.3877 21.636 19.8223 22.1786 19.8223 22.8503V40.4574C19.8223 41.1291 20.3877 41.6717 21.0859 41.6717H48.912C49.6102 41.6717 50.1756 41.1291 50.1756 40.4574V22.8503C50.1794 22.1786 49.614 21.636 48.9158 21.636ZM29.233 38.9396H22.5544V32.8681H29.233V38.9396ZM29.233 30.4396H22.5544V24.3681H29.233V30.4396ZM38.3401 38.9396H31.6616V32.8681H38.3401V38.9396ZM38.3401 30.4396H31.6616V24.3681H38.3401V30.4396ZM47.4473 38.9396H40.7687V32.8681H47.4473V38.9396ZM47.4473 30.4396H40.7687V24.3681H47.4473V30.4396Z" fill="white"/>
<defs>
<linearGradient id="paint0_linear_617_6071" x1="-7.29166" y1="-7.58789" x2="42.3162" y2="92.9918" gradientUnits="userSpaceOnUse">
<stop stop-color="#2874F4"/>
<stop offset="0.5" stop-color="#4364F7"/>
<stop offset="1" stop-color="#312FB1"/>
</linearGradient>
</defs>
</svg>
