<svg width="70" height="70" viewBox="0 0 70 70" fill="none" xmlns="http://www.w3.org/2000/svg">
<rect width="70" height="70" rx="12" fill="url(#paint0_linear_617_6148)"/>
<g clip-path="url(#clip0_617_6148)">
<path d="M47.9929 45.9627C48.0004 45.9513 48.0118 45.94 48.0194 45.9286C50.5049 42.9725 52 39.1627 52 35C52 30.8373 50.5049 27.0275 48.0232 24.0714C48.0156 24.06 48.0042 24.0525 47.9967 24.0411C47.9549 23.9917 47.917 23.9462 47.8752 23.9007C47.86 23.8817 47.8449 23.8665 47.8297 23.8475L47.6741 23.6692L47.6703 23.6654C47.6134 23.6009 47.5527 23.5364 47.4958 23.4719L47.492 23.4681C47.3705 23.3391 47.2491 23.21 47.1239 23.0848L47.1201 23.081L46.9379 22.8989L46.9266 22.8875C46.8696 22.8306 46.8127 22.7775 46.7558 22.7243C46.7368 22.7054 46.7179 22.6864 46.6951 22.6674C46.6571 22.6295 46.6192 22.5953 46.5813 22.5612C46.5699 22.5498 46.5547 22.5384 46.5433 22.5232C43.5152 19.7152 39.4587 18 35 18C30.5413 18 26.4848 19.7152 23.4529 22.5232C23.4415 22.5346 23.4263 22.546 23.415 22.5612C23.377 22.5953 23.3391 22.6333 23.3011 22.6712C23.2821 22.6902 23.2632 22.7092 23.2404 22.7281C23.1835 22.7813 23.1266 22.8382 23.0696 22.8913L23.0583 22.9027L22.8761 23.0848L22.8723 23.0886C22.7471 23.2138 22.6257 23.3429 22.5042 23.4719L22.5004 23.4757C22.4397 23.5402 22.3828 23.6047 22.3259 23.6692L22.3221 23.673C22.269 23.7299 22.2158 23.7906 22.1665 23.8513C22.1513 23.8703 22.1362 23.8855 22.121 23.9045C22.0792 23.95 22.0413 23.9993 21.9996 24.0449C21.992 24.0563 21.9806 24.0638 21.973 24.0752C19.4951 27.0275 18 30.8373 18 35C18 39.1627 19.4951 42.9725 21.9768 45.9286C21.9844 45.94 21.9958 45.9513 22.0033 45.9627L22.121 46.1031C22.1362 46.1221 22.1513 46.1373 22.1665 46.1562L22.3221 46.3346C22.3221 46.3384 22.3259 46.3384 22.3259 46.3422C22.3828 46.4067 22.4397 46.4712 22.5004 46.5319L22.5042 46.5357C22.6257 46.6647 22.7471 46.7937 22.8685 46.919L22.8723 46.9228C22.933 46.9835 22.99 47.0442 23.0507 47.1011L23.0621 47.1125C23.1873 47.2377 23.3163 47.3592 23.4453 47.4768C26.4848 50.2848 30.5413 52 35 52C39.4587 52 43.5152 50.2848 46.5471 47.4768C46.6764 47.3583 46.8029 47.2368 46.9266 47.1125L46.9379 47.1011C46.9987 47.0404 47.0594 46.9835 47.1163 46.9228L47.1201 46.919C47.2453 46.7937 47.3667 46.6647 47.4844 46.5357L47.4882 46.5319C47.5451 46.4674 47.6058 46.4067 47.6627 46.3422C47.6627 46.3384 47.6665 46.3384 47.6665 46.3346C47.7196 46.2777 47.7728 46.217 47.8221 46.1562C47.8373 46.1373 47.8525 46.1221 47.8676 46.1031C47.9105 46.0574 47.9523 46.0106 47.9929 45.9627ZM48.1484 40.5516C47.6248 41.7886 46.9342 42.9346 46.0917 43.9743C45.143 43.1544 44.1057 42.4429 42.9991 41.8531C43.4393 40.0734 43.7125 38.1192 43.7846 36.0625H49.2299C49.1161 37.6145 48.7518 39.121 48.1484 40.5516ZM49.2299 33.9375H43.7846C43.7125 31.8808 43.4393 29.9266 42.9991 28.1469C44.1109 27.5549 45.1469 26.8415 46.0917 26.0257C47.9229 28.2796 49.0183 31.0412 49.2299 33.9375ZM40.5516 21.8516C42.058 22.4891 43.4279 23.3694 44.6346 24.4775C43.9336 25.0743 43.1791 25.6053 42.3806 26.0636C41.7848 24.356 41.0221 22.8723 40.1342 21.6846C40.2746 21.7377 40.415 21.7946 40.5516 21.8516ZM37.1136 48.4368C36.7645 48.71 36.4154 48.9188 36.0625 49.0592V42.0201C37.5682 42.1251 39.0489 42.4604 40.4529 43.0143C40.1379 43.9478 39.7737 44.8092 39.3525 45.5871C38.6922 46.8165 37.9181 47.7993 37.1136 48.4368ZM39.3525 24.4129C39.7699 25.1946 40.1379 26.056 40.4529 26.9857C39.0489 27.5396 37.5682 27.8749 36.0625 27.9799V20.9446C36.4116 21.085 36.7645 21.29 37.1136 21.567C37.9181 22.2007 38.6922 23.1835 39.3525 24.4129ZM36.0625 39.8913V36.0625H41.6596C41.5989 37.7397 41.3902 39.3676 41.0411 40.9121L41.0297 40.9576C39.4372 40.3537 37.7625 39.9942 36.0625 39.8913ZM36.0625 33.9375V30.1087C37.8004 30.0025 39.4701 29.6344 41.0297 29.0424L41.0411 29.0879C41.3902 30.6324 41.5989 32.2565 41.6596 33.9375H36.0625ZM33.9375 36.0625V39.8913C32.1996 39.9975 30.5299 40.3656 28.9703 40.9576L28.9589 40.9121C28.6098 39.3676 28.4011 37.7435 28.3404 36.0625H33.9375ZM28.3404 33.9375C28.4011 32.2603 28.6098 30.6324 28.9589 29.0879L28.9703 29.0424C30.5299 29.6344 32.1958 30.0025 33.9375 30.1087V33.9375H28.3404ZM33.9375 42.0201V49.0554C33.5884 48.915 33.2355 48.71 32.8864 48.433C32.0819 47.7993 31.304 46.8127 30.6438 45.5833C30.2263 44.8016 29.8583 43.9402 29.5433 43.0105C30.9549 42.4565 32.4234 42.1263 33.9375 42.0201ZM33.9375 27.9799C32.4318 27.8749 30.9511 27.5396 29.5471 26.9857C29.8621 26.0522 30.2263 25.1908 30.6475 24.4129C31.3078 23.1835 32.0819 22.1969 32.8902 21.5632C33.2393 21.29 33.5884 21.0812 33.9413 20.9408V27.9799H33.9375ZM29.4484 21.8516C29.5888 21.7946 29.7254 21.7377 29.8658 21.6846C28.9779 22.8723 28.2152 24.356 27.6194 26.0636C26.8225 25.6083 26.0674 25.077 25.3654 24.4775C26.5721 23.3694 27.942 22.4891 29.4484 21.8516ZM21.8516 29.4484C22.3752 28.2114 23.0658 27.0654 23.9083 26.0257C24.8531 26.8415 25.8891 27.5549 27.0009 28.1469C26.5607 29.9266 26.2875 31.8808 26.2154 33.9375H20.7701C20.8839 32.3855 21.2482 30.879 21.8516 29.4484ZM20.7701 36.0625H26.2154C26.2875 38.1192 26.5607 40.0734 27.0009 41.8531C25.8943 42.4429 24.857 43.1544 23.9083 43.9743C22.0771 41.7204 20.9817 38.9588 20.7701 36.0625ZM29.4484 48.1484C27.942 47.5109 26.5721 46.6306 25.3654 45.5225C26.0674 44.923 26.8225 44.3955 27.6194 43.9364C28.2152 45.644 28.9779 47.1277 29.8658 48.3154C29.7254 48.2623 29.585 48.2054 29.4484 48.1484ZM40.5516 48.1484C40.4112 48.2054 40.2746 48.2623 40.1342 48.3154C41.0221 47.1277 41.7848 45.644 42.3806 43.9364C43.1775 44.3917 43.9326 44.923 44.6346 45.5225C43.4346 46.626 42.0534 47.5143 40.5516 48.1484Z" fill="white"/>
</g>
<defs>
<linearGradient id="paint0_linear_617_6148" x1="-7.29166" y1="-7.58789" x2="42.3162" y2="92.9918" gradientUnits="userSpaceOnUse">
<stop stop-color="#2874F4"/>
<stop offset="0.5" stop-color="#4364F7"/>
<stop offset="1" stop-color="#312FB1"/>
</linearGradient>
<clipPath id="clip0_617_6148">
<rect width="34" height="34" fill="white" transform="translate(18 18)"/>
</clipPath>
</defs>
</svg>
