<svg width="326" height="105" viewBox="0 0 326 105" fill="none" xmlns="http://www.w3.org/2000/svg">
<g filter="url(#filter0_dddd_368_20)">
<path fill-rule="evenodd" clip-rule="evenodd" d="M71.2868 33.2139H90.3905C91.066 33.2139 91.6137 32.6663 91.6137 31.9907C91.6137 31.3152 91.0661 30.7675 90.3905 30.7675H72.9891L71.2868 33.2139ZM70.0283 30.7675H42.2231C41.5476 30.7675 41 31.3152 41 31.9907C41 32.6663 41.5476 33.2139 42.2231 33.2139H68.3306L70.0283 30.7675Z" fill="#0C71D1"/>
<path fill-rule="evenodd" clip-rule="evenodd" d="M70.2201 30.7675H72.7682L56.8345 53.6638C56.2919 53.397 55.4381 52.9378 55.0059 52.6898L70.2201 30.7675Z" fill="#0C71D1"/>
<mask id="mask0_368_20" style="mask-type:alpha" maskUnits="userSpaceOnUse" x="60" y="29" width="12" height="12">
<path d="M66.2551 29.352C66.2738 29.3224 66.317 29.3224 66.3356 29.352L67.1068 30.5764C67.1213 30.5995 67.1522 30.6057 67.1745 30.5899L68.3684 29.7458C68.3971 29.7255 68.4372 29.7423 68.4428 29.777L68.674 31.1937C68.6785 31.2209 68.705 31.2386 68.7318 31.2324L70.1652 30.898C70.1998 30.8899 70.2307 30.9212 70.2222 30.9557L69.88 32.3484C69.8733 32.3755 69.8913 32.4025 69.9189 32.4068L71.3722 32.632C71.4076 32.6375 71.4244 32.6787 71.403 32.7074L70.5405 33.8656C70.5237 33.8882 70.5301 33.9204 70.5543 33.9349L71.8066 34.6837C71.8375 34.7021 71.8375 34.7469 71.8066 34.7653L70.5543 35.5141C70.5301 35.5286 70.5237 35.5608 70.5405 35.5834L71.403 36.7416C71.4244 36.7703 71.4076 36.8115 71.3722 36.817L69.9189 37.0422C69.8913 37.0465 69.8733 37.0735 69.88 37.1006L70.2222 38.4933C70.2307 38.5278 70.1998 38.5591 70.1652 38.551L68.7318 38.2166C68.705 38.2104 68.6785 38.2281 68.674 38.2553L68.4428 39.672C68.4372 39.7067 68.3971 39.7235 68.3684 39.7032L67.1745 38.8591C67.1522 38.8433 67.1213 38.8495 67.1068 38.8726L66.3356 40.097C66.317 40.1266 66.2738 40.1266 66.2551 40.097L65.484 38.8726C65.4694 38.8495 65.4385 38.8433 65.4162 38.8591L64.2223 39.7032C64.1936 39.7235 64.1536 39.7067 64.1479 39.672L63.9167 38.2553C63.9123 38.2281 63.8858 38.2104 63.8589 38.2166L62.4256 38.551C62.391 38.5591 62.3601 38.5278 62.3685 38.4933L62.7108 37.1006C62.7174 37.0735 62.6994 37.0465 62.6719 37.0422L61.2186 36.817C61.1832 36.8115 61.1663 36.7703 61.1877 36.7416L62.0502 35.5834C62.067 35.5608 62.0607 35.5286 62.0365 35.5141L60.7841 34.7653C60.7532 34.7469 60.7532 34.7021 60.7841 34.6837L62.0365 33.9349C62.0607 33.9204 62.067 33.8882 62.0502 33.8656L61.1877 32.7074C61.1663 32.6787 61.1832 32.6375 61.2186 32.632L62.6719 32.4068C62.6994 32.4025 62.7174 32.3755 62.7108 32.3484L62.3685 30.9557C62.3601 30.9212 62.391 30.8899 62.4256 30.898L63.8589 31.2324C63.8858 31.2386 63.9123 31.2209 63.9167 31.1937L64.1479 29.777C64.1536 29.7423 64.1936 29.7255 64.2223 29.7458L65.4162 30.5899C65.4385 30.6057 65.4694 30.5995 65.484 30.5764L66.2551 29.352Z" fill="#FF0C16"/>
</mask>
<g mask="url(#mask0_368_20)">
<path d="M60.7161 34.7243C60.7161 36.1661 61.304 37.5489 62.3503 38.5684C63.3967 39.5879 64.8158 40.1606 66.2956 40.1606C67.7754 40.1606 69.1945 39.5879 70.2409 38.5684C71.2872 37.5489 71.8751 36.1661 71.8751 34.7243L66.2956 34.7243H60.7161Z" fill="#FF3841"/>
</g>
<mask id="mask1_368_20" style="mask-type:alpha" maskUnits="userSpaceOnUse" x="65" y="5" width="16" height="22">
<path d="M74.3335 14.0642H77.4288V17.0801H74.3335V20.096H77.4288V23.1119H74.3335V26.1277H80.5241V5.01663H66.5954L65.5924 6.4275L74.3335 12.5111V14.0642ZM74.3335 8.0325H77.4288V11.0484H74.3335V8.0325Z" fill="#0070CF"/>
</mask>
<g mask="url(#mask1_368_20)">
<path d="M71.9155 8.01959H68.8202V11.0355H71.9155V8.01959Z" fill="url(#paint0_linear_368_20)"/>
</g>
<path d="M63.8922 2.00086C63.6749 2.00086 63.4988 2.17698 63.4988 2.39425V4.76672C63.4988 4.89506 63.5614 5.01533 63.6665 5.08895L64.9845 6.01196L65.9766 6.69972C66.2374 6.88059 66.5941 6.69388 66.5941 6.37643V5.41012C66.5941 5.19285 66.7702 5.01673 66.9875 5.01673H80.1294C80.3467 5.01673 80.5228 5.19285 80.5228 5.41012V25.7344C80.5228 25.9517 80.3467 26.1278 80.1294 26.1278H73.4769C73.2597 26.1278 73.0835 26.3039 73.0835 26.5212V27.6681V28.7503C73.0835 28.9676 73.2597 29.1437 73.4769 29.1437H83.2247C83.442 29.1437 83.6181 28.9676 83.6181 28.7503V2.39425C83.6181 2.17698 83.442 2.00086 83.2247 2.00086H63.8922Z" fill="url(#paint1_linear_368_20)"/>
<path d="M77.4278 8.03254H74.3325V11.0484H77.4278V8.03254Z" fill="url(#paint2_linear_368_20)"/>
<path d="M77.4278 14.0642H74.3325V17.0801H77.4278V14.0642Z" fill="url(#paint3_linear_368_20)"/>
<path d="M77.4278 20.096H74.3325V23.1119H77.4278V20.096Z" fill="url(#paint4_linear_368_20)"/>
<path d="M48.5438 13.9468C48.4382 14.0204 48.3752 14.141 48.3752 14.2697V28.7502C48.3752 28.9675 48.5513 29.1436 48.7685 29.1436H57.2676C57.4849 29.1436 57.661 28.9675 57.661 28.7502V21.9973C57.661 21.78 57.8371 21.6039 58.0544 21.6039H60.3629C60.5801 21.6039 60.7563 21.78 60.7563 21.9973V28.7502C60.7563 28.9675 60.9324 29.1436 61.1496 29.1436H69.6487C69.866 29.1436 70.0421 28.9675 70.0421 28.7502V14.2697C70.0421 14.141 69.9791 14.0204 69.8734 13.9468L59.4333 6.68093C59.2983 6.58693 59.119 6.58693 58.9839 6.68093L48.5438 13.9468ZM66.9468 25.7343C66.9468 25.9516 66.7707 26.1277 66.5534 26.1277H64.2449C64.0277 26.1277 63.8515 25.9516 63.8515 25.7343V18.9814C63.8515 18.7642 63.6754 18.588 63.4581 18.588H54.9591C54.7418 18.588 54.5657 18.7642 54.5657 18.9814V25.7343C54.5657 25.9516 54.3896 26.1277 54.1723 26.1277H51.8638C51.6466 26.1277 51.4704 25.9516 51.4704 25.7343V15.78C51.4704 15.65 51.5347 15.5283 51.6422 15.455L58.987 10.4456C59.1207 10.3544 59.2966 10.3544 59.4303 10.4456L66.7751 15.455C66.8825 15.5283 66.9468 15.65 66.9468 15.78V25.7343Z" fill="url(#paint5_linear_368_20)"/>
<path opacity="0.3" fill-rule="evenodd" clip-rule="evenodd" d="M63.8933 2.00011C63.6761 2.00011 63.4999 2.17623 63.4999 2.39349V4.76597C63.4999 4.89431 63.5625 5.01458 63.6677 5.0882L64.9857 6.01121L65.9777 6.69897C66.2386 6.87983 66.5952 6.69312 66.5952 6.37567V5.40936C66.5952 5.1921 66.7713 5.01598 66.9886 5.01598H80.1306C80.3478 5.01598 80.5239 5.1921 80.5239 5.40936V25.7337C80.5239 25.9509 80.3478 26.1271 80.1306 26.1271H73.478C73.2608 26.1271 73.0847 26.3032 73.0847 26.5205V27.6674V28.7495C73.0847 28.9668 73.2608 29.1429 73.478 29.1429H83.2258C83.4431 29.1429 83.6192 28.9668 83.6192 28.7495V2.39349C83.6192 2.17623 83.4431 2.00011 83.2258 2.00011H63.8933Z" fill="url(#paint6_linear_368_20)"/>
<path opacity="0.3" fill-rule="evenodd" clip-rule="evenodd" d="M65.9792 6.70232C66.2397 6.87765 66.592 6.69129 66.592 6.37577V5.40946C66.592 5.19219 66.7681 5.01607 66.9854 5.01607H80.1273C80.3446 5.01607 80.5207 5.19219 80.5207 5.40946V25.7338C80.5207 25.951 80.3446 26.1272 80.1273 26.1272H73.4748C73.2691 26.1272 73.1003 26.285 73.0829 26.4862L73.0951 23.1014V17.0697L73.0829 11.6321L65.9792 6.70232Z" fill="url(#paint7_linear_368_20)"/>
<path opacity="0.3" d="M66.9468 25.7344C66.9468 25.9517 66.7707 26.1278 66.5534 26.1278H64.2449C64.0277 26.1278 63.8515 25.9517 63.8515 25.7344V18.9815C63.8515 18.7643 63.6754 18.5881 63.4581 18.5881H54.9591C54.7418 18.5881 54.5657 18.7643 54.5657 18.9815V25.7344C54.5657 25.9517 54.3896 26.1278 54.1723 26.1278H51.8638C51.6466 26.1278 51.4704 25.9517 51.4704 25.7344V15.7801C51.4704 15.6501 51.5347 15.5284 51.6422 15.4551L58.987 10.4457C59.1207 10.3545 59.2966 10.3545 59.4303 10.4457L66.7751 15.4551C66.8825 15.5284 66.9468 15.6501 66.9468 15.7801V25.7344Z" fill="url(#paint8_linear_368_20)"/>
<path fill-rule="evenodd" clip-rule="evenodd" d="M49.0159 35.0509C49.0125 34.8771 49.1537 34.7361 49.3275 34.7361H51.9932C52.167 34.7361 52.3075 34.8771 52.3116 35.0508C52.3707 37.5508 53.1333 39.969 54.4912 42.0518L58.9809 35.8043C59.2142 37.3247 59.9414 38.7433 61.0706 39.8435C61.5982 40.3576 62.1972 40.7862 62.8449 41.1201L60.0671 45.1229C59.1657 44.6084 58.3276 43.9803 57.5762 43.2483C57.51 43.1838 57.4446 43.1186 57.3801 43.0528L56.418 44.3916C59.0429 46.9443 62.6002 48.3782 66.3092 48.3782C70.0226 48.3782 73.5838 46.9409 76.2096 44.3825C78.7591 41.8984 80.2239 38.5549 80.3068 35.0508C80.3109 34.8771 80.4514 34.7361 80.6252 34.7361L83.2908 34.7361C83.4646 34.7361 83.6058 34.8771 83.6025 35.0509C83.5336 38.6503 82.2842 42.116 80.0649 44.9526L82.6323 48.5252C82.2977 48.9011 81.9491 49.2658 81.587 49.6186C79.5812 51.573 77.2 53.1232 74.5793 54.1809C71.9586 55.2386 69.1498 55.783 66.3132 55.783C63.4765 55.783 60.6677 55.2386 58.047 54.1809C57.6973 54.0398 57.3519 53.8899 57.0111 53.7314L58.2387 51.9672C58.4485 52.0605 58.6602 52.1503 58.8736 52.2365C61.2322 53.1884 63.7602 53.6783 66.3132 53.6783C68.8661 53.6783 71.3941 53.1884 73.7527 52.2365C75.7741 51.4207 77.6371 50.2793 79.2649 48.8624L78.0236 47.1351C74.8372 49.9933 70.6576 51.5887 66.3092 51.5887C61.7219 51.5887 57.3225 49.8132 54.0788 46.6527C50.9114 43.5665 49.0993 39.4066 49.0159 35.0509ZM66.3122 46.774C64.9357 46.774 63.5829 46.5502 62.3051 46.1232L65.2542 41.885C65.6026 41.934 65.9561 41.959 66.3122 41.959C68.2782 41.959 70.1636 41.198 71.5538 39.8435C72.64 38.7851 73.3543 37.4321 73.6147 35.9772L77.0282 40.727C76.4899 41.6412 75.8263 42.4901 75.0482 43.2483C72.7312 45.5058 69.5888 46.774 66.3122 46.774ZM54.8821 52.5943L56.0929 50.8495C54.8165 50.0809 53.6327 49.1691 52.5667 48.1304C52.0811 47.6573 51.6225 47.1604 51.1926 46.6419L49.9086 48.4286C50.2691 48.8386 50.6462 49.2356 51.0393 49.6186C52.2028 50.7522 53.4925 51.7499 54.8821 52.5943ZM56.1644 34.7364H54.0528C54.0003 34.7364 53.9576 34.7791 53.9581 34.8316C53.9651 35.6976 54.0678 36.5534 54.2605 37.3856L56.1644 34.7364ZM49.4236 44.1163C49.022 43.4299 48.6641 42.7183 48.3525 41.9853C47.4168 39.7841 46.916 37.4316 46.8754 35.0513C46.8724 34.8775 46.7318 34.7366 46.558 34.7366H45.0274C44.8535 34.7366 44.7124 34.8775 44.7151 35.0513C44.7558 37.708 45.3126 40.3342 46.3569 42.7907C46.8327 43.9099 47.4056 44.9842 48.068 46.0026L49.4236 44.1163ZM83.1331 44.2344L84.4846 46.1152C85.1783 45.0635 85.7761 43.9512 86.2694 42.7907C87.3137 40.3342 87.8705 37.708 87.9113 35.0513C87.9139 34.8775 87.7728 34.7366 87.599 34.7366L86.0683 34.7366C85.8945 34.7366 85.7539 34.8775 85.7509 35.0513C85.7103 37.4316 85.2096 39.7841 84.2738 41.9853C83.9443 42.7604 83.563 43.5117 83.1331 44.2344ZM76.3074 34.7364L78.3258 37.5451C78.543 36.6629 78.6589 35.753 78.6663 34.8316C78.6668 34.7791 78.6241 34.7364 78.5716 34.7364L76.3074 34.7364Z" fill="url(#paint9_linear_368_20)"/>
</g>
<path d="M117.092 51.7126C115.252 51.7126 113.492 51.4526 111.812 50.9326C110.132 50.4126 108.592 49.6326 107.192 48.5926C105.792 47.5526 104.572 46.2926 103.532 44.8126C102.492 43.2926 101.672 41.5326 101.072 39.5326L108.692 36.5326C109.252 38.6926 110.232 40.4926 111.632 41.9326C113.032 43.3326 114.872 44.0326 117.152 44.0326C117.992 44.0326 118.792 43.9326 119.552 43.7326C120.352 43.4926 121.052 43.1726 121.652 42.7726C122.292 42.3326 122.792 41.7926 123.152 41.1526C123.512 40.5126 123.692 39.7726 123.692 38.9326C123.692 38.1326 123.552 37.4126 123.272 36.7726C122.992 36.1326 122.512 35.5326 121.832 34.9726C121.192 34.4126 120.332 33.8726 119.252 33.3526C118.212 32.8326 116.912 32.2926 115.352 31.7326L112.712 30.7726C111.552 30.3726 110.372 29.8326 109.172 29.1526C108.012 28.4726 106.952 27.6526 105.992 26.6926C105.032 25.7326 104.232 24.6126 103.592 23.3326C102.992 22.0126 102.692 20.5326 102.692 18.8926C102.692 17.2126 103.012 15.6526 103.652 14.2126C104.332 12.7326 105.272 11.4526 106.472 10.3726C107.712 9.25257 109.172 8.39257 110.852 7.79257C112.572 7.15256 114.472 6.83256 116.552 6.83256C118.712 6.83256 120.572 7.13257 122.132 7.73257C123.732 8.29257 125.072 9.03257 126.152 9.95257C127.272 10.8326 128.172 11.8126 128.852 12.8926C129.532 13.9726 130.032 14.9926 130.352 15.9526L123.212 18.9526C122.812 17.7526 122.072 16.6726 120.992 15.7126C119.952 14.7526 118.512 14.2726 116.672 14.2726C114.912 14.2726 113.452 14.6926 112.292 15.5326C111.132 16.3326 110.552 17.3926 110.552 18.7126C110.552 19.9926 111.112 21.0926 112.232 22.0126C113.352 22.8926 115.132 23.7526 117.572 24.5926L120.272 25.4926C121.992 26.0926 123.552 26.7926 124.952 27.5926C126.392 28.3526 127.612 29.2726 128.612 30.3526C129.652 31.4326 130.432 32.6726 130.952 34.0726C131.512 35.4326 131.792 37.0126 131.792 38.8126C131.792 41.0526 131.332 42.9926 130.412 44.6326C129.532 46.2326 128.392 47.5526 126.992 48.5926C125.592 49.6326 124.012 50.4126 122.252 50.9326C120.492 51.4526 118.772 51.7126 117.092 51.7126ZM135.163 7.79257H143.263V24.9526H161.323V7.79257H169.423V50.7526H161.323V32.6326H143.263V50.7526H135.163V7.79257ZM187.294 7.79257H196.534L212.674 50.7526H203.734L200.194 40.4926H183.634L180.094 50.7526H171.154L187.294 7.79257ZM197.554 33.0526L193.714 22.3126L192.154 17.0926H191.674L190.114 22.3126L186.274 33.0526H197.554ZM214.403 7.79257H228.923C232.323 7.79257 235.383 8.31257 238.103 9.35256C240.823 10.3926 243.143 11.8726 245.063 13.7926C246.983 15.6726 248.443 17.9326 249.443 20.5726C250.483 23.2126 251.003 26.1126 251.003 29.2726C251.003 32.4726 250.483 35.3926 249.443 38.0326C248.443 40.6726 246.983 42.9326 245.063 44.8126C243.143 46.6926 240.823 48.1526 238.103 49.1926C235.383 50.2326 232.323 50.7526 228.923 50.7526H214.403V7.79257ZM228.563 43.0726C230.923 43.0726 233.003 42.7526 234.803 42.1126C236.603 41.4326 238.103 40.4926 239.303 39.2926C240.503 38.0926 241.403 36.6526 242.003 34.9726C242.603 33.2526 242.903 31.3526 242.903 29.2726C242.903 27.1926 242.603 25.3126 242.003 23.6326C241.403 21.9126 240.503 20.4526 239.303 19.2526C238.103 18.0526 236.603 17.1326 234.803 16.4926C233.003 15.8126 230.923 15.4726 228.563 15.4726H222.503V43.0726H228.563ZM262.328 15.4726V25.4326H279.548V33.1126H262.328V43.0726H281.468V50.7526H254.228V7.79257H281.468V15.4726H262.328Z" fill="url(#paint10_linear_368_20)"/>
<path d="M5.84115 71.5986C5.18482 71.5986 4.71548 71.4575 4.43315 71.1751C4.15082 70.8891 3.99682 70.4198 3.97115 69.7671C3.96748 69.5948 3.96382 69.428 3.96015 69.2666C3.96015 69.1016 3.96198 68.9366 3.96565 68.7716C3.97298 68.6066 3.98398 68.438 3.99865 68.2656H5.12065C5.10598 68.559 5.09682 68.8523 5.09315 69.1456C5.09315 69.439 5.10232 69.7158 5.12065 69.9761C5.13532 70.1925 5.19948 70.3538 5.31315 70.4601C5.42682 70.5628 5.60098 70.6141 5.83565 70.6141C6.06665 70.6141 6.23348 70.5628 6.33615 70.4601C6.43882 70.3538 6.50115 70.1925 6.52315 69.9761C6.53415 69.8111 6.54148 69.6571 6.54515 69.5141C6.54882 69.3711 6.54882 69.2263 6.54515 69.0796C6.54148 68.933 6.53415 68.7716 6.52315 68.5956C6.50848 68.3793 6.46448 68.1941 6.39115 68.0401C6.31782 67.8861 6.18398 67.7835 5.98965 67.7321L5.25265 67.5451C4.92265 67.4608 4.66415 67.338 4.47715 67.1766C4.29015 67.0116 4.15632 66.8026 4.07565 66.5496C3.99498 66.2966 3.94915 65.9941 3.93815 65.6421C3.93448 65.4441 3.93265 65.2425 3.93265 65.0371C3.93632 64.8318 3.93998 64.6283 3.94365 64.4266C3.95832 63.994 4.02798 63.6456 4.15265 63.3816C4.28098 63.114 4.48082 62.9196 4.75215 62.7986C5.02715 62.674 5.38832 62.6116 5.83565 62.6116C6.46998 62.6116 6.92832 62.7528 7.21065 63.0351C7.49665 63.3175 7.65248 63.7831 7.67815 64.4321C7.68548 64.6118 7.68732 64.8336 7.68365 65.0976C7.67998 65.358 7.67265 65.6183 7.66165 65.8786H6.51765C6.52865 65.6036 6.53415 65.3286 6.53415 65.0536C6.53782 64.775 6.53415 64.4981 6.52315 64.2231C6.51948 64.0105 6.45898 63.8528 6.34165 63.7501C6.22432 63.6438 6.05382 63.5906 5.83015 63.5906C5.59548 63.5906 5.42498 63.6438 5.31865 63.7501C5.21232 63.8528 5.14998 64.0105 5.13165 64.2231C5.11332 64.4578 5.10415 64.6943 5.10415 64.9326C5.10782 65.171 5.11698 65.4075 5.13165 65.6421C5.14632 65.8768 5.19215 66.0656 5.26915 66.2086C5.34615 66.3516 5.48548 66.4488 5.68715 66.5001L6.35265 66.6596C6.70098 66.7403 6.97232 66.8668 7.16665 67.0391C7.36098 67.2078 7.49848 67.4223 7.57915 67.6826C7.65982 67.9393 7.70565 68.2436 7.71665 68.5956C7.72398 68.7496 7.72765 68.889 7.72765 69.0136C7.72765 69.1383 7.72582 69.2611 7.72215 69.3821C7.71848 69.4995 7.71482 69.6278 7.71115 69.7671C7.68548 70.4198 7.52965 70.8891 7.24365 71.1751C6.96132 71.4575 6.49382 71.5986 5.84115 71.5986ZM9.12714 71.5051V62.7051H12.2676V63.7611H10.3151V66.5221H12.1576V67.5781H10.3151V70.4491H12.2676V71.5051H9.12714ZM13.5766 71.5051V62.7051H14.7646V71.5051H13.5766ZM18.0829 71.5986C17.4266 71.5986 16.9573 71.4575 16.6749 71.1751C16.3926 70.8891 16.2386 70.4198 16.2129 69.7671C16.2093 69.5948 16.2056 69.428 16.2019 69.2666C16.2019 69.1016 16.2038 68.9366 16.2074 68.7716C16.2148 68.6066 16.2258 68.438 16.2404 68.2656H17.3624C17.3478 68.559 17.3386 68.8523 17.3349 69.1456C17.3349 69.439 17.3441 69.7158 17.3624 69.9761C17.3771 70.1925 17.4413 70.3538 17.5549 70.4601C17.6686 70.5628 17.8428 70.6141 18.0774 70.6141C18.3084 70.6141 18.4753 70.5628 18.5779 70.4601C18.6806 70.3538 18.7429 70.1925 18.7649 69.9761C18.7759 69.8111 18.7833 69.6571 18.7869 69.5141C18.7906 69.3711 18.7906 69.2263 18.7869 69.0796C18.7833 68.933 18.7759 68.7716 18.7649 68.5956C18.7503 68.3793 18.7063 68.1941 18.6329 68.0401C18.5596 67.8861 18.4258 67.7835 18.2314 67.7321L17.4944 67.5451C17.1644 67.4608 16.9059 67.338 16.7189 67.1766C16.5319 67.0116 16.3981 66.8026 16.3174 66.5496C16.2368 66.2966 16.1909 65.9941 16.1799 65.6421C16.1763 65.4441 16.1744 65.2425 16.1744 65.0371C16.1781 64.8318 16.1818 64.6283 16.1854 64.4266C16.2001 63.994 16.2698 63.6456 16.3944 63.3816C16.5228 63.114 16.7226 62.9196 16.9939 62.7986C17.2689 62.674 17.6301 62.6116 18.0774 62.6116C18.7118 62.6116 19.1701 62.7528 19.4524 63.0351C19.7384 63.3175 19.8943 63.7831 19.9199 64.4321C19.9273 64.6118 19.9291 64.8336 19.9254 65.0976C19.9218 65.358 19.9144 65.6183 19.9034 65.8786H18.7594C18.7704 65.6036 18.7759 65.3286 18.7759 65.0536C18.7796 64.775 18.7759 64.4981 18.7649 64.2231C18.7613 64.0105 18.7008 63.8528 18.5834 63.7501C18.4661 63.6438 18.2956 63.5906 18.0719 63.5906C17.8373 63.5906 17.6668 63.6438 17.5604 63.7501C17.4541 63.8528 17.3918 64.0105 17.3734 64.2231C17.3551 64.4578 17.3459 64.6943 17.3459 64.9326C17.3496 65.171 17.3588 65.4075 17.3734 65.6421C17.3881 65.8768 17.4339 66.0656 17.5109 66.2086C17.5879 66.3516 17.7273 66.4488 17.9289 66.5001L18.5944 66.6596C18.9428 66.7403 19.2141 66.8668 19.4084 67.0391C19.6028 67.2078 19.7403 67.4223 19.8209 67.6826C19.9016 67.9393 19.9474 68.2436 19.9584 68.5956C19.9658 68.7496 19.9694 68.889 19.9694 69.0136C19.9694 69.1383 19.9676 69.2611 19.9639 69.3821C19.9603 69.4995 19.9566 69.6278 19.9529 69.7671C19.9273 70.4198 19.7714 70.8891 19.4854 71.1751C19.2031 71.4575 18.7356 71.5986 18.0829 71.5986ZM21.3689 71.5051V62.7051H23.3599L23.9869 66.1701L24.2344 70.4326H24.4819L24.7184 66.1701L25.3564 62.7051H27.3474V71.5051H26.1539V68.8706L26.3794 63.7611H26.1044L25.5819 68.9421L25.0429 71.4886H23.6679L23.1399 68.9421L22.6064 63.7611H22.3479L22.5569 68.8706V71.5051H21.3689ZM28.9121 71.5051V62.7051H30.1001V71.5051H28.9121ZM33.501 71.5986C32.8337 71.5986 32.357 71.4575 32.071 71.1751C31.7887 70.8928 31.642 70.4253 31.631 69.7726C31.6237 69.362 31.6182 68.9311 31.6145 68.4801C31.6108 68.0291 31.609 67.5708 31.609 67.1051C31.609 66.6395 31.6108 66.1811 31.6145 65.7301C31.6182 65.2755 31.6237 64.841 31.631 64.4266C31.6383 63.8546 31.7887 63.411 32.082 63.0956C32.3753 62.7766 32.8465 62.6171 33.4955 62.6171C34.1408 62.6171 34.6083 62.7583 34.898 63.0406C35.1877 63.3193 35.3435 63.785 35.3655 64.4376C35.3692 64.566 35.371 64.72 35.371 64.8996C35.371 65.0756 35.3692 65.2516 35.3655 65.4276C35.3618 65.6 35.3582 65.7521 35.3545 65.8841H34.1665C34.1702 65.7228 34.172 65.545 34.172 65.3506C34.1757 65.1563 34.1775 64.962 34.1775 64.7676C34.1775 64.5696 34.1757 64.39 34.172 64.2286C34.1683 64.0123 34.1097 63.8528 33.996 63.7501C33.886 63.6475 33.7192 63.5961 33.4955 63.5961C33.2718 63.5961 33.105 63.6475 32.995 63.7501C32.885 63.8528 32.8263 64.0123 32.819 64.2286C32.8043 64.6943 32.7933 65.1691 32.786 65.6531C32.7823 66.1335 32.7805 66.6175 32.7805 67.1051C32.7805 67.5928 32.7823 68.0786 32.786 68.5626C32.7933 69.0466 32.8043 69.5196 32.819 69.9816C32.8263 70.198 32.885 70.3593 32.995 70.4656C33.1087 70.5683 33.2773 70.6196 33.501 70.6196C33.7393 70.6196 33.9172 70.5683 34.0345 70.4656C34.1518 70.3593 34.2123 70.198 34.216 69.9816C34.2197 69.8166 34.2215 69.6333 34.2215 69.4316C34.2252 69.2263 34.2252 69.0228 34.2215 68.8211C34.2178 68.6195 34.2142 68.4361 34.2105 68.2711H35.404C35.4113 68.5131 35.415 68.7643 35.415 69.0246C35.4187 69.2813 35.4168 69.5306 35.4095 69.7726C35.3875 70.4253 35.228 70.8928 34.931 71.1751C34.6377 71.4575 34.161 71.5986 33.501 71.5986ZM39.7467 71.5051V62.7051H40.9347V66.5221H42.2162V62.7051H43.4042V71.5051H42.2162V67.5781H40.9347V71.5051H39.7467ZM44.6448 71.5051L45.7228 62.7051H47.7028L48.7808 71.5051H47.5653L47.3563 69.3106H46.0693L45.8658 71.5051H44.6448ZM46.1848 68.2546H47.2463L47.0593 66.3186L46.8668 63.7611H46.5588L46.3718 66.3186L46.1848 68.2546ZM49.696 71.5051V70.5206L51.984 63.7611H49.8225V62.7051H53.2545V63.7116L50.8895 70.4491H53.073V71.5051H49.696ZM54.027 71.5051L55.105 62.7051H57.085L58.163 71.5051H56.9475L56.7385 69.3106H55.4515L55.248 71.5051H54.027ZM55.567 68.2546H56.6285L56.4415 66.3186L56.249 63.7611H55.941L55.754 66.3186L55.567 68.2546ZM59.4027 71.5051V62.7051H61.1352C61.7916 62.7051 62.2664 62.8426 62.5597 63.1176C62.8567 63.3926 63.0162 63.8491 63.0382 64.4871C63.0492 64.7548 63.0547 65.0005 63.0547 65.2241C63.0584 65.4441 63.0584 65.6623 63.0547 65.8786C63.0547 66.0913 63.0492 66.3168 63.0382 66.5551C63.0272 66.9695 62.9557 67.3068 62.8237 67.5671C62.6954 67.8238 62.4956 68.0145 62.2242 68.1391L63.1867 71.5051H61.9217L61.1022 68.3371H60.5907V71.5051H59.4027ZM60.5907 67.2866H61.1297C61.3681 67.2866 61.5441 67.2316 61.6577 67.1216C61.7751 67.008 61.8392 66.8393 61.8502 66.6156C61.8612 66.381 61.8686 66.1408 61.8722 65.8951C61.8759 65.6458 61.8759 65.3983 61.8722 65.1526C61.8686 64.9033 61.8612 64.6613 61.8502 64.4266C61.8392 64.203 61.7769 64.0361 61.6632 63.9261C61.5496 63.8161 61.3736 63.7611 61.1352 63.7611H60.5907V67.2866ZM64.4859 71.5051V62.7051H66.3064C66.9701 62.7051 67.4504 62.85 67.7474 63.1396C68.0444 63.4256 68.1984 63.9005 68.2094 64.5641C68.2204 65.1691 68.2278 65.743 68.2314 66.2856C68.2351 66.8283 68.2351 67.3728 68.2314 67.9191C68.2278 68.4618 68.2204 69.0356 68.2094 69.6406C68.1984 70.3043 68.0444 70.781 67.7474 71.0706C67.4504 71.3603 66.9683 71.5051 66.3009 71.5051H64.4859ZM65.6739 70.4491H66.3009C66.5429 70.4491 66.7226 70.3941 66.8399 70.2841C66.9573 70.1705 67.0178 70 67.0214 69.7726C67.0324 69.3253 67.0398 68.8798 67.0434 68.4361C67.0471 67.9888 67.0489 67.5433 67.0489 67.0996C67.0489 66.656 67.0471 66.2123 67.0434 65.7686C67.0398 65.3213 67.0324 64.874 67.0214 64.4266C67.0178 64.203 66.9573 64.0361 66.8399 63.9261C66.7226 63.8161 66.5448 63.7611 66.3064 63.7611H65.6739V70.4491ZM72.1684 71.5051L73.2464 62.7051H75.2264L76.3044 71.5051H75.0889L74.8799 69.3106H73.5929L73.3894 71.5051H72.1684ZM73.7084 68.2546H74.7699L74.5829 66.3186L74.3904 63.7611H74.0824L73.8954 66.3186L73.7084 68.2546ZM79.2876 71.5986C78.6313 71.5986 78.162 71.4575 77.8796 71.1751C77.5973 70.8891 77.4433 70.4198 77.4176 69.7671C77.414 69.5948 77.4103 69.428 77.4066 69.2666C77.4066 69.1016 77.4085 68.9366 77.4121 68.7716C77.4195 68.6066 77.4305 68.438 77.4451 68.2656H78.5671C78.5525 68.559 78.5433 68.8523 78.5396 69.1456C78.5396 69.439 78.5488 69.7158 78.5671 69.9761C78.5818 70.1925 78.646 70.3538 78.7596 70.4601C78.8733 70.5628 79.0475 70.6141 79.2821 70.6141C79.5131 70.6141 79.68 70.5628 79.7826 70.4601C79.8853 70.3538 79.9476 70.1925 79.9696 69.9761C79.9806 69.8111 79.988 69.6571 79.9916 69.5141C79.9953 69.3711 79.9953 69.2263 79.9916 69.0796C79.988 68.933 79.9806 68.7716 79.9696 68.5956C79.955 68.3793 79.911 68.1941 79.8376 68.0401C79.7643 67.8861 79.6305 67.7835 79.4361 67.7321L78.6991 67.5451C78.3691 67.4608 78.1106 67.338 77.9236 67.1766C77.7366 67.0116 77.6028 66.8026 77.5221 66.5496C77.4415 66.2966 77.3956 65.9941 77.3846 65.6421C77.381 65.4441 77.3791 65.2425 77.3791 65.0371C77.3828 64.8318 77.3865 64.6283 77.3901 64.4266C77.4048 63.994 77.4745 63.6456 77.5991 63.3816C77.7275 63.114 77.9273 62.9196 78.1986 62.7986C78.4736 62.674 78.8348 62.6116 79.2821 62.6116C79.9165 62.6116 80.3748 62.7528 80.6571 63.0351C80.9431 63.3175 81.099 63.7831 81.1246 64.4321C81.132 64.6118 81.1338 64.8336 81.1301 65.0976C81.1265 65.358 81.1191 65.6183 81.1081 65.8786H79.9641C79.9751 65.6036 79.9806 65.3286 79.9806 65.0536C79.9843 64.775 79.9806 64.4981 79.9696 64.2231C79.966 64.0105 79.9055 63.8528 79.7881 63.7501C79.6708 63.6438 79.5003 63.5906 79.2766 63.5906C79.042 63.5906 78.8715 63.6438 78.7651 63.7501C78.6588 63.8528 78.5965 64.0105 78.5781 64.2231C78.5598 64.4578 78.5506 64.6943 78.5506 64.9326C78.5543 65.171 78.5635 65.4075 78.5781 65.6421C78.5928 65.8768 78.6386 66.0656 78.7156 66.2086C78.7926 66.3516 78.932 66.4488 79.1336 66.5001L79.7991 66.6596C80.1475 66.7403 80.4188 66.8668 80.6131 67.0391C80.8075 67.2078 80.945 67.4223 81.0256 67.6826C81.1063 67.9393 81.1521 68.2436 81.1631 68.5956C81.1705 68.7496 81.1741 68.889 81.1741 69.0136C81.1741 69.1383 81.1723 69.2611 81.1686 69.3821C81.165 69.4995 81.1613 69.6278 81.1576 69.7671C81.132 70.4198 80.9761 70.8891 80.6901 71.1751C80.4078 71.4575 79.9403 71.5986 79.2876 71.5986ZM84.3171 71.5986C83.6608 71.5986 83.1915 71.4575 82.9091 71.1751C82.6268 70.8891 82.4728 70.4198 82.4471 69.7671C82.4435 69.5948 82.4398 69.428 82.4361 69.2666C82.4361 69.1016 82.438 68.9366 82.4416 68.7716C82.449 68.6066 82.46 68.438 82.4746 68.2656H83.5966C83.582 68.559 83.5728 68.8523 83.5691 69.1456C83.5691 69.439 83.5783 69.7158 83.5966 69.9761C83.6113 70.1925 83.6755 70.3538 83.7891 70.4601C83.9028 70.5628 84.077 70.6141 84.3116 70.6141C84.5426 70.6141 84.7095 70.5628 84.8121 70.4601C84.9148 70.3538 84.9771 70.1925 84.9991 69.9761C85.0101 69.8111 85.0175 69.6571 85.0211 69.5141C85.0248 69.3711 85.0248 69.2263 85.0211 69.0796C85.0175 68.933 85.0101 68.7716 84.9991 68.5956C84.9845 68.3793 84.9405 68.1941 84.8671 68.0401C84.7938 67.8861 84.66 67.7835 84.4656 67.7321L83.7286 67.5451C83.3986 67.4608 83.1401 67.338 82.9531 67.1766C82.7661 67.0116 82.6323 66.8026 82.5516 66.5496C82.471 66.2966 82.4251 65.9941 82.4141 65.6421C82.4105 65.4441 82.4086 65.2425 82.4086 65.0371C82.4123 64.8318 82.416 64.6283 82.4196 64.4266C82.4343 63.994 82.504 63.6456 82.6286 63.3816C82.757 63.114 82.9568 62.9196 83.2281 62.7986C83.5031 62.674 83.8643 62.6116 84.3116 62.6116C84.946 62.6116 85.4043 62.7528 85.6866 63.0351C85.9726 63.3175 86.1285 63.7831 86.1541 64.4321C86.1615 64.6118 86.1633 64.8336 86.1596 65.0976C86.156 65.358 86.1486 65.6183 86.1376 65.8786H84.9936C85.0046 65.6036 85.0101 65.3286 85.0101 65.0536C85.0138 64.775 85.0101 64.4981 84.9991 64.2231C84.9955 64.0105 84.935 63.8528 84.8176 63.7501C84.7003 63.6438 84.5298 63.5906 84.3061 63.5906C84.0715 63.5906 83.901 63.6438 83.7946 63.7501C83.6883 63.8528 83.626 64.0105 83.6076 64.2231C83.5893 64.4578 83.5801 64.6943 83.5801 64.9326C83.5838 65.171 83.593 65.4075 83.6076 65.6421C83.6223 65.8768 83.6681 66.0656 83.7451 66.2086C83.8221 66.3516 83.9615 66.4488 84.1631 66.5001L84.8286 66.6596C85.177 66.7403 85.4483 66.8668 85.6426 67.0391C85.837 67.2078 85.9745 67.4223 86.0551 67.6826C86.1358 67.9393 86.1816 68.2436 86.1926 68.5956C86.2 68.7496 86.2036 68.889 86.2036 69.0136C86.2036 69.1383 86.2018 69.2611 86.1981 69.3821C86.1945 69.4995 86.1908 69.6278 86.1871 69.7671C86.1615 70.4198 86.0056 70.8891 85.7196 71.1751C85.4373 71.4575 84.9698 71.5986 84.3171 71.5986ZM87.6031 71.5051V62.7051H90.7436V63.7611H88.7911V66.5221H90.6336V67.5781H88.7911V70.4491H90.7436V71.5051H87.6031ZM93.796 71.5986C93.1397 71.5986 92.6704 71.4575 92.388 71.1751C92.1057 70.8891 91.9517 70.4198 91.926 69.7671C91.9224 69.5948 91.9187 69.428 91.915 69.2666C91.915 69.1016 91.9169 68.9366 91.9205 68.7716C91.9279 68.6066 91.9389 68.438 91.9535 68.2656H93.0755C93.0609 68.559 93.0517 68.8523 93.048 69.1456C93.048 69.439 93.0572 69.7158 93.0755 69.9761C93.0902 70.1925 93.1544 70.3538 93.268 70.4601C93.3817 70.5628 93.5559 70.6141 93.7905 70.6141C94.0215 70.6141 94.1884 70.5628 94.291 70.4601C94.3937 70.3538 94.456 70.1925 94.478 69.9761C94.489 69.8111 94.4964 69.6571 94.5 69.5141C94.5037 69.3711 94.5037 69.2263 94.5 69.0796C94.4964 68.933 94.489 68.7716 94.478 68.5956C94.4634 68.3793 94.4194 68.1941 94.346 68.0401C94.2727 67.8861 94.1389 67.7835 93.9445 67.7321L93.2075 67.5451C92.8775 67.4608 92.619 67.338 92.432 67.1766C92.245 67.0116 92.1112 66.8026 92.0305 66.5496C91.9499 66.2966 91.904 65.9941 91.893 65.6421C91.8894 65.4441 91.8875 65.2425 91.8875 65.0371C91.8912 64.8318 91.8949 64.6283 91.8985 64.4266C91.9132 63.994 91.9829 63.6456 92.1075 63.3816C92.2359 63.114 92.4357 62.9196 92.707 62.7986C92.982 62.674 93.3432 62.6116 93.7905 62.6116C94.4249 62.6116 94.8832 62.7528 95.1655 63.0351C95.4515 63.3175 95.6074 63.7831 95.633 64.4321C95.6404 64.6118 95.6422 64.8336 95.6385 65.0976C95.6349 65.358 95.6275 65.6183 95.6165 65.8786H94.4725C94.4835 65.6036 94.489 65.3286 94.489 65.0536C94.4927 64.775 94.489 64.4981 94.478 64.2231C94.4744 64.0105 94.4139 63.8528 94.2965 63.7501C94.1792 63.6438 94.0087 63.5906 93.785 63.5906C93.5504 63.5906 93.3799 63.6438 93.2735 63.7501C93.1672 63.8528 93.1049 64.0105 93.0865 64.2231C93.0682 64.4578 93.059 64.6943 93.059 64.9326C93.0627 65.171 93.0719 65.4075 93.0865 65.6421C93.1012 65.8768 93.147 66.0656 93.224 66.2086C93.301 66.3516 93.4404 66.4488 93.642 66.5001L94.3075 66.6596C94.6559 66.7403 94.9272 66.8668 95.1215 67.0391C95.3159 67.2078 95.4534 67.4223 95.534 67.6826C95.6147 67.9393 95.6605 68.2436 95.6715 68.5956C95.6789 68.7496 95.6825 68.889 95.6825 69.0136C95.6825 69.1383 95.6807 69.2611 95.677 69.3821C95.6734 69.4995 95.6697 69.6278 95.666 69.7671C95.6404 70.4198 95.4845 70.8891 95.1985 71.1751C94.9162 71.4575 94.4487 71.5986 93.796 71.5986ZM98.8255 71.5986C98.1692 71.5986 97.6999 71.4575 97.4175 71.1751C97.1352 70.8891 96.9812 70.4198 96.9555 69.7671C96.9519 69.5948 96.9482 69.428 96.9445 69.2666C96.9445 69.1016 96.9464 68.9366 96.95 68.7716C96.9574 68.6066 96.9684 68.438 96.983 68.2656H98.105C98.0904 68.559 98.0812 68.8523 98.0775 69.1456C98.0775 69.439 98.0867 69.7158 98.105 69.9761C98.1197 70.1925 98.1839 70.3538 98.2975 70.4601C98.4112 70.5628 98.5854 70.6141 98.82 70.6141C99.051 70.6141 99.2179 70.5628 99.3205 70.4601C99.4232 70.3538 99.4855 70.1925 99.5075 69.9761C99.5185 69.8111 99.5259 69.6571 99.5295 69.5141C99.5332 69.3711 99.5332 69.2263 99.5295 69.0796C99.5259 68.933 99.5185 68.7716 99.5075 68.5956C99.4929 68.3793 99.4489 68.1941 99.3755 68.0401C99.3022 67.8861 99.1684 67.7835 98.974 67.7321L98.237 67.5451C97.907 67.4608 97.6485 67.338 97.4615 67.1766C97.2745 67.0116 97.1407 66.8026 97.06 66.5496C96.9794 66.2966 96.9335 65.9941 96.9225 65.6421C96.9189 65.4441 96.917 65.2425 96.917 65.0371C96.9207 64.8318 96.9244 64.6283 96.928 64.4266C96.9427 63.994 97.0124 63.6456 97.137 63.3816C97.2654 63.114 97.4652 62.9196 97.7365 62.7986C98.0115 62.674 98.3727 62.6116 98.82 62.6116C99.4544 62.6116 99.9127 62.7528 100.195 63.0351C100.481 63.3175 100.637 63.7831 100.663 64.4321C100.67 64.6118 100.672 64.8336 100.668 65.0976C100.664 65.358 100.657 65.6183 100.646 65.8786H99.502C99.513 65.6036 99.5185 65.3286 99.5185 65.0536C99.5222 64.775 99.5185 64.4981 99.5075 64.2231C99.5039 64.0105 99.4434 63.8528 99.326 63.7501C99.2087 63.6438 99.0382 63.5906 98.8145 63.5906C98.5799 63.5906 98.4094 63.6438 98.303 63.7501C98.1967 63.8528 98.1344 64.0105 98.116 64.2231C98.0977 64.4578 98.0885 64.6943 98.0885 64.9326C98.0922 65.171 98.1014 65.4075 98.116 65.6421C98.1307 65.8768 98.1765 66.0656 98.2535 66.2086C98.3305 66.3516 98.4699 66.4488 98.6715 66.5001L99.337 66.6596C99.6854 66.7403 99.9567 66.8668 100.151 67.0391C100.345 67.2078 100.483 67.4223 100.564 67.6826C100.644 67.9393 100.69 68.2436 100.701 68.5956C100.708 68.7496 100.712 68.889 100.712 69.0136C100.712 69.1383 100.71 69.2611 100.707 69.3821C100.703 69.4995 100.699 69.6278 100.696 69.7671C100.67 70.4198 100.514 70.8891 100.228 71.1751C99.9457 71.4575 99.4782 71.5986 98.8255 71.5986ZM102.112 71.5051V62.7051H104.103L104.73 66.1701L104.977 70.4326H105.225L105.461 66.1701L106.099 62.7051H108.09V71.5051H106.897V68.8706L107.122 63.7611H106.847L106.325 68.9421L105.786 71.4886H104.411L103.883 68.9421L103.349 63.7611H103.091L103.3 68.8706V71.5051H102.112ZM109.655 71.5051V62.7051H112.795V63.7611H110.843V66.5221H112.685V67.5781H110.843V70.4491H112.795V71.5051H109.655ZM114.104 71.5051V62.7051H115.919L116.491 65.4991L117.168 70.4491H117.437L117.217 66.1481L117.129 62.7051H118.284V71.5051H116.387L115.782 68.4856L115.243 63.7556H114.957L115.16 68.1721L115.254 71.5051H114.104ZM120.667 71.5051V63.7611H119.402V62.7051H123.126V63.7611H121.861V71.5051H120.667ZM127.044 71.5051V62.7051H130.185V63.7611H128.232V66.5221H130.075V67.5781H128.232V71.5051H127.044ZM133.25 71.5986C132.59 71.5986 132.113 71.4593 131.82 71.1806C131.53 70.8983 131.38 70.4308 131.369 69.7781C131.358 69.3381 131.351 68.8945 131.347 68.4471C131.343 67.9998 131.342 67.5525 131.342 67.1051C131.342 66.6541 131.343 66.2068 131.347 65.7631C131.351 65.3158 131.358 64.8703 131.369 64.4266C131.38 63.7776 131.53 63.3138 131.82 63.0351C132.113 62.7528 132.59 62.6116 133.25 62.6116C133.91 62.6116 134.383 62.7528 134.669 63.0351C134.959 63.3138 135.111 63.7776 135.126 64.4266C135.14 64.874 135.149 65.3213 135.153 65.7686C135.16 66.216 135.164 66.6633 135.164 67.1106C135.164 67.558 135.16 68.0053 135.153 68.4526C135.149 68.8963 135.14 69.3381 135.126 69.7781C135.111 70.4308 134.959 70.8983 134.669 71.1806C134.383 71.4593 133.91 71.5986 133.25 71.5986ZM133.25 70.6141C133.485 70.6141 133.657 70.5646 133.767 70.4656C133.877 70.363 133.934 70.2035 133.938 69.9871C133.956 69.5325 133.967 69.0613 133.971 68.5736C133.978 68.0823 133.982 67.5873 133.982 67.0886C133.982 66.59 133.978 66.0986 133.971 65.6146C133.963 65.1306 133.952 64.665 133.938 64.2176C133.934 64.0013 133.875 63.8436 133.762 63.7446C133.652 63.642 133.481 63.5906 133.25 63.5906C133.019 63.5906 132.847 63.642 132.733 63.7446C132.623 63.8436 132.564 64.0013 132.557 64.2176C132.542 64.665 132.53 65.1306 132.519 65.6146C132.511 66.0986 132.508 66.59 132.508 67.0886C132.511 67.5873 132.517 68.0823 132.524 68.5736C132.531 69.0613 132.542 69.5325 132.557 69.9871C132.564 70.2035 132.623 70.363 132.733 70.4656C132.847 70.5646 133.019 70.6141 133.25 70.6141ZM136.663 71.5051V62.7051H138.395C139.052 62.7051 139.526 62.8426 139.82 63.1176C140.117 63.3926 140.276 63.8491 140.298 64.4871C140.309 64.7548 140.315 65.0005 140.315 65.2241C140.318 65.4441 140.318 65.6623 140.315 65.8786C140.315 66.0913 140.309 66.3168 140.298 66.5551C140.287 66.9695 140.216 67.3068 140.084 67.5671C139.955 67.8238 139.756 68.0145 139.484 68.1391L140.447 71.5051H139.182L138.362 68.3371H137.851V71.5051H136.663ZM137.851 67.2866H138.39C138.628 67.2866 138.804 67.2316 138.918 67.1216C139.035 67.008 139.099 66.8393 139.11 66.6156C139.121 66.381 139.129 66.1408 139.132 65.8951C139.136 65.6458 139.136 65.3983 139.132 65.1526C139.129 64.9033 139.121 64.6613 139.11 64.4266C139.099 64.203 139.037 64.0361 138.923 63.9261C138.81 63.8161 138.634 63.7611 138.395 63.7611H137.851V67.2866ZM145.355 71.5051V63.7611H144.09V62.7051H147.814V63.7611H146.549V71.5051H145.355ZM148.937 71.5051V62.7051H150.125V66.5221H151.406V62.7051H152.594V71.5051H151.406V67.5781H150.125V71.5051H148.937ZM154.17 71.5051V62.7051H157.311V63.7611H155.358V66.5221H157.201V67.5781H155.358V70.4491H157.311V71.5051H154.17ZM161.522 71.5051V62.7051H163.343C164.006 62.7051 164.487 62.85 164.784 63.1396C165.081 63.4256 165.235 63.9005 165.246 64.5641C165.257 65.1691 165.264 65.743 165.268 66.2856C165.271 66.8283 165.271 67.3728 165.268 67.9191C165.264 68.4618 165.257 69.0356 165.246 69.6406C165.235 70.3043 165.081 70.781 164.784 71.0706C164.487 71.3603 164.005 71.5051 163.337 71.5051H161.522ZM162.71 70.4491H163.337C163.579 70.4491 163.759 70.3941 163.876 70.2841C163.994 70.1705 164.054 70 164.058 69.7726C164.069 69.3253 164.076 68.8798 164.08 68.4361C164.083 67.9888 164.085 67.5433 164.085 67.0996C164.085 66.656 164.083 66.2123 164.08 65.7686C164.076 65.3213 164.069 64.874 164.058 64.4266C164.054 64.203 163.994 64.0361 163.876 63.9261C163.759 63.8161 163.581 63.7611 163.343 63.7611H162.71V70.4491ZM166.777 71.5051V62.7051H169.918V63.7611H167.965V66.5221H169.808V67.5781H167.965V70.4491H169.918V71.5051H166.777ZM172.97 71.5986C172.314 71.5986 171.845 71.4575 171.562 71.1751C171.28 70.8891 171.126 70.4198 171.1 69.7671C171.097 69.5948 171.093 69.428 171.089 69.2666C171.089 69.1016 171.091 68.9366 171.095 68.7716C171.102 68.6066 171.113 68.438 171.128 68.2656H172.25C172.235 68.559 172.226 68.8523 172.222 69.1456C172.222 69.439 172.231 69.7158 172.25 69.9761C172.264 70.1925 172.329 70.3538 172.442 70.4601C172.556 70.5628 172.73 70.6141 172.965 70.6141C173.196 70.6141 173.363 70.5628 173.465 70.4601C173.568 70.3538 173.63 70.1925 173.652 69.9761C173.663 69.8111 173.671 69.6571 173.674 69.5141C173.678 69.3711 173.678 69.2263 173.674 69.0796C173.671 68.933 173.663 68.7716 173.652 68.5956C173.638 68.3793 173.594 68.1941 173.52 68.0401C173.447 67.8861 173.313 67.7835 173.119 67.7321L172.382 67.5451C172.052 67.4608 171.793 67.338 171.606 67.1766C171.419 67.0116 171.285 66.8026 171.205 66.5496C171.124 66.2966 171.078 65.9941 171.067 65.6421C171.064 65.4441 171.062 65.2425 171.062 65.0371C171.065 64.8318 171.069 64.6283 171.073 64.4266C171.087 63.994 171.157 63.6456 171.282 63.3816C171.41 63.114 171.61 62.9196 171.881 62.7986C172.156 62.674 172.517 62.6116 172.965 62.6116C173.599 62.6116 174.057 62.7528 174.34 63.0351C174.626 63.3175 174.782 63.7831 174.807 64.4321C174.815 64.6118 174.816 64.8336 174.813 65.0976C174.809 65.358 174.802 65.6183 174.791 65.8786H173.647C173.658 65.6036 173.663 65.3286 173.663 65.0536C173.667 64.775 173.663 64.4981 173.652 64.2231C173.649 64.0105 173.588 63.8528 173.471 63.7501C173.353 63.6438 173.183 63.5906 172.959 63.5906C172.725 63.5906 172.554 63.6438 172.448 63.7501C172.341 63.8528 172.279 64.0105 172.261 64.2231C172.242 64.4578 172.233 64.6943 172.233 64.9326C172.237 65.171 172.246 65.4075 172.261 65.6421C172.275 65.8768 172.321 66.0656 172.398 66.2086C172.475 66.3516 172.615 66.4488 172.816 66.5001L173.482 66.6596C173.83 66.7403 174.101 66.8668 174.296 67.0391C174.49 67.2078 174.628 67.4223 174.708 67.6826C174.789 67.9393 174.835 68.2436 174.846 68.5956C174.853 68.7496 174.857 68.889 174.857 69.0136C174.857 69.1383 174.855 69.2611 174.851 69.3821C174.848 69.4995 174.844 69.6278 174.84 69.7671C174.815 70.4198 174.659 70.8891 174.373 71.1751C174.09 71.4575 173.623 71.5986 172.97 71.5986ZM176.256 71.5051V62.7051H177.444V71.5051H176.256ZM180.862 71.5986C180.414 71.5986 180.055 71.5381 179.784 71.4171C179.516 71.2925 179.318 71.0963 179.19 70.8286C179.065 70.5573 178.995 70.2035 178.981 69.7671C178.97 69.3638 178.962 68.9385 178.959 68.4911C178.955 68.0401 178.953 67.5855 178.953 67.1271C178.953 66.6651 178.955 66.2123 178.959 65.7686C178.962 65.3213 178.97 64.8978 178.981 64.4981C178.999 64.0435 179.072 63.6786 179.201 63.4036C179.329 63.125 179.527 62.9233 179.795 62.7986C180.066 62.674 180.42 62.6116 180.856 62.6116C181.483 62.6116 181.94 62.7528 182.226 63.0351C182.515 63.3175 182.678 63.7831 182.715 64.4321C182.726 64.6595 182.732 64.9015 182.732 65.1581C182.732 65.4111 182.726 65.6513 182.715 65.8786H181.527C181.538 65.6293 181.544 65.3543 181.544 65.0536C181.544 64.7493 181.538 64.4725 181.527 64.2231C181.516 64.0105 181.454 63.8528 181.34 63.7501C181.23 63.6438 181.069 63.5906 180.856 63.5906C180.632 63.5906 180.464 63.6438 180.35 63.7501C180.24 63.8528 180.18 64.0105 180.169 64.2231C180.154 64.6815 180.141 65.1526 180.13 65.6366C180.123 66.1206 180.119 66.6083 180.119 67.0996C180.119 67.591 180.123 68.0786 180.13 68.5626C180.141 69.0466 180.154 69.5178 180.169 69.9761C180.18 70.1925 180.24 70.3538 180.35 70.4601C180.464 70.5628 180.634 70.6141 180.862 70.6141C181.089 70.6141 181.265 70.5628 181.39 70.4601C181.514 70.3538 181.582 70.1925 181.593 69.9761C181.597 69.8368 181.599 69.6828 181.599 69.5141C181.602 69.3418 181.602 69.1731 181.599 69.0081C181.599 68.8395 181.597 68.6836 181.593 68.5406H180.922V67.5011H182.754C182.765 67.8091 182.768 68.1575 182.765 68.5461C182.765 68.9348 182.757 69.3418 182.743 69.7671C182.717 70.4198 182.557 70.8891 182.264 71.1751C181.974 71.4575 181.507 71.5986 180.862 71.5986ZM184.199 71.5051V62.7051H186.014L186.586 65.4991L187.263 70.4491H187.532L187.312 66.1481L187.224 62.7051H188.379V71.5051H186.482L185.877 68.4856L185.338 63.7556H185.052L185.255 68.1721L185.349 71.5051H184.199ZM192.851 71.5051V62.7051H195.991V63.7611H194.039V66.5221H195.881V67.5781H194.039V70.4491H195.991V71.5051H192.851ZM196.965 71.5051L198.043 62.7051H200.023L201.101 71.5051H199.885L199.676 69.3106H198.389L198.186 71.5051H196.965ZM198.505 68.2546H199.566L199.379 66.3186L199.187 63.7611H198.879L198.692 66.3186L198.505 68.2546ZM202.34 71.5051V62.7051H204.073C204.729 62.7051 205.204 62.8426 205.497 63.1176C205.794 63.3926 205.954 63.8491 205.976 64.4871C205.987 64.7548 205.992 65.0005 205.992 65.2241C205.996 65.4441 205.996 65.6623 205.992 65.8786C205.992 66.0913 205.987 66.3168 205.976 66.5551C205.965 66.9695 205.893 67.3068 205.761 67.5671C205.633 67.8238 205.433 68.0145 205.162 68.1391L206.124 71.5051H204.859L204.04 68.3371H203.528V71.5051H202.34ZM203.528 67.2866H204.067C204.306 67.2866 204.482 67.2316 204.595 67.1216C204.713 67.008 204.777 66.8393 204.788 66.6156C204.799 66.381 204.806 66.1408 204.81 65.8951C204.814 65.6458 204.814 65.3983 204.81 65.1526C204.806 64.9033 204.799 64.6613 204.788 64.4266C204.777 64.203 204.715 64.0361 204.601 63.9261C204.487 63.8161 204.311 63.7611 204.073 63.7611H203.528V67.2866ZM208.238 71.5051V63.7611H206.973V62.7051H210.696V63.7611H209.431V71.5051H208.238ZM211.819 71.5051V62.7051H213.007V66.5221H214.289V62.7051H215.477V71.5051H214.289V67.5781H213.007V71.5051H211.819ZM220.639 72.7041C220.126 72.7408 219.728 72.6711 219.445 72.4951C219.167 72.3228 218.982 72.024 218.89 71.5986C218.234 71.5986 217.759 71.4593 217.465 71.1806C217.176 70.8983 217.025 70.4308 217.014 69.7781C217.003 69.3381 216.996 68.8945 216.992 68.4471C216.989 67.9998 216.987 67.5525 216.987 67.1051C216.987 66.6541 216.989 66.2068 216.992 65.7631C216.996 65.3158 217.003 64.8703 217.014 64.4266C217.025 63.7776 217.176 63.3138 217.465 63.0351C217.759 62.7528 218.235 62.6116 218.895 62.6116C219.555 62.6116 220.028 62.7528 220.314 63.0351C220.604 63.3138 220.756 63.7776 220.771 64.4266C220.786 64.874 220.795 65.3213 220.798 65.7686C220.806 66.216 220.809 66.6633 220.809 67.1106C220.809 67.558 220.806 68.0053 220.798 68.4526C220.795 68.8963 220.786 69.3381 220.771 69.7781C220.764 70.1961 220.698 70.5353 220.573 70.7956C220.448 71.0523 220.256 71.243 219.995 71.3676C220.032 71.518 220.104 71.6225 220.21 71.6811C220.316 71.7435 220.459 71.7655 220.639 71.7471V72.7041ZM218.895 70.6141C219.13 70.6141 219.302 70.5646 219.412 70.4656C219.522 70.363 219.579 70.2035 219.583 69.9871C219.601 69.5325 219.612 69.0613 219.616 68.5736C219.623 68.0823 219.627 67.5873 219.627 67.0886C219.627 66.59 219.623 66.0986 219.616 65.6146C219.609 65.1306 219.598 64.665 219.583 64.2176C219.579 64.0013 219.522 63.8436 219.412 63.7446C219.302 63.642 219.13 63.5906 218.895 63.5906C218.664 63.5906 218.492 63.642 218.378 63.7446C218.268 63.8436 218.21 64.0013 218.202 64.2176C218.188 64.665 218.175 65.1306 218.164 65.6146C218.157 66.0986 218.153 66.59 218.153 67.0886C218.157 67.5873 218.162 68.0823 218.169 68.5736C218.177 69.0613 218.188 69.5325 218.202 69.9871C218.21 70.2035 218.268 70.363 218.378 70.4656C218.492 70.5646 218.664 70.6141 218.895 70.6141ZM224.107 71.5986C223.439 71.5986 222.961 71.4593 222.671 71.1806C222.385 70.8983 222.238 70.4308 222.231 69.7781C222.216 68.6048 222.209 67.426 222.209 66.2416C222.209 65.0536 222.216 63.8748 222.231 62.7051H223.419C223.408 63.4861 223.401 64.2891 223.397 65.1141C223.393 65.9355 223.393 66.7586 223.397 67.5836C223.401 68.405 223.406 69.2061 223.414 69.9871C223.414 70.1961 223.472 70.3538 223.59 70.4601C223.707 70.5628 223.879 70.6141 224.107 70.6141C224.338 70.6141 224.508 70.5628 224.618 70.4601C224.732 70.3538 224.789 70.1961 224.789 69.9871C224.796 69.2061 224.801 68.405 224.805 67.5836C224.809 66.7586 224.809 65.9355 224.805 65.1141C224.805 64.2891 224.8 63.4861 224.789 62.7051H225.977C225.995 63.8748 226.004 65.0536 226.004 66.2416C226.004 67.426 225.995 68.6048 225.977 69.7781C225.969 70.4308 225.821 70.8983 225.531 71.1806C225.245 71.4593 224.77 71.5986 224.107 71.5986ZM227.142 71.5051L228.22 62.7051H230.2L231.278 71.5051H230.062L229.853 69.3106H228.566L228.363 71.5051H227.142ZM228.682 68.2546H229.743L229.556 66.3186L229.364 63.7611H229.056L228.869 66.3186L228.682 68.2546ZM232.517 71.5051V62.7051H233.782L233.766 64.8116L233.568 66.9236H233.804L234.42 64.7126L235.119 62.7051H236.422L235.036 66.4836L236.521 71.5051H235.311L234.255 67.8311L233.727 69.0741V71.5051H232.517ZM237.697 71.5051V62.7051H240.838V63.7611H238.885V66.5221H240.728V67.5781H238.885V70.4491H240.838V71.5051H237.697ZM246.892 71.5986C246.232 71.5986 245.755 71.4593 245.462 71.1806C245.172 70.8983 245.022 70.4308 245.011 69.7781C245 69.3381 244.992 68.8945 244.989 68.4471C244.985 67.9998 244.983 67.5525 244.983 67.1051C244.983 66.6541 244.985 66.2068 244.989 65.7631C244.992 65.3158 245 64.8703 245.011 64.4266C245.022 63.7776 245.172 63.3138 245.462 63.0351C245.755 62.7528 246.232 62.6116 246.892 62.6116C247.552 62.6116 248.025 62.7528 248.311 63.0351C248.6 63.3138 248.753 63.7776 248.767 64.4266C248.782 64.874 248.791 65.3213 248.795 65.7686C248.802 66.216 248.806 66.6633 248.806 67.1106C248.806 67.558 248.802 68.0053 248.795 68.4526C248.791 68.8963 248.782 69.3381 248.767 69.7781C248.753 70.4308 248.6 70.8983 248.311 71.1806C248.025 71.4593 247.552 71.5986 246.892 71.5986ZM246.892 70.6141C247.126 70.6141 247.299 70.5646 247.409 70.4656C247.519 70.363 247.576 70.2035 247.579 69.9871C247.598 69.5325 247.609 69.0613 247.612 68.5736C247.62 68.0823 247.623 67.5873 247.623 67.0886C247.623 66.59 247.62 66.0986 247.612 65.6146C247.605 65.1306 247.594 64.665 247.579 64.2176C247.576 64.0013 247.517 63.8436 247.403 63.7446C247.293 63.642 247.123 63.5906 246.892 63.5906C246.661 63.5906 246.488 63.642 246.375 63.7446C246.265 63.8436 246.206 64.0013 246.199 64.2176C246.184 64.665 246.171 65.1306 246.16 65.6146C246.153 66.0986 246.149 66.59 246.149 67.0886C246.153 67.5873 246.158 68.0823 246.166 68.5736C246.173 69.0613 246.184 69.5325 246.199 69.9871C246.206 70.2035 246.265 70.363 246.375 70.4656C246.488 70.5646 246.661 70.6141 246.892 70.6141ZM250.304 71.5051V62.7051H253.445V63.7611H251.492V66.5221H253.335V67.5781H251.492V71.5051H250.304ZM258.309 71.5051V63.7611H257.044V62.7051H260.768V63.7611H259.503V71.5051H258.309ZM261.891 71.5051V62.7051H263.079V66.5221H264.36V62.7051H265.548V71.5051H264.36V67.5781H263.079V71.5051H261.891ZM267.124 71.5051V62.7051H270.265V63.7611H268.312V66.5221H270.155V67.5781H268.312V70.4491H270.265V71.5051H267.124ZM274.476 71.5051V62.7051H276.209C276.865 62.7051 277.34 62.8426 277.633 63.1176C277.93 63.3926 278.09 63.8491 278.112 64.4871C278.127 64.8868 278.134 65.2498 278.134 65.5761C278.134 65.9025 278.127 66.2453 278.112 66.6046C278.09 67.239 277.93 67.6955 277.633 67.9741C277.34 68.2491 276.863 68.3866 276.203 68.3866H275.664V71.5051H274.476ZM275.664 67.3306H276.203C276.442 67.3306 276.618 67.2756 276.731 67.1656C276.849 67.052 276.913 66.8851 276.924 66.6651C276.935 66.4305 276.942 66.1848 276.946 65.9281C276.95 65.6715 276.95 65.4166 276.946 65.1636C276.942 64.907 276.935 64.6613 276.924 64.4266C276.913 64.203 276.851 64.0361 276.737 63.9261C276.623 63.8161 276.447 63.7611 276.209 63.7611H275.664V67.3306ZM279.463 71.5051V62.7051H280.651V66.5221H281.932V62.7051H283.12V71.5051H281.932V67.5781H280.651V71.5051H279.463ZM284.696 71.5051V62.7051H285.884V71.5051H284.696ZM287.459 71.5051V62.7051H288.647V70.4491H290.611V71.5051H287.459ZM291.812 71.5051V62.7051H293V71.5051H291.812ZM294.575 71.5051V62.7051H296.308C296.964 62.7051 297.439 62.8426 297.732 63.1176C298.029 63.3926 298.189 63.8491 298.211 64.4871C298.225 64.8868 298.233 65.2498 298.233 65.5761C298.233 65.9025 298.225 66.2453 298.211 66.6046C298.189 67.239 298.029 67.6955 297.732 67.9741C297.439 68.2491 296.962 68.3866 296.302 68.3866H295.763V71.5051H294.575ZM295.763 67.3306H296.302C296.54 67.3306 296.716 67.2756 296.83 67.1656C296.947 67.052 297.012 66.8851 297.023 66.6651C297.034 66.4305 297.041 66.1848 297.045 65.9281C297.048 65.6715 297.048 65.4166 297.045 65.1636C297.041 64.907 297.034 64.6613 297.023 64.4266C297.012 64.203 296.949 64.0361 296.836 63.9261C296.722 63.8161 296.546 63.7611 296.308 63.7611H295.763V67.3306ZM299.562 71.5051V62.7051H301.294C301.95 62.7051 302.425 62.8426 302.719 63.1176C303.016 63.3926 303.175 63.8491 303.197 64.4871C303.212 64.8868 303.219 65.2498 303.219 65.5761C303.219 65.9025 303.212 66.2453 303.197 66.6046C303.175 67.239 303.016 67.6955 302.719 67.9741C302.425 68.2491 301.949 68.3866 301.289 68.3866H300.75V71.5051H299.562ZM300.75 67.3306H301.289C301.527 67.3306 301.703 67.2756 301.817 67.1656C301.934 67.052 301.998 66.8851 302.009 66.6651C302.02 66.4305 302.027 66.1848 302.031 65.9281C302.035 65.6715 302.035 65.4166 302.031 65.1636C302.027 64.907 302.02 64.6613 302.009 64.4266C301.998 64.203 301.936 64.0361 301.822 63.9261C301.708 63.8161 301.532 63.7611 301.294 63.7611H300.75V67.3306ZM304.548 71.5051V62.7051H305.736V71.5051H304.548ZM307.311 71.5051V62.7051H309.126L309.698 65.4991L310.374 70.4491H310.644L310.424 66.1481L310.336 62.7051H311.491V71.5051H309.593L308.988 68.4856L308.449 63.7556H308.163L308.367 68.1721L308.46 71.5051H307.311ZM313.06 71.5051V62.7051H316.201V63.7611H314.248V66.5221H316.091V67.5781H314.248V70.4491H316.201V71.5051H313.06ZM319.253 71.5986C318.597 71.5986 318.127 71.4575 317.845 71.1751C317.563 70.8891 317.409 70.4198 317.383 69.7671C317.379 69.5948 317.376 69.428 317.372 69.2666C317.372 69.1016 317.374 68.9366 317.378 68.7716C317.385 68.6066 317.396 68.438 317.411 68.2656H318.533C318.518 68.559 318.509 68.8523 318.505 69.1456C318.505 69.439 318.514 69.7158 318.533 69.9761C318.547 70.1925 318.611 70.3538 318.725 70.4601C318.839 70.5628 319.013 70.6141 319.248 70.6141C319.479 70.6141 319.645 70.5628 319.748 70.4601C319.851 70.3538 319.913 70.1925 319.935 69.9761C319.946 69.8111 319.953 69.6571 319.957 69.5141C319.961 69.3711 319.961 69.2263 319.957 69.0796C319.953 68.933 319.946 68.7716 319.935 68.5956C319.92 68.3793 319.876 68.1941 319.803 68.0401C319.73 67.8861 319.596 67.7835 319.402 67.7321L318.665 67.5451C318.335 67.4608 318.076 67.338 317.889 67.1766C317.702 67.0116 317.568 66.8026 317.488 66.5496C317.407 66.2966 317.361 65.9941 317.35 65.6421C317.346 65.4441 317.345 65.2425 317.345 65.0371C317.348 64.8318 317.352 64.6283 317.356 64.4266C317.37 63.994 317.44 63.6456 317.565 63.3816C317.693 63.114 317.893 62.9196 318.164 62.7986C318.439 62.674 318.8 62.6116 319.248 62.6116C319.882 62.6116 320.34 62.7528 320.623 63.0351C320.909 63.3175 321.064 63.7831 321.09 64.4321C321.097 64.6118 321.099 64.8336 321.096 65.0976C321.092 65.358 321.085 65.6183 321.074 65.8786H319.93C319.941 65.6036 319.946 65.3286 319.946 65.0536C319.95 64.775 319.946 64.4981 319.935 64.2231C319.931 64.0105 319.871 63.8528 319.754 63.7501C319.636 63.6438 319.466 63.5906 319.242 63.5906C319.007 63.5906 318.837 63.6438 318.731 63.7501C318.624 63.8528 318.562 64.0105 318.544 64.2231C318.525 64.4578 318.516 64.6943 318.516 64.9326C318.52 65.171 318.529 65.4075 318.544 65.6421C318.558 65.8768 318.604 66.0656 318.681 66.2086C318.758 66.3516 318.897 66.4488 319.099 66.5001L319.765 66.6596C320.113 66.7403 320.384 66.8668 320.579 67.0391C320.773 67.2078 320.91 67.4223 320.991 67.6826C321.072 67.9393 321.118 68.2436 321.129 68.5956C321.136 68.7496 321.14 68.889 321.14 69.0136C321.14 69.1383 321.138 69.2611 321.134 69.3821C321.13 69.4995 321.127 69.6278 321.123 69.7671C321.097 70.4198 320.942 70.8891 320.656 71.1751C320.373 71.4575 319.906 71.5986 319.253 71.5986Z" fill="#0C71D1"/>
<defs>
<filter id="filter0_dddd_368_20" x="30.3377" y="-6.22516" width="71.9382" height="111.32" filterUnits="userSpaceOnUse" color-interpolation-filters="sRGB">
<feFlood flood-opacity="0" result="BackgroundImageFix"/>
<feColorMatrix in="SourceAlpha" type="matrix" values="0 0 0 0 0 0 0 0 0 0 0 0 0 0 0 0 0 0 127 0" result="hardAlpha"/>
<feOffset dy="1.52318"/>
<feGaussianBlur stdDeviation="1.6755"/>
<feColorMatrix type="matrix" values="0 0 0 0 1 0 0 0 0 1 0 0 0 0 1 0 0 0 0.6 0"/>
<feBlend mode="normal" in2="BackgroundImageFix" result="effect1_dropShadow_368_20"/>
<feColorMatrix in="SourceAlpha" type="matrix" values="0 0 0 0 0 0 0 0 0 0 0 0 0 0 0 0 0 0 127 0" result="hardAlpha"/>
<feOffset dy="6.09272"/>
<feGaussianBlur stdDeviation="3.04636"/>
<feColorMatrix type="matrix" values="0 0 0 0 1 0 0 0 0 1 0 0 0 0 1 0 0 0 0.6 0"/>
<feBlend mode="normal" in2="effect1_dropShadow_368_20" result="effect2_dropShadow_368_20"/>
<feColorMatrix in="SourceAlpha" type="matrix" values="0 0 0 0 0 0 0 0 0 0 0 0 0 0 0 0 0 0 127 0" result="hardAlpha"/>
<feOffset dy="24.2947"/>
<feGaussianBlur stdDeviation="4.87417"/>
<feColorMatrix type="matrix" values="0 0 0 0 1 0 0 0 0 1 0 0 0 0 1 0 0 0 0.3 0"/>
<feBlend mode="normal" in2="effect2_dropShadow_368_20" result="effect3_dropShadow_368_20"/>
<feColorMatrix in="SourceAlpha" type="matrix" values="0 0 0 0 0 0 0 0 0 0 0 0 0 0 0 0 0 0 127 0" result="hardAlpha"/>
<feOffset dy="37.9271"/>
<feGaussianBlur stdDeviation="5.33113"/>
<feColorMatrix type="matrix" values="0 0 0 0 1 0 0 0 0 1 0 0 0 0 1 0 0 0 0.2 0"/>
<feBlend mode="normal" in2="effect3_dropShadow_368_20" result="effect4_dropShadow_368_20"/>
<feBlend mode="normal" in="SourceGraphic" in2="effect4_dropShadow_368_20" result="shape"/>
</filter>
<linearGradient id="paint0_linear_368_20" x1="70.3679" y1="11.0355" x2="70.3693" y2="7.41947" gradientUnits="userSpaceOnUse">
<stop stop-color="#0C71D1"/>
<stop offset="0.479167" stop-color="#20B1E7"/>
<stop offset="1" stop-color="#10DFCC"/>
<stop offset="1" stop-color="#10DFCC"/>
</linearGradient>
<linearGradient id="paint1_linear_368_20" x1="73.5584" y1="29.1437" x2="73.5766" y2="-3.40027" gradientUnits="userSpaceOnUse">
<stop stop-color="#0C71D1"/>
<stop offset="0.479167" stop-color="#20B1E7"/>
<stop offset="1" stop-color="#10DFCC"/>
<stop offset="1" stop-color="#10DFCC"/>
</linearGradient>
<linearGradient id="paint2_linear_368_20" x1="75.8801" y1="11.0484" x2="75.8816" y2="7.43242" gradientUnits="userSpaceOnUse">
<stop stop-color="#0C71D1"/>
<stop offset="0.479167" stop-color="#20B1E7"/>
<stop offset="1" stop-color="#10DFCC"/>
<stop offset="1" stop-color="#10DFCC"/>
</linearGradient>
<linearGradient id="paint3_linear_368_20" x1="75.8801" y1="17.0801" x2="75.8816" y2="13.4641" gradientUnits="userSpaceOnUse">
<stop stop-color="#0C71D1"/>
<stop offset="0.479167" stop-color="#20B1E7"/>
<stop offset="1" stop-color="#10DFCC"/>
<stop offset="1" stop-color="#10DFCC"/>
</linearGradient>
<linearGradient id="paint4_linear_368_20" x1="75.8801" y1="23.1119" x2="75.8816" y2="19.4959" gradientUnits="userSpaceOnUse">
<stop stop-color="#0C71D1"/>
<stop offset="0.479167" stop-color="#20B1E7"/>
<stop offset="1" stop-color="#10DFCC"/>
<stop offset="1" stop-color="#10DFCC"/>
</linearGradient>
<linearGradient id="paint5_linear_368_20" x1="59.2086" y1="29.1436" x2="59.2203" y2="2.02359" gradientUnits="userSpaceOnUse">
<stop stop-color="#0C71D1"/>
<stop offset="0.479167" stop-color="#20B1E7"/>
<stop offset="1" stop-color="#10DFCC"/>
<stop offset="1" stop-color="#10DFCC"/>
</linearGradient>
<linearGradient id="paint6_linear_368_20" x1="73.5596" y1="29.1429" x2="73.5777" y2="-3.40102" gradientUnits="userSpaceOnUse">
<stop stop-color="#0C71D1"/>
<stop offset="0.479167" stop-color="#20B1E7"/>
<stop offset="1" stop-color="#10DFCC"/>
<stop offset="1" stop-color="#10DFCC"/>
</linearGradient>
<linearGradient id="paint7_linear_368_20" x1="73.25" y1="26.4862" x2="73.2657" y2="0.743744" gradientUnits="userSpaceOnUse">
<stop stop-color="#0C71D1"/>
<stop offset="0.479167" stop-color="#20B1E7"/>
<stop offset="1" stop-color="#10DFCC"/>
<stop offset="1" stop-color="#10DFCC"/>
</linearGradient>
<linearGradient id="paint8_linear_368_20" x1="59.2086" y1="29.1437" x2="59.2203" y2="2.02368" gradientUnits="userSpaceOnUse">
<stop stop-color="#0C71D1"/>
<stop offset="0.479167" stop-color="#20B1E7"/>
<stop offset="1" stop-color="#10DFCC"/>
<stop offset="1" stop-color="#10DFCC"/>
</linearGradient>
<linearGradient id="paint9_linear_368_20" x1="66.3131" y1="55.783" x2="66.3103" y2="36.2392" gradientUnits="userSpaceOnUse">
<stop stop-color="#FEF45A"/>
<stop offset="0.479167" stop-color="#FFB458"/>
<stop offset="1" stop-color="#FF3841"/>
</linearGradient>
<linearGradient id="paint10_linear_368_20" x1="192.114" y1="50.7526" x2="192.119" y2="-0.803975" gradientUnits="userSpaceOnUse">
<stop stop-color="#0C71D1"/>
<stop offset="0.479167" stop-color="#20B1E7"/>
<stop offset="1" stop-color="#10DFCC"/>
<stop offset="1" stop-color="#10DFCC"/>
</linearGradient>
</defs>
</svg>
