<svg width="495" height="318" viewBox="0 0 495 318" fill="none" xmlns="http://www.w3.org/2000/svg">
<g opacity="0.9">
<rect x="177.5" y="0.5" width="140" height="140" rx="6.66667" fill="#FEFEFE"/>
<g filter="url(#filter0_b_1200_9244)">
<path fill-rule="evenodd" clip-rule="evenodd" d="M258.031 78.8787H298.44C299.869 78.8787 301.028 77.7203 301.028 76.2914C301.028 74.8625 299.869 73.7041 298.44 73.7041H261.632L258.031 78.8787ZM255.369 73.7041H196.556C195.127 73.7041 193.969 74.8625 193.969 76.2914C193.969 77.7203 195.127 78.8787 196.556 78.8787H251.778L255.369 73.7041Z" fill="#0C71D1"/>
<path fill-rule="evenodd" clip-rule="evenodd" d="M255.777 73.7046H261.167L227.464 122.135C226.316 121.571 224.509 120.599 223.596 120.075L255.777 73.7046Z" fill="#0C71D1"/>
<mask id="mask0_1200_9244" style="mask-type:alpha" maskUnits="userSpaceOnUse" x="235" y="70" width="25" height="24">
<path d="M247.389 70.7104C247.428 70.6477 247.52 70.6477 247.559 70.7104L249.19 73.3003C249.221 73.3491 249.286 73.3622 249.333 73.3289L251.859 71.5435C251.919 71.5005 252.004 71.536 252.016 71.6095L252.505 74.606C252.515 74.6635 252.571 74.701 252.627 74.6878L255.659 73.9805C255.732 73.9634 255.798 74.0296 255.78 74.1025L255.056 77.0485C255.042 77.1059 255.08 77.1629 255.138 77.172L258.212 77.6483C258.287 77.6599 258.323 77.747 258.278 77.8078L256.453 80.2577C256.418 80.3055 256.431 80.3736 256.482 80.4042L259.131 81.988C259.197 82.0271 259.197 82.1217 259.131 82.1608L256.482 83.7447C256.431 83.7752 256.418 83.8433 256.453 83.8912L258.278 86.341C258.323 86.4018 258.287 86.4889 258.212 86.5006L255.138 86.9768C255.08 86.9859 255.042 87.043 255.056 87.1003L255.78 90.0463C255.798 90.1192 255.732 90.1854 255.659 90.1683L252.627 89.461C252.571 89.4478 252.515 89.4853 252.505 89.5428L252.016 92.5394C252.004 92.6128 251.919 92.6483 251.859 92.6053L249.333 90.82C249.286 90.7867 249.221 90.7997 249.19 90.8485L247.559 93.4384C247.52 93.5011 247.428 93.5011 247.389 93.4384L245.758 90.8485C245.727 90.7997 245.661 90.7867 245.614 90.82L243.089 92.6053C243.028 92.6483 242.943 92.6128 242.931 92.5394L242.442 89.5428C242.433 89.4853 242.377 89.4478 242.32 89.461L239.288 90.1683C239.215 90.1854 239.15 90.1192 239.168 90.0463L239.892 87.1003C239.906 87.043 239.868 86.9859 239.809 86.9768L236.735 86.5006C236.66 86.4889 236.625 86.4018 236.67 86.341L238.494 83.8912C238.53 83.8433 238.516 83.7752 238.465 83.7447L235.816 82.1608C235.751 82.1217 235.751 82.0271 235.816 81.988L238.465 80.4042C238.516 80.3736 238.53 80.3055 238.494 80.2577L236.67 77.8078C236.625 77.747 236.66 77.6599 236.735 77.6483L239.809 77.172C239.868 77.1629 239.906 77.1059 239.892 77.0485L239.168 74.1025C239.15 74.0296 239.215 73.9634 239.288 73.9805L242.32 74.6878C242.377 74.701 242.433 74.6635 242.442 74.606L242.931 71.6095C242.943 71.536 243.028 71.5005 243.089 71.5435L245.614 73.3289C245.661 73.3622 245.727 73.3491 245.758 73.3003L247.389 70.7104Z" fill="#FF0C16"/>
</mask>
<g mask="url(#mask0_1200_9244)">
<path d="M235.672 82.0737C235.672 85.1235 236.915 88.0483 239.129 90.2048C241.342 92.3613 244.344 93.5728 247.474 93.5728C250.604 93.5728 253.605 92.3613 255.819 90.2048C258.032 88.0483 259.275 85.1235 259.275 82.0737L247.474 82.0737H235.672Z" fill="#FF3841"/>
</g>
<mask id="mask1_1200_9244" style="mask-type:alpha" maskUnits="userSpaceOnUse" x="245" y="19" width="33" height="45">
<path d="M264.476 38.373H271.023V44.7522H264.476V51.1314H271.023V57.5106H264.476V63.8898H277.57V19.2354H248.108L245.986 22.2196L264.476 35.0877V38.373ZM264.476 25.6146H271.023V31.9938H264.476V25.6146Z" fill="#0070CF"/>
</mask>
<g mask="url(#mask1_1200_9244)">
<path d="M259.36 25.5869H252.812V31.9661H259.36V25.5869Z" fill="url(#paint0_linear_1200_9244)"/>
</g>
<path d="M242.391 12.8564C241.931 12.8564 241.559 13.229 241.559 13.6885V18.7068C241.559 18.9783 241.691 19.2327 241.913 19.3884L244.701 21.3408L246.8 22.7955C247.351 23.1781 248.106 22.7832 248.106 22.1117V20.0678C248.106 19.6082 248.478 19.2357 248.938 19.2357H276.736C277.195 19.2357 277.568 19.6082 277.568 20.0678V63.058C277.568 63.5176 277.195 63.8901 276.736 63.8901H262.664C262.205 63.8901 261.832 64.2627 261.832 64.7222L261.832 67.1482L261.832 69.4372C261.832 69.8968 262.205 70.2693 262.664 70.2693H283.283C283.743 70.2693 284.115 69.8968 284.115 69.4372V13.6885C284.115 13.229 283.743 12.8564 283.283 12.8564H242.391Z" fill="url(#paint1_linear_1200_9244)"/>
<path d="M271.02 25.6147H264.473V31.994H271.02V25.6147Z" fill="url(#paint2_linear_1200_9244)"/>
<path d="M271.02 38.373H264.473V44.7523H271.02V38.373Z" fill="url(#paint3_linear_1200_9244)"/>
<path d="M271.02 51.1313H264.473V57.5106H271.02V51.1313Z" fill="url(#paint4_linear_1200_9244)"/>
<path d="M209.925 38.125C209.702 38.2806 209.568 38.5357 209.568 38.808V69.4373C209.568 69.8969 209.941 70.2694 210.4 70.2694H228.378C228.837 70.2694 229.21 69.8969 229.21 69.4373V55.1535C229.21 54.6939 229.582 54.3214 230.042 54.3214H234.925C235.384 54.3214 235.757 54.6939 235.757 55.1535V69.4373C235.757 69.8969 236.13 70.2694 236.589 70.2694H254.566C255.026 70.2694 255.399 69.8969 255.399 69.4373V38.808C255.399 38.5357 255.265 38.2806 255.042 38.125L232.959 22.7561C232.673 22.5573 232.294 22.5573 232.008 22.7561L209.925 38.125ZM248.851 63.0581C248.851 63.5177 248.479 63.8902 248.019 63.8902H243.136C242.677 63.8902 242.304 63.5177 242.304 63.0581V48.7743C242.304 48.3147 241.932 47.9422 241.472 47.9422H223.495C223.035 47.9422 222.663 48.3147 222.663 48.7743V63.0581C222.663 63.5177 222.29 63.8902 221.831 63.8902H216.948C216.488 63.8902 216.116 63.5177 216.116 63.0581V42.0026C216.116 41.7275 216.251 41.4702 216.479 41.3152L232.015 30.7191C232.297 30.5262 232.669 30.5262 232.952 30.7191L248.488 41.3152C248.715 41.4702 248.851 41.7275 248.851 42.0026V63.0581Z" fill="url(#paint5_linear_1200_9244)"/>
<path opacity="0.3" fill-rule="evenodd" clip-rule="evenodd" d="M242.393 12.855C241.933 12.855 241.561 13.2275 241.561 13.6871V18.7054C241.561 18.9768 241.693 19.2312 241.915 19.387L244.703 21.3393L246.802 22.7941C247.353 23.1766 248.108 22.7817 248.108 22.1102V20.0663C248.108 19.6067 248.48 19.2342 248.94 19.2342H276.738C277.197 19.2342 277.57 19.6067 277.57 20.0663V63.0566C277.57 63.5161 277.197 63.8887 276.738 63.8887H262.666C262.207 63.8887 261.834 64.2612 261.834 64.7208V67.1467V69.4358C261.834 69.8953 262.207 70.2679 262.666 70.2679H283.285C283.745 70.2679 284.117 69.8953 284.117 69.4358V13.6871C284.117 13.2275 283.745 12.855 283.285 12.855H242.393Z" fill="url(#paint6_linear_1200_9244)"/>
<path opacity="0.3" fill-rule="evenodd" clip-rule="evenodd" d="M246.824 22.8132C247.373 23.1632 248.102 22.7704 248.102 22.1104V20.0665C248.102 19.6069 248.474 19.2344 248.934 19.2344H276.732C277.192 19.2344 277.564 19.6069 277.564 20.0665V63.0567C277.564 63.5163 277.192 63.8888 276.732 63.8888H262.661C262.229 63.8888 261.874 64.2179 261.832 64.6389L261.858 57.4887V44.7302L261.832 33.2285L246.824 22.8132Z" fill="url(#paint7_linear_1200_9244)"/>
<path opacity="0.3" d="M248.851 63.0581C248.851 63.5177 248.479 63.8902 248.019 63.8902H243.136C242.677 63.8902 242.304 63.5177 242.304 63.0581V48.7743C242.304 48.3147 241.932 47.9422 241.472 47.9422H223.495C223.035 47.9422 222.663 48.3147 222.663 48.7743V63.0581C222.663 63.5177 222.29 63.8902 221.831 63.8902H216.948C216.488 63.8902 216.116 63.5177 216.116 63.0581V42.0026C216.116 41.7275 216.251 41.4702 216.479 41.3152L232.015 30.7191C232.297 30.5262 232.669 30.5262 232.952 30.7191L248.488 41.3152C248.715 41.4702 248.851 41.7275 248.851 42.0026V63.0581Z" fill="url(#paint8_linear_1200_9244)"/>
<path fill-rule="evenodd" clip-rule="evenodd" d="M210.927 82.765C210.92 82.3974 211.219 82.0991 211.586 82.0991H217.225C217.592 82.0991 217.889 82.3973 217.898 82.7648C218.023 88.0522 219.636 93.1668 222.508 97.5719L232.004 84.3573C232.497 87.5739 234.036 90.5751 236.424 92.9026C237.54 93.9898 238.807 94.8963 240.177 95.6026L234.301 104.069C232.395 102.981 230.622 101.653 229.033 100.104C228.893 99.968 228.755 99.8303 228.619 99.6913L226.584 102.522C232.136 107.922 239.661 110.955 247.506 110.955C255.361 110.955 262.893 107.915 268.447 102.503C273.84 97.2489 276.938 90.1767 277.114 82.7648C277.122 82.3973 277.42 82.0991 277.787 82.0991L283.426 82.0991C283.793 82.0991 284.092 82.3974 284.085 82.765C283.939 90.3786 281.296 97.7095 276.602 103.71L282.033 111.267C281.325 112.062 280.588 112.833 279.822 113.579C275.58 117.713 270.543 120.992 264.999 123.229C259.456 125.466 253.515 126.618 247.515 126.618C241.515 126.618 235.573 125.466 230.03 123.229C229.29 122.931 228.559 122.613 227.837 122.278L230.434 118.546C230.878 118.744 231.326 118.934 231.779 119.116C236.768 121.13 242.115 122.166 247.515 122.166C252.915 122.166 258.262 121.13 263.251 119.116C267.526 117.391 271.467 114.977 274.91 111.98L272.284 108.326C265.544 114.372 256.704 117.746 247.506 117.746C237.803 117.746 228.497 113.99 221.636 107.305C214.936 100.777 211.103 91.9781 210.927 82.765ZM247.512 107.562C244.6 107.562 241.738 107.089 239.035 106.185L245.273 97.2207C246.01 97.3243 246.758 97.3772 247.512 97.3772C251.67 97.3772 255.658 95.7676 258.599 92.9026C260.896 90.6637 262.407 87.8015 262.958 84.7239L270.178 94.7711C269.04 96.7048 267.636 98.5005 265.99 100.104C261.089 104.879 254.442 107.562 247.512 107.562ZM223.334 119.872L225.895 116.182C223.196 114.556 220.692 112.628 218.438 110.431C217.41 109.43 216.44 108.378 215.53 107.281L212.814 111.06C213.577 111.928 214.375 112.769 215.207 113.579C217.668 115.977 220.395 118.086 223.334 119.872ZM226.045 82.0999H221.58C221.469 82.0999 221.379 82.1902 221.38 82.3014C221.395 84.1326 221.612 85.9423 222.019 87.7022L226.045 82.0999ZM211.788 101.939C210.94 100.487 210.183 98.9827 209.524 97.4329C207.545 92.777 206.486 87.8009 206.4 82.7661C206.393 82.3985 206.096 82.1004 205.728 82.1004H202.491C202.123 82.1004 201.825 82.3985 201.83 82.7661C201.916 88.3856 203.094 93.9405 205.303 99.1365C206.309 101.503 207.52 103.775 208.921 105.929L211.788 101.939ZM283.092 102.191L285.951 106.169C287.418 103.944 288.683 101.591 289.727 99.1365C291.935 93.9405 293.113 88.3856 293.199 82.7661C293.205 82.3985 292.906 82.1004 292.539 82.1004L289.301 82.1004C288.934 82.1004 288.636 82.3985 288.63 82.7661C288.544 87.8009 287.485 92.777 285.505 97.4329C284.808 99.0727 284.002 100.662 283.092 102.191ZM268.654 82.0999L272.923 88.0403C273.382 86.1745 273.627 84.2501 273.643 82.3014C273.644 82.1902 273.554 82.0999 273.443 82.0999L268.654 82.0999Z" fill="url(#paint9_linear_1200_9244)"/>
</g>
</g>
<g filter="url(#filter1_d_1200_9244)">
<path d="M157.245 210.16C154.165 210.16 151.213 209.757 148.39 208.95C145.566 208.107 143.293 207.025 141.57 205.705L144.595 198.995C146.245 200.168 148.188 201.14 150.425 201.91C152.698 202.643 154.99 203.01 157.3 203.01C159.06 203.01 160.471 202.845 161.535 202.515C162.635 202.148 163.441 201.653 163.955 201.03C164.468 200.407 164.725 199.692 164.725 198.885C164.725 197.858 164.321 197.052 163.515 196.465C162.708 195.842 161.645 195.347 160.325 194.98C159.005 194.577 157.538 194.21 155.925 193.88C154.348 193.513 152.753 193.073 151.14 192.56C149.563 192.047 148.115 191.387 146.795 190.58C145.475 189.773 144.393 188.71 143.55 187.39C142.743 186.07 142.34 184.383 142.34 182.33C142.34 180.13 142.926 178.132 144.1 176.335C145.31 174.502 147.106 173.053 149.49 171.99C151.91 170.89 154.935 170.34 158.565 170.34C160.985 170.34 163.368 170.633 165.715 171.22C168.061 171.77 170.133 172.613 171.93 173.75L169.18 180.515C167.383 179.488 165.586 178.737 163.79 178.26C161.993 177.747 160.233 177.49 158.51 177.49C156.786 177.49 155.375 177.692 154.275 178.095C153.175 178.498 152.386 179.03 151.91 179.69C151.433 180.313 151.195 181.047 151.195 181.89C151.195 182.88 151.598 183.687 152.405 184.31C153.211 184.897 154.275 185.373 155.595 185.74C156.915 186.107 158.363 186.473 159.94 186.84C161.553 187.207 163.148 187.628 164.725 188.105C166.338 188.582 167.805 189.223 169.125 190.03C170.445 190.837 171.508 191.9 172.315 193.22C173.158 194.54 173.58 196.208 173.58 198.225C173.58 200.388 172.975 202.368 171.765 204.165C170.555 205.962 168.74 207.41 166.32 208.51C163.936 209.61 160.911 210.16 157.245 210.16ZM208.818 171H217.728V209.5H208.818V171ZM191.328 209.5H182.418V171H191.328V209.5ZM209.478 193.715H190.668V186.18H209.478V193.715ZM224.527 209.5L241.687 171H250.487L267.702 209.5H258.352L244.272 175.51H247.792L233.657 209.5H224.527ZM233.107 201.25L235.472 194.485H255.272L257.692 201.25H233.107ZM274.446 209.5V171H291.936C296.116 171 299.801 171.807 302.991 173.42C306.181 174.997 308.675 177.215 310.471 180.075C312.268 182.935 313.166 186.327 313.166 190.25C313.166 194.137 312.268 197.528 310.471 200.425C308.675 203.285 306.181 205.522 302.991 207.135C299.801 208.712 296.116 209.5 291.936 209.5H274.446ZM283.356 202.185H291.496C294.063 202.185 296.281 201.708 298.151 200.755C300.058 199.765 301.525 198.372 302.551 196.575C303.615 194.778 304.146 192.67 304.146 190.25C304.146 187.793 303.615 185.685 302.551 183.925C301.525 182.128 300.058 180.753 298.151 179.8C296.281 178.81 294.063 178.315 291.496 178.315H283.356V202.185ZM330.831 186.51H349.366V193.44H330.831V186.51ZM331.491 202.35H352.446V209.5H322.636V171H351.731V178.15H331.491V202.35Z" fill="white"/>
</g>
<g filter="url(#filter2_d_1200_9244)">
<path d="M25.2051 251.692C23.9251 251.692 22.7011 251.5 21.5331 251.116C20.3651 250.716 19.4451 250.204 18.7731 249.58L19.6611 247.708C20.3011 248.268 21.1171 248.732 22.1091 249.1C23.1011 249.468 24.1331 249.652 25.2051 249.652C26.1811 249.652 26.9731 249.54 27.5811 249.316C28.1891 249.092 28.6371 248.788 28.9251 248.404C29.2131 248.004 29.3571 247.556 29.3571 247.06C29.3571 246.484 29.1651 246.02 28.7811 245.668C28.4131 245.316 27.9251 245.036 27.3171 244.828C26.7251 244.604 26.0691 244.412 25.3491 244.252C24.6291 244.092 23.9011 243.908 23.1651 243.7C22.4451 243.476 21.7811 243.196 21.1731 242.86C20.5811 242.524 20.1011 242.076 19.7331 241.516C19.3651 240.94 19.1811 240.204 19.1811 239.308C19.1811 238.444 19.4051 237.652 19.8531 236.932C20.3171 236.196 21.0211 235.612 21.9651 235.18C22.9251 234.732 24.1411 234.508 25.6131 234.508C26.5891 234.508 27.5571 234.636 28.5171 234.892C29.4771 235.148 30.3091 235.516 31.0131 235.996L30.2211 237.916C29.5011 237.436 28.7411 237.092 27.9411 236.884C27.1411 236.66 26.3651 236.548 25.6131 236.548C24.6691 236.548 23.8931 236.668 23.2851 236.908C22.6771 237.148 22.2291 237.468 21.9411 237.868C21.6691 238.268 21.5331 238.716 21.5331 239.212C21.5331 239.804 21.7171 240.276 22.0851 240.628C22.4691 240.98 22.9571 241.26 23.5491 241.468C24.1571 241.676 24.8211 241.868 25.5411 242.044C26.2611 242.204 26.9811 242.388 27.7011 242.596C28.4371 242.804 29.1011 243.076 29.6931 243.412C30.3011 243.748 30.7891 244.196 31.1571 244.756C31.5251 245.316 31.7091 246.036 31.7091 246.916C31.7091 247.764 31.4771 248.556 31.0131 249.292C30.5491 250.012 29.8291 250.596 28.8531 251.044C27.8931 251.476 26.6771 251.692 25.2051 251.692ZM40.2793 241.948H48.9193V243.988H40.2793V241.948ZM40.4953 249.412H50.2873V251.5H38.0953V234.7H49.9513V236.788H40.4953V249.412ZM57.0534 251.5V234.7H59.4534V251.5H57.0534ZM72.2591 251.692C70.9791 251.692 69.7551 251.5 68.5871 251.116C67.4191 250.716 66.4991 250.204 65.8271 249.58L66.7151 247.708C67.3551 248.268 68.1711 248.732 69.1631 249.1C70.1551 249.468 71.1871 249.652 72.2591 249.652C73.2351 249.652 74.0271 249.54 74.6351 249.316C75.2431 249.092 75.6911 248.788 75.9791 248.404C76.2671 248.004 76.4111 247.556 76.4111 247.06C76.4111 246.484 76.2191 246.02 75.8351 245.668C75.4671 245.316 74.9791 245.036 74.3711 244.828C73.7791 244.604 73.1231 244.412 72.4031 244.252C71.6831 244.092 70.9551 243.908 70.2191 243.7C69.4991 243.476 68.8351 243.196 68.2271 242.86C67.6351 242.524 67.1551 242.076 66.7871 241.516C66.4191 240.94 66.2351 240.204 66.2351 239.308C66.2351 238.444 66.4591 237.652 66.9071 236.932C67.3711 236.196 68.0751 235.612 69.0191 235.18C69.9791 234.732 71.1951 234.508 72.6671 234.508C73.6431 234.508 74.6111 234.636 75.5711 234.892C76.5311 235.148 77.3631 235.516 78.0671 235.996L77.2751 237.916C76.5551 237.436 75.7951 237.092 74.9951 236.884C74.1951 236.66 73.4191 236.548 72.6671 236.548C71.7231 236.548 70.9471 236.668 70.3391 236.908C69.7311 237.148 69.2831 237.468 68.9951 237.868C68.7231 238.268 68.5871 238.716 68.5871 239.212C68.5871 239.804 68.7711 240.276 69.1391 240.628C69.5231 240.98 70.0111 241.26 70.6031 241.468C71.2111 241.676 71.8751 241.868 72.5951 242.044C73.3151 242.204 74.0351 242.388 74.7551 242.596C75.4911 242.804 76.1551 243.076 76.7471 243.412C77.3551 243.748 77.8431 244.196 78.2111 244.756C78.5791 245.316 78.7631 246.036 78.7631 246.916C78.7631 247.764 78.5311 248.556 78.0671 249.292C77.6031 250.012 76.8831 250.596 75.9071 251.044C74.9471 251.476 73.7311 251.692 72.2591 251.692ZM85.1494 251.5V234.7H87.1174L94.6534 247.396H93.5974L101.037 234.7H103.005L103.029 251.5H100.725L100.701 238.324H101.253L94.6294 249.46H93.5254L86.8534 238.324H87.4534V251.5H85.1494ZM110.951 251.5V234.7H113.351V251.5H110.951ZM128.773 251.692C127.493 251.692 126.309 251.484 125.221 251.068C124.149 250.636 123.213 250.036 122.413 249.268C121.629 248.484 121.013 247.572 120.565 246.532C120.117 245.492 119.893 244.348 119.893 243.1C119.893 241.852 120.117 240.708 120.565 239.668C121.013 238.628 121.637 237.724 122.437 236.956C123.237 236.172 124.173 235.572 125.245 235.156C126.333 234.724 127.517 234.508 128.797 234.508C130.093 234.508 131.285 234.732 132.373 235.18C133.477 235.612 134.413 236.26 135.181 237.124L133.621 238.636C132.981 237.964 132.261 237.468 131.461 237.148C130.661 236.812 129.805 236.644 128.893 236.644C127.949 236.644 127.069 236.804 126.253 237.124C125.453 237.444 124.757 237.892 124.165 238.468C123.573 239.044 123.109 239.732 122.773 240.532C122.453 241.316 122.293 242.172 122.293 243.1C122.293 244.028 122.453 244.892 122.773 245.692C123.109 246.476 123.573 247.156 124.165 247.732C124.757 248.308 125.453 248.756 126.253 249.076C127.069 249.396 127.949 249.556 128.893 249.556C129.805 249.556 130.661 249.396 131.461 249.076C132.261 248.74 132.981 248.228 133.621 247.54L135.181 249.052C134.413 249.916 133.477 250.572 132.373 251.02C131.285 251.468 130.085 251.692 128.773 251.692ZM162.858 234.7H165.258V251.5H162.858V234.7ZM153.21 251.5H150.81V234.7H153.21V251.5ZM163.074 244.012H152.97V241.924H163.074V244.012ZM170.623 251.5L178.231 234.7H180.607L188.239 251.5H185.719L178.927 236.044H179.887L173.095 251.5H170.623ZM173.863 247.3L174.511 245.38H183.967L184.663 247.3H173.863ZM192.137 251.5V249.868L203.441 235.852L203.705 236.788H192.305V234.7H205.865V236.332L194.609 250.348L194.321 249.412H206.177V251.5H192.137ZM209.734 251.5L217.342 234.7H219.718L227.35 251.5H224.83L218.038 236.044H218.998L212.206 251.5H209.734ZM212.974 247.3L213.622 245.38H223.078L223.774 247.3H212.974ZM232.736 251.5V234.7H239.288C240.76 234.7 242.016 234.932 243.056 235.396C244.096 235.86 244.896 236.532 245.456 237.412C246.016 238.292 246.296 239.34 246.296 240.556C246.296 241.772 246.016 242.82 245.456 243.7C244.896 244.564 244.096 245.228 243.056 245.692C242.016 246.156 240.76 246.388 239.288 246.388H234.056L235.136 245.284V251.5H232.736ZM243.968 251.5L239.696 245.404H242.264L246.584 251.5H243.968ZM235.136 245.524L234.056 244.348H239.216C240.752 244.348 241.912 244.02 242.696 243.364C243.496 242.692 243.896 241.756 243.896 240.556C243.896 239.356 243.496 238.428 242.696 237.772C241.912 237.116 240.752 236.788 239.216 236.788H234.056L235.136 235.588V245.524ZM253.054 251.5V234.7H260.134C261.926 234.7 263.502 235.052 264.862 235.756C266.238 236.46 267.302 237.444 268.054 238.708C268.822 239.972 269.206 241.436 269.206 243.1C269.206 244.764 268.822 246.228 268.054 247.492C267.302 248.756 266.238 249.74 264.862 250.444C263.502 251.148 261.926 251.5 260.134 251.5H253.054ZM255.454 249.412H259.99C261.382 249.412 262.582 249.148 263.59 248.62C264.614 248.092 265.406 247.356 265.966 246.412C266.526 245.452 266.806 244.348 266.806 243.1C266.806 241.836 266.526 240.732 265.966 239.788C265.406 238.844 264.614 238.108 263.59 237.58C262.582 237.052 261.382 236.788 259.99 236.788H255.454V249.412ZM282.543 251.5L290.151 234.7H292.527L300.159 251.5H297.639L290.847 236.044H291.807L285.015 251.5H282.543ZM285.783 247.3L286.431 245.38H295.887L296.583 247.3H285.783ZM310.441 251.692C309.161 251.692 307.937 251.5 306.769 251.116C305.601 250.716 304.681 250.204 304.009 249.58L304.897 247.708C305.537 248.268 306.353 248.732 307.345 249.1C308.337 249.468 309.369 249.652 310.441 249.652C311.417 249.652 312.209 249.54 312.817 249.316C313.425 249.092 313.873 248.788 314.161 248.404C314.449 248.004 314.593 247.556 314.593 247.06C314.593 246.484 314.401 246.02 314.017 245.668C313.649 245.316 313.161 245.036 312.553 244.828C311.961 244.604 311.305 244.412 310.585 244.252C309.865 244.092 309.137 243.908 308.401 243.7C307.681 243.476 307.017 243.196 306.409 242.86C305.817 242.524 305.337 242.076 304.969 241.516C304.601 240.94 304.417 240.204 304.417 239.308C304.417 238.444 304.641 237.652 305.089 236.932C305.553 236.196 306.257 235.612 307.201 235.18C308.161 234.732 309.377 234.508 310.849 234.508C311.825 234.508 312.793 234.636 313.753 234.892C314.713 235.148 315.545 235.516 316.249 235.996L315.457 237.916C314.737 237.436 313.977 237.092 313.177 236.884C312.377 236.66 311.601 236.548 310.849 236.548C309.905 236.548 309.129 236.668 308.521 236.908C307.913 237.148 307.465 237.468 307.177 237.868C306.905 238.268 306.769 238.716 306.769 239.212C306.769 239.804 306.953 240.276 307.321 240.628C307.705 240.98 308.193 241.26 308.785 241.468C309.393 241.676 310.057 241.868 310.777 242.044C311.497 242.204 312.217 242.388 312.937 242.596C313.673 242.804 314.337 243.076 314.929 243.412C315.537 243.748 316.025 244.196 316.393 244.756C316.761 245.316 316.945 246.036 316.945 246.916C316.945 247.764 316.713 248.556 316.249 249.292C315.785 250.012 315.065 250.596 314.089 251.044C313.129 251.476 311.913 251.692 310.441 251.692ZM328.228 251.692C326.948 251.692 325.724 251.5 324.556 251.116C323.388 250.716 322.468 250.204 321.796 249.58L322.684 247.708C323.324 248.268 324.14 248.732 325.132 249.1C326.124 249.468 327.156 249.652 328.228 249.652C329.204 249.652 329.996 249.54 330.604 249.316C331.212 249.092 331.66 248.788 331.948 248.404C332.236 248.004 332.38 247.556 332.38 247.06C332.38 246.484 332.188 246.02 331.804 245.668C331.436 245.316 330.948 245.036 330.34 244.828C329.748 244.604 329.092 244.412 328.372 244.252C327.652 244.092 326.924 243.908 326.188 243.7C325.468 243.476 324.804 243.196 324.196 242.86C323.604 242.524 323.124 242.076 322.756 241.516C322.388 240.94 322.204 240.204 322.204 239.308C322.204 238.444 322.428 237.652 322.876 236.932C323.34 236.196 324.044 235.612 324.988 235.18C325.948 234.732 327.164 234.508 328.636 234.508C329.612 234.508 330.58 234.636 331.54 234.892C332.5 235.148 333.332 235.516 334.036 235.996L333.244 237.916C332.524 237.436 331.764 237.092 330.964 236.884C330.164 236.66 329.388 236.548 328.636 236.548C327.692 236.548 326.916 236.668 326.308 236.908C325.7 237.148 325.252 237.468 324.964 237.868C324.692 238.268 324.556 238.716 324.556 239.212C324.556 239.804 324.74 240.276 325.108 240.628C325.492 240.98 325.98 241.26 326.572 241.468C327.18 241.676 327.844 241.868 328.564 242.044C329.284 242.204 330.004 242.388 330.724 242.596C331.46 242.804 332.124 243.076 332.716 243.412C333.324 243.748 333.812 244.196 334.18 244.756C334.548 245.316 334.732 246.036 334.732 246.916C334.732 247.764 334.5 248.556 334.036 249.292C333.572 250.012 332.852 250.596 331.876 251.044C330.916 251.476 329.7 251.692 328.228 251.692ZM343.302 241.948H351.942V243.988H343.302V241.948ZM343.518 249.412H353.31V251.5H341.118V234.7H352.974V236.788H343.518V249.412ZM364.972 251.692C363.692 251.692 362.468 251.5 361.3 251.116C360.132 250.716 359.212 250.204 358.54 249.58L359.428 247.708C360.068 248.268 360.884 248.732 361.876 249.1C362.868 249.468 363.9 249.652 364.972 249.652C365.948 249.652 366.74 249.54 367.348 249.316C367.956 249.092 368.404 248.788 368.692 248.404C368.98 248.004 369.124 247.556 369.124 247.06C369.124 246.484 368.932 246.02 368.548 245.668C368.18 245.316 367.692 245.036 367.084 244.828C366.492 244.604 365.836 244.412 365.116 244.252C364.396 244.092 363.668 243.908 362.932 243.7C362.212 243.476 361.548 243.196 360.94 242.86C360.348 242.524 359.868 242.076 359.5 241.516C359.132 240.94 358.948 240.204 358.948 239.308C358.948 238.444 359.172 237.652 359.62 236.932C360.084 236.196 360.788 235.612 361.732 235.18C362.692 234.732 363.908 234.508 365.38 234.508C366.356 234.508 367.324 234.636 368.284 234.892C369.244 235.148 370.076 235.516 370.78 235.996L369.988 237.916C369.268 237.436 368.508 237.092 367.708 236.884C366.908 236.66 366.132 236.548 365.38 236.548C364.436 236.548 363.66 236.668 363.052 236.908C362.444 237.148 361.996 237.468 361.708 237.868C361.436 238.268 361.3 238.716 361.3 239.212C361.3 239.804 361.484 240.276 361.852 240.628C362.236 240.98 362.724 241.26 363.316 241.468C363.924 241.676 364.588 241.868 365.308 242.044C366.028 242.204 366.748 242.388 367.468 242.596C368.204 242.804 368.868 243.076 369.46 243.412C370.068 243.748 370.556 244.196 370.924 244.756C371.292 245.316 371.476 246.036 371.476 246.916C371.476 247.764 371.244 248.556 370.78 249.292C370.316 250.012 369.596 250.596 368.62 251.044C367.66 251.476 366.444 251.692 364.972 251.692ZM382.758 251.692C381.478 251.692 380.254 251.5 379.086 251.116C377.918 250.716 376.998 250.204 376.326 249.58L377.214 247.708C377.854 248.268 378.67 248.732 379.662 249.1C380.654 249.468 381.686 249.652 382.758 249.652C383.734 249.652 384.526 249.54 385.134 249.316C385.742 249.092 386.19 248.788 386.478 248.404C386.766 248.004 386.91 247.556 386.91 247.06C386.91 246.484 386.718 246.02 386.334 245.668C385.966 245.316 385.478 245.036 384.87 244.828C384.278 244.604 383.622 244.412 382.902 244.252C382.182 244.092 381.454 243.908 380.718 243.7C379.998 243.476 379.334 243.196 378.726 242.86C378.134 242.524 377.654 242.076 377.286 241.516C376.918 240.94 376.734 240.204 376.734 239.308C376.734 238.444 376.958 237.652 377.406 236.932C377.87 236.196 378.574 235.612 379.518 235.18C380.478 234.732 381.694 234.508 383.166 234.508C384.142 234.508 385.11 234.636 386.07 234.892C387.03 235.148 387.862 235.516 388.566 235.996L387.774 237.916C387.054 237.436 386.294 237.092 385.494 236.884C384.694 236.66 383.918 236.548 383.166 236.548C382.222 236.548 381.446 236.668 380.838 236.908C380.23 237.148 379.782 237.468 379.494 237.868C379.222 238.268 379.086 238.716 379.086 239.212C379.086 239.804 379.27 240.276 379.638 240.628C380.022 240.98 380.51 241.26 381.102 241.468C381.71 241.676 382.374 241.868 383.094 242.044C383.814 242.204 384.534 242.388 385.254 242.596C385.99 242.804 386.654 243.076 387.246 243.412C387.854 243.748 388.342 244.196 388.71 244.756C389.078 245.316 389.262 246.036 389.262 246.916C389.262 247.764 389.03 248.556 388.566 249.292C388.102 250.012 387.382 250.596 386.406 251.044C385.446 251.476 384.23 251.692 382.758 251.692ZM395.648 251.5V234.7H397.616L405.152 247.396H404.096L411.536 234.7H413.504L413.528 251.5H411.224L411.2 238.324H411.752L405.128 249.46H404.024L397.352 238.324H397.952V251.5H395.648ZM423.634 241.948H432.274V243.988H423.634V241.948ZM423.85 249.412H433.642V251.5H421.45V234.7H433.306V236.788H423.85V249.412ZM440.408 251.5V234.7H442.376L453.488 248.5H452.456V234.7H454.856V251.5H452.888L441.776 237.7H442.808V251.5H440.408ZM466.101 251.5V236.788H460.341V234.7H474.237V236.788H468.477V251.5H466.101ZM20.1839 271.644H28.8479V273.708H20.1839V271.644ZM20.4239 280.5H18.0239V263.7H29.8799V265.788H20.4239V280.5ZM43.5348 280.692C42.2548 280.692 41.0628 280.476 39.9588 280.044C38.8708 279.612 37.9268 279.012 37.1268 278.244C36.3268 277.46 35.7028 276.548 35.2548 275.508C34.8068 274.468 34.5828 273.332 34.5828 272.1C34.5828 270.868 34.8068 269.732 35.2548 268.692C35.7028 267.652 36.3268 266.748 37.1268 265.98C37.9268 265.196 38.8708 264.588 39.9588 264.156C41.0468 263.724 42.2388 263.508 43.5348 263.508C44.8148 263.508 45.9908 263.724 47.0628 264.156C48.1508 264.572 49.0948 265.172 49.8948 265.956C50.7108 266.724 51.3348 267.628 51.7668 268.668C52.2148 269.708 52.4388 270.852 52.4388 272.1C52.4388 273.348 52.2148 274.492 51.7668 275.532C51.3348 276.572 50.7108 277.484 49.8948 278.268C49.0948 279.036 48.1508 279.636 47.0628 280.068C45.9908 280.484 44.8148 280.692 43.5348 280.692ZM43.5348 278.556C44.4628 278.556 45.3188 278.396 46.1028 278.076C46.9028 277.756 47.5908 277.308 48.1668 276.732C48.7588 276.14 49.2148 275.452 49.5348 274.668C49.8708 273.884 50.0388 273.028 50.0388 272.1C50.0388 271.172 49.8708 270.316 49.5348 269.532C49.2148 268.748 48.7588 268.068 48.1668 267.492C47.5908 266.9 46.9028 266.444 46.1028 266.124C45.3188 265.804 44.4628 265.644 43.5348 265.644C42.5908 265.644 41.7188 265.804 40.9188 266.124C40.1348 266.444 39.4468 266.9 38.8548 267.492C38.2628 268.068 37.7988 268.748 37.4628 269.532C37.1428 270.316 36.9828 271.172 36.9828 272.1C36.9828 273.028 37.1428 273.884 37.4628 274.668C37.7988 275.452 38.2628 276.14 38.8548 276.732C39.4468 277.308 40.1348 277.756 40.9188 278.076C41.7188 278.396 42.5908 278.556 43.5348 278.556ZM58.987 280.5V263.7H65.539C67.011 263.7 68.267 263.932 69.307 264.396C70.347 264.86 71.147 265.532 71.707 266.412C72.267 267.292 72.547 268.34 72.547 269.556C72.547 270.772 72.267 271.82 71.707 272.7C71.147 273.564 70.347 274.228 69.307 274.692C68.267 275.156 67.011 275.388 65.539 275.388H60.307L61.387 274.284V280.5H58.987ZM70.219 280.5L65.947 274.404H68.515L72.835 280.5H70.219ZM61.387 274.524L60.307 273.348H65.467C67.003 273.348 68.163 273.02 68.947 272.364C69.747 271.692 70.147 270.756 70.147 269.556C70.147 268.356 69.747 267.428 68.947 266.772C68.163 266.116 67.003 265.788 65.467 265.788H60.307L61.387 264.588V274.524ZM91.9658 280.5V265.788H86.2058V263.7H100.102V265.788H94.3418V280.5H91.9658ZM117.644 263.7H120.044V280.5H117.644V263.7ZM107.996 280.5H105.596V263.7H107.996V280.5ZM117.86 273.012H107.756V270.924H117.86V273.012ZM130.136 270.948H138.776V272.988H130.136V270.948ZM130.352 278.412H140.144V280.5H127.952V263.7H139.808V265.788H130.352V278.412ZM156.236 280.5V263.7H163.316C165.108 263.7 166.684 264.052 168.044 264.756C169.42 265.46 170.484 266.444 171.236 267.708C172.004 268.972 172.388 270.436 172.388 272.1C172.388 273.764 172.004 275.228 171.236 276.492C170.484 277.756 169.42 278.74 168.044 279.444C166.684 280.148 165.108 280.5 163.316 280.5H156.236ZM158.636 278.412H163.172C164.564 278.412 165.764 278.148 166.772 277.62C167.796 277.092 168.588 276.356 169.148 275.412C169.708 274.452 169.988 273.348 169.988 272.1C169.988 270.836 169.708 269.732 169.148 268.788C168.588 267.844 167.796 267.108 166.772 266.58C165.764 266.052 164.564 265.788 163.172 265.788H158.636V278.412ZM181.128 270.948H189.768V272.988H181.128V270.948ZM181.344 278.412H191.136V280.5H178.944V263.7H190.8V265.788H181.344V278.412ZM202.798 280.692C201.518 280.692 200.294 280.5 199.126 280.116C197.958 279.716 197.038 279.204 196.366 278.58L197.254 276.708C197.894 277.268 198.71 277.732 199.702 278.1C200.694 278.468 201.726 278.652 202.798 278.652C203.774 278.652 204.566 278.54 205.174 278.316C205.782 278.092 206.23 277.788 206.518 277.404C206.806 277.004 206.95 276.556 206.95 276.06C206.95 275.484 206.758 275.02 206.374 274.668C206.006 274.316 205.518 274.036 204.91 273.828C204.318 273.604 203.662 273.412 202.942 273.252C202.222 273.092 201.494 272.908 200.758 272.7C200.038 272.476 199.374 272.196 198.766 271.86C198.174 271.524 197.694 271.076 197.326 270.516C196.958 269.94 196.774 269.204 196.774 268.308C196.774 267.444 196.998 266.652 197.446 265.932C197.91 265.196 198.614 264.612 199.558 264.18C200.518 263.732 201.734 263.508 203.206 263.508C204.182 263.508 205.15 263.636 206.11 263.892C207.07 264.148 207.902 264.516 208.606 264.996L207.814 266.916C207.094 266.436 206.334 266.092 205.534 265.884C204.734 265.66 203.958 265.548 203.206 265.548C202.262 265.548 201.486 265.668 200.878 265.908C200.27 266.148 199.822 266.468 199.534 266.868C199.262 267.268 199.126 267.716 199.126 268.212C199.126 268.804 199.31 269.276 199.678 269.628C200.062 269.98 200.55 270.26 201.142 270.468C201.75 270.676 202.414 270.868 203.134 271.044C203.854 271.204 204.574 271.388 205.294 271.596C206.03 271.804 206.694 272.076 207.286 272.412C207.894 272.748 208.382 273.196 208.75 273.756C209.118 274.316 209.302 275.036 209.302 275.916C209.302 276.764 209.07 277.556 208.606 278.292C208.142 279.012 207.422 279.596 206.446 280.044C205.486 280.476 204.27 280.692 202.798 280.692ZM215.688 280.5V263.7H218.088V280.5H215.688ZM233.582 280.692C232.286 280.692 231.094 280.484 230.006 280.068C228.918 279.636 227.974 279.036 227.174 278.268C226.374 277.484 225.75 276.572 225.302 275.532C224.854 274.492 224.63 273.348 224.63 272.1C224.63 270.852 224.854 269.708 225.302 268.668C225.75 267.628 226.374 266.724 227.174 265.956C227.99 265.172 228.942 264.572 230.03 264.156C231.118 263.724 232.318 263.508 233.63 263.508C234.958 263.508 236.174 263.724 237.278 264.156C238.382 264.588 239.318 265.236 240.086 266.1L238.598 267.588C237.91 266.916 237.158 266.428 236.342 266.124C235.542 265.804 234.67 265.644 233.726 265.644C232.766 265.644 231.87 265.804 231.038 266.124C230.222 266.444 229.51 266.892 228.902 267.468C228.31 268.044 227.846 268.732 227.51 269.532C227.19 270.316 227.03 271.172 227.03 272.1C227.03 273.012 227.19 273.868 227.51 274.668C227.846 275.452 228.31 276.14 228.902 276.732C229.51 277.308 230.222 277.756 231.038 278.076C231.854 278.396 232.742 278.556 233.702 278.556C234.598 278.556 235.454 278.42 236.27 278.148C237.102 277.86 237.87 277.388 238.574 276.732L239.942 278.556C239.11 279.26 238.134 279.796 237.014 280.164C235.91 280.516 234.766 280.692 233.582 280.692ZM237.638 278.244V272.004H239.942V278.556L237.638 278.244ZM247.417 280.5V263.7H249.385L260.497 277.5H259.465V263.7H261.865V280.5H259.897L248.785 266.7H249.817V280.5H247.417ZM281.283 270.948H289.923V272.988H281.283V270.948ZM281.499 278.412H291.291V280.5H279.099V263.7H290.955V265.788H281.499V278.412ZM295.513 280.5L303.121 263.7H305.497L313.129 280.5H310.609L303.817 265.044H304.777L297.985 280.5H295.513ZM298.753 276.3L299.401 274.38H308.857L309.553 276.3H298.753ZM318.515 280.5V263.7H325.067C326.539 263.7 327.795 263.932 328.835 264.396C329.875 264.86 330.675 265.532 331.235 266.412C331.795 267.292 332.075 268.34 332.075 269.556C332.075 270.772 331.795 271.82 331.235 272.7C330.675 273.564 329.875 274.228 328.835 274.692C327.795 275.156 326.539 275.388 325.067 275.388H319.835L320.915 274.284V280.5H318.515ZM329.747 280.5L325.475 274.404H328.043L332.363 280.5H329.747ZM320.915 274.524L319.835 273.348H324.995C326.531 273.348 327.691 273.02 328.475 272.364C329.275 271.692 329.675 270.756 329.675 269.556C329.675 268.356 329.275 267.428 328.475 266.772C327.691 266.116 326.531 265.788 324.995 265.788H319.835L320.915 264.588V274.524ZM341.934 280.5V265.788H336.174V263.7H350.07V265.788H344.31V280.5H341.934ZM367.612 263.7H370.012V280.5H367.612V263.7ZM357.964 280.5H355.564V263.7H357.964V280.5ZM367.828 273.012H357.724V270.924H367.828V273.012ZM385.505 280.692C384.225 280.692 383.033 280.476 381.929 280.044C380.841 279.612 379.897 279.012 379.097 278.244C378.297 277.46 377.673 276.548 377.225 275.508C376.777 274.468 376.553 273.332 376.553 272.1C376.553 270.868 376.777 269.732 377.225 268.692C377.673 267.652 378.297 266.748 379.097 265.98C379.897 265.196 380.841 264.588 381.929 264.156C383.017 263.724 384.209 263.508 385.505 263.508C386.785 263.508 387.961 263.724 389.033 264.156C390.121 264.572 391.065 265.172 391.865 265.956C392.681 266.724 393.305 267.628 393.737 268.668C394.185 269.708 394.409 270.852 394.409 272.1C394.409 273.348 394.185 274.492 393.737 275.532C393.305 276.572 392.681 277.484 391.865 278.268C391.065 279.036 390.121 279.636 389.033 280.068C387.961 280.484 386.785 280.692 385.505 280.692ZM391.001 284.004C390.441 284.004 389.905 283.932 389.393 283.788C388.881 283.66 388.369 283.444 387.857 283.14C387.345 282.852 386.817 282.468 386.273 281.988C385.729 281.524 385.137 280.948 384.497 280.26L387.065 279.588C387.545 280.18 388.001 280.66 388.433 281.028C388.881 281.412 389.321 281.684 389.753 281.844C390.185 282.02 390.609 282.108 391.025 282.108C392.225 282.108 393.249 281.628 394.097 280.668L395.225 282.036C394.137 283.348 392.729 284.004 391.001 284.004ZM385.505 278.556C386.433 278.556 387.289 278.396 388.073 278.076C388.873 277.756 389.561 277.3 390.137 276.708C390.729 276.116 391.185 275.428 391.505 274.644C391.841 273.86 392.009 273.012 392.009 272.1C392.009 271.172 391.841 270.316 391.505 269.532C391.185 268.748 390.729 268.068 390.137 267.492C389.561 266.9 388.873 266.444 388.073 266.124C387.289 265.804 386.433 265.644 385.505 265.644C384.561 265.644 383.689 265.804 382.889 266.124C382.105 266.444 381.417 266.9 380.825 267.492C380.233 268.068 379.769 268.748 379.433 269.532C379.113 270.316 378.953 271.172 378.953 272.1C378.953 273.012 379.113 273.86 379.433 274.644C379.769 275.428 380.233 276.116 380.825 276.708C381.417 277.3 382.105 277.756 382.889 278.076C383.689 278.396 384.561 278.556 385.505 278.556ZM407.917 280.692C405.709 280.692 403.973 280.06 402.709 278.796C401.445 277.532 400.813 275.684 400.813 273.252V263.7H403.213V273.156C403.213 275.028 403.621 276.396 404.437 277.26C405.269 278.124 406.437 278.556 407.941 278.556C409.461 278.556 410.629 278.124 411.445 277.26C412.277 276.396 412.693 275.028 412.693 273.156V263.7H415.021V273.252C415.021 275.684 414.389 277.532 413.125 278.796C411.877 280.06 410.141 280.692 407.917 280.692ZM419.926 280.5L427.534 263.7H429.91L437.542 280.5H435.022L428.23 265.044H429.19L422.398 280.5H419.926ZM423.166 276.3L423.814 274.38H433.27L433.966 276.3H423.166ZM445.04 276.444L444.92 273.516L454.448 263.7H457.184L449.816 271.476L448.472 272.964L445.04 276.444ZM442.928 280.5V263.7H445.328V280.5H442.928ZM454.832 280.5L447.944 272.484L449.552 270.708L457.64 280.5H454.832ZM465.242 270.948H473.882V272.988H465.242V270.948ZM465.458 278.412H475.25V280.5H463.058V263.7H474.914V265.788H465.458V278.412ZM105.296 309.692C104.016 309.692 102.824 309.476 101.72 309.044C100.632 308.612 99.6879 308.012 98.8879 307.244C98.0879 306.46 97.4639 305.548 97.0159 304.508C96.5679 303.468 96.3439 302.332 96.3439 301.1C96.3439 299.868 96.5679 298.732 97.0159 297.692C97.4639 296.652 98.0879 295.748 98.8879 294.98C99.6879 294.196 100.632 293.588 101.72 293.156C102.808 292.724 104 292.508 105.296 292.508C106.576 292.508 107.752 292.724 108.824 293.156C109.912 293.572 110.856 294.172 111.656 294.956C112.472 295.724 113.096 296.628 113.528 297.668C113.976 298.708 114.2 299.852 114.2 301.1C114.2 302.348 113.976 303.492 113.528 304.532C113.096 305.572 112.472 306.484 111.656 307.268C110.856 308.036 109.912 308.636 108.824 309.068C107.752 309.484 106.576 309.692 105.296 309.692ZM105.296 307.556C106.224 307.556 107.08 307.396 107.864 307.076C108.664 306.756 109.352 306.308 109.928 305.732C110.52 305.14 110.976 304.452 111.296 303.668C111.632 302.884 111.8 302.028 111.8 301.1C111.8 300.172 111.632 299.316 111.296 298.532C110.976 297.748 110.52 297.068 109.928 296.492C109.352 295.9 108.664 295.444 107.864 295.124C107.08 294.804 106.224 294.644 105.296 294.644C104.352 294.644 103.48 294.804 102.68 295.124C101.896 295.444 101.208 295.9 100.616 296.492C100.024 297.068 99.5599 297.748 99.2239 298.532C98.9039 299.316 98.7439 300.172 98.7439 301.1C98.7439 302.028 98.9039 302.884 99.2239 303.668C99.5599 304.452 100.024 305.14 100.616 305.732C101.208 306.308 101.896 306.756 102.68 307.076C103.48 307.396 104.352 307.556 105.296 307.556ZM122.908 300.644H131.572V302.708H122.908V300.644ZM123.148 309.5H120.748V292.7H132.604V294.788H123.148V309.5ZM151.524 309.5V294.788H145.764V292.7H159.66V294.788H153.9V309.5H151.524ZM177.202 292.7H179.602V309.5H177.202V292.7ZM167.554 309.5H165.154V292.7H167.554V309.5ZM177.418 302.012H167.314V299.924H177.418V302.012ZM189.694 299.948H198.334V301.988H189.694V299.948ZM189.91 307.412H199.702V309.5H187.51V292.7H199.366V294.788H189.91V307.412ZM215.794 309.5V292.7H222.346C223.818 292.7 225.074 292.932 226.114 293.396C227.154 293.86 227.954 294.532 228.514 295.412C229.074 296.292 229.354 297.34 229.354 298.556C229.354 299.772 229.074 300.82 228.514 301.7C227.954 302.564 227.154 303.236 226.114 303.716C225.074 304.18 223.818 304.412 222.346 304.412H217.114L218.194 303.284V309.5H215.794ZM218.194 303.524L217.114 302.324H222.274C223.81 302.324 224.97 301.996 225.754 301.34C226.554 300.684 226.954 299.756 226.954 298.556C226.954 297.356 226.554 296.428 225.754 295.772C224.97 295.116 223.81 294.788 222.274 294.788H217.114L218.194 293.588V303.524ZM247.808 292.7H250.208V309.5H247.808V292.7ZM238.16 309.5H235.76V292.7H238.16V309.5ZM248.024 302.012H237.92V299.924H248.024V302.012ZM258.116 309.5V292.7H260.516V309.5H258.116ZM268.426 309.5V292.7H270.826V307.412H279.922V309.5H268.426ZM285.556 309.5V292.7H287.956V309.5H285.556ZM295.866 309.5V292.7H302.418C303.89 292.7 305.146 292.932 306.186 293.396C307.226 293.86 308.026 294.532 308.586 295.412C309.146 296.292 309.426 297.34 309.426 298.556C309.426 299.772 309.146 300.82 308.586 301.7C308.026 302.564 307.226 303.236 306.186 303.716C305.146 304.18 303.89 304.412 302.418 304.412H297.186L298.266 303.284V309.5H295.866ZM298.266 303.524L297.186 302.324H302.346C303.882 302.324 305.042 301.996 305.826 301.34C306.626 300.684 307.026 299.756 307.026 298.556C307.026 297.356 306.626 296.428 305.826 295.772C305.042 295.116 303.882 294.788 302.346 294.788H297.186L298.266 293.588V303.524ZM315.832 309.5V292.7H322.384C323.856 292.7 325.112 292.932 326.152 293.396C327.192 293.86 327.992 294.532 328.552 295.412C329.112 296.292 329.392 297.34 329.392 298.556C329.392 299.772 329.112 300.82 328.552 301.7C327.992 302.564 327.192 303.236 326.152 303.716C325.112 304.18 323.856 304.412 322.384 304.412H317.152L318.232 303.284V309.5H315.832ZM318.232 303.524L317.152 302.324H322.312C323.848 302.324 325.008 301.996 325.792 301.34C326.592 300.684 326.992 299.756 326.992 298.556C326.992 297.356 326.592 296.428 325.792 295.772C325.008 295.116 323.848 294.788 322.312 294.788H317.152L318.232 293.588V303.524ZM335.798 309.5V292.7H338.198V309.5H335.798ZM346.107 309.5V292.7H348.075L359.187 306.5H358.155V292.7H360.555V309.5H358.587L347.475 295.7H348.507V309.5H346.107ZM370.648 299.948H379.288V301.988H370.648V299.948ZM370.864 307.412H380.656V309.5H368.464V292.7H380.32V294.788H370.864V307.412ZM392.318 309.692C391.038 309.692 389.814 309.5 388.646 309.116C387.478 308.716 386.558 308.204 385.886 307.58L386.774 305.708C387.414 306.268 388.23 306.732 389.222 307.1C390.214 307.468 391.246 307.652 392.318 307.652C393.294 307.652 394.086 307.54 394.694 307.316C395.302 307.092 395.75 306.788 396.038 306.404C396.326 306.004 396.47 305.556 396.47 305.06C396.47 304.484 396.278 304.02 395.894 303.668C395.526 303.316 395.038 303.036 394.43 302.828C393.838 302.604 393.182 302.412 392.462 302.252C391.742 302.092 391.014 301.908 390.278 301.7C389.558 301.476 388.894 301.196 388.286 300.86C387.694 300.524 387.214 300.076 386.846 299.516C386.478 298.94 386.294 298.204 386.294 297.308C386.294 296.444 386.518 295.652 386.966 294.932C387.43 294.196 388.134 293.612 389.078 293.18C390.038 292.732 391.254 292.508 392.726 292.508C393.702 292.508 394.67 292.636 395.63 292.892C396.59 293.148 397.422 293.516 398.126 293.996L397.334 295.916C396.614 295.436 395.854 295.092 395.054 294.884C394.254 294.66 393.478 294.548 392.726 294.548C391.782 294.548 391.006 294.668 390.398 294.908C389.79 295.148 389.342 295.468 389.054 295.868C388.782 296.268 388.646 296.716 388.646 297.212C388.646 297.804 388.83 298.276 389.198 298.628C389.582 298.98 390.07 299.26 390.662 299.468C391.27 299.676 391.934 299.868 392.654 300.044C393.374 300.204 394.094 300.388 394.814 300.596C395.55 300.804 396.214 301.076 396.806 301.412C397.414 301.748 397.902 302.196 398.27 302.756C398.638 303.316 398.822 304.036 398.822 304.916C398.822 305.764 398.59 306.556 398.126 307.292C397.662 308.012 396.942 308.596 395.966 309.044C395.006 309.476 393.79 309.692 392.318 309.692Z" fill="white"/>
</g>
<defs>
<filter id="filter0_b_1200_9244" x="176.571" y="-4.54299" width="141.856" height="150.086" filterUnits="userSpaceOnUse" color-interpolation-filters="sRGB">
<feFlood flood-opacity="0" result="BackgroundImageFix"/>
<feGaussianBlur in="BackgroundImageFix" stdDeviation="8.69898"/>
<feComposite in2="SourceAlpha" operator="in" result="effect1_backgroundBlur_1200_9244"/>
<feBlend mode="normal" in="SourceGraphic" in2="effect1_backgroundBlur_1200_9244" result="shape"/>
</filter>
<filter id="filter1_d_1200_9244" x="137.57" y="170.34" width="218.875" height="47.8203" filterUnits="userSpaceOnUse" color-interpolation-filters="sRGB">
<feFlood flood-opacity="0" result="BackgroundImageFix"/>
<feColorMatrix in="SourceAlpha" type="matrix" values="0 0 0 0 0 0 0 0 0 0 0 0 0 0 0 0 0 0 127 0" result="hardAlpha"/>
<feOffset dy="4"/>
<feGaussianBlur stdDeviation="2"/>
<feComposite in2="hardAlpha" operator="out"/>
<feColorMatrix type="matrix" values="0 0 0 0 0 0 0 0 0 0 0 0 0 0 0 0 0 0 0.25 0"/>
<feBlend mode="normal" in2="BackgroundImageFix" result="effect1_dropShadow_1200_9244"/>
<feBlend mode="normal" in="SourceGraphic" in2="effect1_dropShadow_1200_9244" result="shape"/>
</filter>
<filter id="filter2_d_1200_9244" x="14.0234" y="234.508" width="465.227" height="83.1841" filterUnits="userSpaceOnUse" color-interpolation-filters="sRGB">
<feFlood flood-opacity="0" result="BackgroundImageFix"/>
<feColorMatrix in="SourceAlpha" type="matrix" values="0 0 0 0 0 0 0 0 0 0 0 0 0 0 0 0 0 0 127 0" result="hardAlpha"/>
<feOffset dy="4"/>
<feGaussianBlur stdDeviation="2"/>
<feComposite in2="hardAlpha" operator="out"/>
<feColorMatrix type="matrix" values="0 0 0 0 0 0 0 0 0 0 0 0 0 0 0 0 0 0 0.25 0"/>
<feBlend mode="normal" in2="BackgroundImageFix" result="effect1_dropShadow_1200_9244"/>
<feBlend mode="normal" in="SourceGraphic" in2="effect1_dropShadow_1200_9244" result="shape"/>
</filter>
<linearGradient id="paint0_linear_1200_9244" x1="256.086" y1="31.9661" x2="256.089" y2="24.3175" gradientUnits="userSpaceOnUse">
<stop stop-color="#0C71D1"/>
<stop offset="0.479167" stop-color="#20B1E7"/>
<stop offset="1" stop-color="#10DFCC"/>
<stop offset="1" stop-color="#10DFCC"/>
</linearGradient>
<linearGradient id="paint1_linear_1200_9244" x1="262.837" y1="70.2693" x2="262.875" y2="1.43191" gradientUnits="userSpaceOnUse">
<stop stop-color="#0C71D1"/>
<stop offset="0.479167" stop-color="#20B1E7"/>
<stop offset="1" stop-color="#10DFCC"/>
<stop offset="1" stop-color="#10DFCC"/>
</linearGradient>
<linearGradient id="paint2_linear_1200_9244" x1="267.746" y1="31.994" x2="267.749" y2="24.3454" gradientUnits="userSpaceOnUse">
<stop stop-color="#0C71D1"/>
<stop offset="0.479167" stop-color="#20B1E7"/>
<stop offset="1" stop-color="#10DFCC"/>
<stop offset="1" stop-color="#10DFCC"/>
</linearGradient>
<linearGradient id="paint3_linear_1200_9244" x1="267.746" y1="44.7523" x2="267.749" y2="37.1037" gradientUnits="userSpaceOnUse">
<stop stop-color="#0C71D1"/>
<stop offset="0.479167" stop-color="#20B1E7"/>
<stop offset="1" stop-color="#10DFCC"/>
<stop offset="1" stop-color="#10DFCC"/>
</linearGradient>
<linearGradient id="paint4_linear_1200_9244" x1="267.746" y1="57.5106" x2="267.749" y2="49.862" gradientUnits="userSpaceOnUse">
<stop stop-color="#0C71D1"/>
<stop offset="0.479167" stop-color="#20B1E7"/>
<stop offset="1" stop-color="#10DFCC"/>
<stop offset="1" stop-color="#10DFCC"/>
</linearGradient>
<linearGradient id="paint5_linear_1200_9244" x1="232.483" y1="70.2694" x2="232.508" y2="12.9048" gradientUnits="userSpaceOnUse">
<stop stop-color="#0C71D1"/>
<stop offset="0.479167" stop-color="#20B1E7"/>
<stop offset="1" stop-color="#10DFCC"/>
<stop offset="1" stop-color="#10DFCC"/>
</linearGradient>
<linearGradient id="paint6_linear_1200_9244" x1="262.839" y1="70.2679" x2="262.877" y2="1.43045" gradientUnits="userSpaceOnUse">
<stop stop-color="#0C71D1"/>
<stop offset="0.479167" stop-color="#20B1E7"/>
<stop offset="1" stop-color="#10DFCC"/>
<stop offset="1" stop-color="#10DFCC"/>
</linearGradient>
<linearGradient id="paint7_linear_1200_9244" x1="262.194" y1="64.6389" x2="262.227" y2="10.1994" gradientUnits="userSpaceOnUse">
<stop stop-color="#0C71D1"/>
<stop offset="0.479167" stop-color="#20B1E7"/>
<stop offset="1" stop-color="#10DFCC"/>
<stop offset="1" stop-color="#10DFCC"/>
</linearGradient>
<linearGradient id="paint8_linear_1200_9244" x1="232.483" y1="70.2694" x2="232.508" y2="12.9048" gradientUnits="userSpaceOnUse">
<stop stop-color="#0C71D1"/>
<stop offset="0.479167" stop-color="#20B1E7"/>
<stop offset="1" stop-color="#10DFCC"/>
<stop offset="1" stop-color="#10DFCC"/>
</linearGradient>
<linearGradient id="paint9_linear_1200_9244" x1="247.515" y1="126.618" x2="247.509" y2="85.2784" gradientUnits="userSpaceOnUse">
<stop stop-color="#FEF45A"/>
<stop offset="0.479167" stop-color="#FFB458"/>
<stop offset="1" stop-color="#FF3841"/>
</linearGradient>
</defs>
</svg>
