<svg width="56" height="56" viewBox="0 0 56 56" fill="none" xmlns="http://www.w3.org/2000/svg">
<rect width="56" height="56" fill="#0052D4"/>
<g clip-path="url(#clip0_629_22885)">
<path d="M38.7053 21.0188L31.9803 14.2938C31.7928 14.1063 31.5396 14 31.274 14H17.999C17.4459 14 16.999 14.4469 16.999 15V41C16.999 41.5531 17.4459 42 17.999 42H37.999C38.5522 42 38.999 41.5531 38.999 41V21.7281C38.999 21.4625 38.8928 21.2063 38.7053 21.0188ZM36.6928 22.1875H30.8115V16.3063L36.6928 22.1875ZM36.749 39.75H19.249V16.25H28.6865V23C28.6865 23.3481 28.8248 23.6819 29.0709 23.9281C29.3171 24.1742 29.6509 24.3125 29.999 24.3125H36.749V39.75ZM27.749 31.3125H21.999C21.8615 31.3125 21.749 31.425 21.749 31.5625V33.0625C21.749 33.2 21.8615 33.3125 21.999 33.3125H27.749C27.8865 33.3125 27.999 33.2 27.999 33.0625V31.5625C27.999 31.425 27.8865 31.3125 27.749 31.3125ZM21.749 27.3125V28.8125C21.749 28.95 21.8615 29.0625 21.999 29.0625H33.999C34.1365 29.0625 34.249 28.95 34.249 28.8125V27.3125C34.249 27.175 34.1365 27.0625 33.999 27.0625H21.999C21.8615 27.0625 21.749 27.175 21.749 27.3125Z" fill="white"/>
</g>
<defs>
<clipPath id="clip0_629_22885">
<rect width="28" height="28" fill="white" transform="translate(14 14)"/>
</clipPath>
</defs>
</svg>
