<svg width="41" height="42" viewBox="0 0 41 42" fill="none" xmlns="http://www.w3.org/2000/svg">
<rect x="0.5" y="0.845703" width="40.4615" height="40.4615" rx="2.92308" fill="#1890FF" fill-opacity="0.08"/>
<path d="M27.1377 15.5505C27.3544 15.0005 26.9544 14.4089 26.3627 14.4089H15.9294V13.5755C15.9294 13.1172 15.5544 12.7422 15.096 12.7422C14.6377 12.7422 14.2627 13.1172 14.2627 13.5755V29.4089H15.9294V22.7422H26.3627C26.9544 22.7422 27.3544 22.1505 27.1377 21.6005L25.9294 18.5755L27.1377 15.5505ZM22.596 18.5755C22.596 19.4922 21.846 20.2422 20.9294 20.2422C20.0127 20.2422 19.2627 19.4922 19.2627 18.5755C19.2627 17.6589 20.0127 16.9089 20.9294 16.9089C21.846 16.9089 22.596 17.6589 22.596 18.5755Z" fill="#0052D4"/>
</svg>
